<svg xmlns="http://www.w3.org/2000/svg" xmlns:xlink="http://www.w3.org/1999/xlink" width="179" height="105" viewBox="0 0 179 105">
    <defs>
        <path id="a" d="M.744.284h22.948v22.275H.744z"/>
    </defs>
    <g fill="none" fill-rule="evenodd">
        <path fill="#24ABFF" d="M122.278 38.202c-.209.21-.76 1.019-1.094.843-.437-.23-.593.358-.687.625-.18.514-.317.81-.875.907-.554.095-.698.224-.813.78-.25 1.218-1.455.284-2.03-.03-.5-.273-1.36-.085-1.907-.063-.713.03-1.45.06-2.157-.063.234-.215.125-.958-.218-.406-.34.545-.8.438-1.375.438h-4.407c-2.994 0-6.037-.031-9.03-.031.06 1.785.126 3.589.156 5.375h-2.313l.22 11.562c-.385-.12-.775-.294-1.157-.094-.317.166-.616-.003-.938.157-.75.37.031.934-.437 1.53-.376.48-.456.992-1 1.282-.343.181.007 1.048.218 1.25-.78.624-1.279.82-.718 1.874.212.402-.047.582-.375.813-.35.248-.406.56-.563.938.304.82.864.047 1.375.344.303.175-.139.481 0 .718.17.29.25.67.156 1 .08-.04.167-.09.25-.124.243.39-.229.823-.03 1.219.195.392.703.463.874.75.251.42-.279.81-.094 1.218.193.422.552.74.875 1.063.578.576 1.06 1.422 1.063 2.25.002.349.031.826-.188 1.124-.188.259-.384.35-.312.72.082-.03.168-.066.25-.095.066.249-.072.468-.156.689.407.073 1.321-.046 1.625.28.003.099.062.188.093.281.306.019.068-.346.25-.436.073-.037.071-.183.125-.22.138-.091.341-.06.47-.188.056-.056.056-.206.093-.28.074-.147-.17-.254-.125-.438.03-.118.101-.265.156-.374.065-.132-.047-.204 0-.282.06-.18.25-.186.313-.313.074-.148-.184-.535-.094-.624.096-.098.135-.26.22-.345.131-.131.304-.273.436-.405.207-.207.008-.637.22-.845.148-.148.634.085.811-.093.122-.123.823-.365.938-.25.156.156.142.673.22.75.065.066.288.038.342.093.102.103.094.282.157.407.041.082.143.206.187.25.158.157.08.58.22.718.09.092.394.216.5.25.27.092 1.345-.252 1.5-.405.033-.034.22.024.25.03.431.088 1.08.087 1.405.032.164.23.24.55.406.718.183.184 1.412.092 1.656-.03.084-.042.053-.233.094-.314.111-.22.44-.53.688-.656.287-.143.963-.024 1.125-.186.111-.112-.097-.716.062-.876.213-.212.6-.371.813-.5.607.144.876.595 1.25.969.21.21.51.322.687.5.051.05.111-.08.125-.094.045-.044.44-.031.531-.031.115 0 .421.047.5-.032.41-.407.751-1.031 1.188-1.468.203-.204.212-.713.406-.907.362-.36.907-.688 1.063-1.155-.47-.368.122-1.442-.188-1.75-.04-.042-.644-.575-.625-.595.206-.205 1.323.138 1.47-.155.095-.193-.025-.449 0-.595.12-.063 1.25-.01 1.25 0 0 .236-.225 1.074-.345 1.313-.12.24.271 1.678.344 1.969.035.14-.082.666-.03.718.108.11.39.147.53.25.56.42.844 1.22 1.25 1.626.132.132.006.874-.219.688.045 1.323-.073.454.72.718.023-.2.06-.397.124-.594.146-.45.361-.765.344-1.25-.02-.544-.072-.928.281-1.374.268-.338.696-.066.688.311.188-.206.291-.352.437-.655.368-.768-.175-.764 0-.97.426-.501.1-1.382.562-1.688.446-.291.625-1.272.907-1.718.287-.454.65-.25 1.094-.313.294-.04.245-.916.25-1.124.014-.586.35-1.007.468-1.563.172-.805.06-1.718.032-2.282-.03-.603-.22-1.337 0-1.75.307-.575.394-1.352.656-2.061.101-.276.25-.587.312-.875.07-.313-.088-.535-.03-.844.058-.314-.009-.985.28-1.156.21-.124.795.128.875-.157.157-.552.08-.614.688-.843.336-.127 1.096-.42 1.281-.72.141-.227.51-.846.594-.937-.052-.418-.76-.367-.782-.75-.289.26-1.095-1.081-1.53-1.156-.754-.128-1-1.587-1.032-2.219-.047-.9-.305-1.709-.187-2.593.051-.392-.094-.832-.25-1.188-.216-.492.237-.735.343-.25-.029-.638-.76-1.034-.937-1.625-.213-.715.095-.978-.563-1.438-.496-.346-.825-1.01-1.344-1.28-.579-.303-1.029-.532-1.187-1.22"/>
        <path fill="#24ABFF" d="M61.6 19.657c-.298-.257.341-.56.506-.636.497-.23.765-.364 1.067-.852.242-.393.485-.585.39-1.09-.08-.437-.288-.877-.243-1.332.061-.624.82-.464.94-.91.13-.484.523-.732.926-.924.31-.147 1.313-.42 1.321-.848.004-.214-.205-.346-.183-.574.04-.416.056-.834.098-1.25.401.28.938.42 1.37.685.451.278.964.373 1.49.315.532-.059.923-.396 1.471-.198.487.177 1.004.195 1.478.397.422.18.763.506 1.19.672.371.146.875-.007 1.207.223.391.271.465.735.54 1.17.097.556.315 1 .748 1.373.783.675 1.75.517 2.692.688.945.171 2.291.601 3.048 1.214.605.49 1.165 1.318 2.03 1.241 1-.09 2.07-.972 2.293-1.976.103-.463-.21-.824-.352-1.242-.157-.46-.272-.989-.114-1.466.29-.874 1.73-1.959 2.642-1.989.472-.016.748-.358 1.186-.392.445-.034.921-.042 1.356.065.51.124.953.37 1.436.56.572.224.421.302.45.803.021.405.677.491.97.513.566.043.933.3 1.458.452.52.151 1.067-.024 1.595.073.3.054.751.652.644.965-.112.332-.516.416-.572.79-.078.513.251.895.341 1.374.102.538-.246 1.015-.428 1.483-.195.497.314 1.087.4 1.601.143.876.3 1.705.354 2.603l.552 23.34H95.58c.021.446.005.894.043 1.34L77.128 37.45l-4.195 2.01c-.355.097-.79-.483-.998-.689-.865-.863-1.805-1.039-2.958-1.302-.41-.093-.95-.14-1.316-.368-.29-.18-.428-.69-.549-.984-.353-.865-.783-1.1-1.63-1.419-.28-.106-.55-.345-.858-.337-.3.008-.627.342-.909.037-.23-.248-.627-.886-.633-1.229-.012-.718-.082-.98-.477-1.592-.304-.47-1.315-1.308-.88-1.936.502-.723 1.271-.446.941-1.633-.164-.594-.283-1.05-.079-1.652.174-.516.277-.943.087-1.476-.2-.56-.045-1.123.006-1.693a4.771 4.771 0 0 0-.267-1.996 6.086 6.086 0 0 0-.813-1.534M140 62.92a.718.718 0 0 0 .021-.313c-.341.054-.202.19-.021.312M162.658 67.652c-.014-.241-.31-.156-.446-.135l.446.135M165.96 67.204c.522-.119 1.429-.062 1.696-.647-.313-.188-.728-.476-1.115-.389-.184.041-.342.161-.538.142-.208-.019-.386-.2-.602-.162-.235.043-.445.501-.251.673.204.181.539.345.81.383M164.02 55.475c-.754-.027-.328-1.57-1.074-1.656.335-.532-.905-2.181-1.119-2.763l-.87-2.012c-2.21.434-4.428.91-6.602 1.203-1.814.56-2.73 1.46-3.14 2.443-.38.566-.582 1.994-1.489 1.939-.618-.037-.55-.964-1.144-.893a7.728 7.728 0 0 1-2.12-.032c-.43-.061-.873-.368-1.295-.368-.466 0-.933.045-1.397.089-.57.054-1.052.31-1.643.278-.325-.018-.445-.38-.776-.42-.319-.04-.563.173-.696.442a1.615 1.615 0 0 0-.137.97c.036.209.327.416.168.63-.149.202-.269.41-.423.62a.894.894 0 0 1-.31.273c-.298.15-.148.262-.085.589.096.517-.099.757-.19 1.228-.087.436.28.815.239 1.249-.084-.075-.528-.086-.453.087-.017-.036.448.225.447.224.25.266.341.54.427.888.166.68.18 1.439.394 2.1.088.274.305.477.409.742.125.32.007.667 0 .994-.013.646.77 1.19.559 1.848.285.022.477-.138.766-.023.308.123.52.225.858.157.7-.138 1.01-.627 1.738-.245-.037-.198.174-.4.246-.111.12-.133.19-.286.287-.435.155-.233.404-.227.61-.384.46-.346.51-.695 1.143-.84a5.794 5.794 0 0 1 1.815-.107c.355.032.948-.373 1.302-.474.53-.15.791-.608 1.257-.866.144-.08.345-.258.5-.303.17.005.333.045.488.12.175.009.346-.012.513-.062 1.125-.182 1.378-1.346 2.39-1.842.47-.23.885-.29 1.386-.377.619-.107 1.13-.522 1.74-.668.423-.1.851-.18 1.261-.328.411-.148.558-.475.904-.652.287-.148.909-.13.996-.52.102-.452-.212-.864-.047-1.326.332-.932 1.47-.895 2.165-1.406"/>
        <path fill="#24ABFF" d="M20.191 27.024l.158-3.371c-.146-.906 1.243-1.205 1.744-1.661.248-.226.654-.688 1.036-.664.332.02.41-.48.845-.565.711-.137 1.076.552 1.504-.39.132-.292.575-.17.83-.203.458-.061.92-.124 1.352-.283.87-.321.905-1.255 1.645-1.646.306-.161.705-.18 1.028-.298.396-.147.656-.592 1.066-.674.15-.03.955-.096.625-.52-.212-.275-.55-.375-.114-.774-.625-.172-.06-.827.398-.79.607.05 1.167-.165 1.383-.733.412-1.09 3.222-.124 4.023-.33-.919-.415.671-.921.172-1.306-.236-.182-.5-.343-.692-.575-.222-.27-.106-.655-.324-.984-.228-.344-.1-.627-.035-.97.061-.321-.187-.325-.152-.637.032-.291.028-.641.031-.931.006-.39-.253-.702.132-1.004-.4-.163-.238-.387-.297-.687-.077-.4-.769-.528-.92-.94.742-.001 1.06-.181 1.69-.504.275-.14.448-.141.614-.43.146-.256.257-.472.53-.617.153-.083.451-.322.614-.194.211.167.476-.123.616-.251.365-.333.864.505 1.236-.26.5-1.026 2.22-1.47 3.225-1.585.717-.083 1.441-.28 2.164-.231.54.036.91-.651 1.377-.387.204.115.158.05.235-.077.017-.028.825-.016.946-.064.698-.277 1.403-.172 2.137-.193.612-.017.757.11 1.223.46.595.45.801-.214 1.317-.277.166-.02 1.195-.065 1.14-.37-.103-.548.646-.21.825-.091.372.25.932.376 1.314.07.21-.167.073-.385.472-.286.283.07.506.28.814.263-.26.432.386.28.591.227.408-.106.85-.007 1.241-.138.03.557-.676.829-.983 1.184.837.18.035 1.356.203 1.895.294.937.171 1.645-.026 2.569-.162.76-1.009 1.352-1.574 1.85-.329.292-.169 1.052.023 1.373.312.522.17 1.09.811 1.333.876.333.62 1.442 1.326 1.97.327.246.713.424.99.73.375.418.43 1.1.517 1.628.18 1.092.697 2.304.697 3.404 0 .298-.624.184-.222.72.391.522.713 1.133.842 1.774.443 2.205-.209 2.19.124 3.32.16.54.167.934-.043 1.459-.236.593-.02 1.147.108 1.738.194.894-.203.908-.839 1.388-.724.548.48 1.61.794 2.094.587.903.234 1.975 1.015 2.818.3.323.645-.065.965-.041.405.03.844.336 1.224.475.868.315 1.16 1.043 1.48 1.867.151.39.304.437-.119.677-4.4 2.807-8.84 5.615-12.59 9.266-.215.314-.913 1.098-1.455 1.398-.41.227-1.016.248-1.469.342-.617.127-1.234.248-1.85.379-.308.065-3.014.995-2.898.037.041-.338.282-.468.25-.842-.014-.144.03-.898-.12-.973-.455-.227-1.023-.331-1.525-.428-.248-.047-.58-.677-.769-.63-1.084.266-1.255-.815-1.45-.976-.23-.191-.627-.21-.838-.37-.237-.18-.033-.626-.175-.87-.18-.302-.49-.567-.783-.74-.5-.296-.967-.647-1.425-1.003-1.139-.883-2.256-1.793-3.389-2.683-4.368-3.434-8.73-6.855-13.3-10.02a268.048 268.048 0 0 0-3.286-2.241M119.885 21.465c-.042-.749.259-1.46.266-2.206.008-.855.39-1.489.494-2.303.043-.34-.055-.685-.03-1.03.027-.325.135-.646.148-.963.024-.665-.066-1.463-.091-2.134-.02-.57.69-.394 1.015-.17.535.37 1.018.93 1.737.788.724-.142 1.39-.823 1.988-1.222.766-.51 1.53-1.073 2.333-1.52.247.794.573 1.56.846 2.344-.275.03-.096.406.082.452.28.072.637.028.182.506-1.43.873-2.861 1.336-4.578 1.765l2.56 2.687c-.23.113-.84.1-1.003.306-.188.237.026.717-.177.954-.337.398-1.191.06-1.63.478-.5.477-.663 1.375-1.377 1.656-.647.254-2.11-.219-2.765-.388M136.407 94.015c0-.437-.113-1.04.075-1.448.18-.389.545-.689.791-1.039.492-.701.92-1.953 1.666-2.405.681-.411 1.478-.145 2.074-.785.677-.727 1.318-1.202 2.343-1.35.767-.111 2.114.434 2.643-.268l6.724-7.951c-.812 0-1.656.138-2.455-.067-.906-.233-1.77-.669-2.646-.996-.902-.336-1.8-.684-2.7-1.026-.835-.315-1.567-.536-2.206-1.178-.214-.215-.284-.327-.58-.406-.302-.08-.42-.548-.56-.796-.24-.421-.4-.761-.739-1.132-.405-.442-.88-1.009-.696-1.668.203-.721.835-1.356 1.117-2.068.745.416 1.155 1.408 1.665 2.051.635.803 1.605 1.025 2.588.701.377-.124.866-.461 1.187-.698.568-.42.73-.349 1.43-.234.721.118 1.047.27 1.721-.151.341-.213 1.123-1.006 1.562-.85.483.172.817.194 1.337.015.313-.108.611-.267.936-.339.373-.083.622.079.978.114.582.059 1.027-.287 1.531-.492.525-.214 1.122-.119 1.651-.388.441-.223.486-.798.86-.983.363-.179 1.536.132 1.391.656-.186.679-.312 1.093-.187 1.812.086.502.217 1.221-.22 1.604.29.111.531.042.467-.267a1.4 1.4 0 0 0 .472.201c-.097.48-1.188-.178-1.192.666-.003.689.055 1.395-.136 2.071-.164.577-.512 1.019-.838 1.504-.38.566-.336 1.403-.802 1.947-.18.212-.43.266-.555.545-.125.278-.016.591-.12.884-.238.67-.717 1.202-1.05 1.818-.445.822-.48 1.726-.828 2.575-.352.862-.902 1.625-1.408 2.401-.49.754-.815 1.627-1.378 2.331-.623.781-1.249 1.561-1.885 2.333-1.278 1.551-2.578 2.812-4.272 3.902-.709.458-1.415.932-2.008 1.539-.668.682-1.432 1.355-2.034 2.092-.598.731-1.226 1.441-1.816 2.173-.287.358-.539.74-.818 1.104-.173.224-.69 1.035-.783.562 0 .768-.502 1.506-.965 2.085.04-.602-.54-1.1-.954-1.694-.472-.68-.397-1.147-.404-1.933-.02-2.378.026-4.698.026-7.074"/>
        <path fill="#24ABFF" d="M152.724 78.769c-.812 0-1.656.138-2.455-.067-.906-.233-1.772-.67-2.647-.995-.902-.336-1.8-.686-2.701-1.027-.834-.315-1.565-.536-2.205-1.178-.214-.214-.283-.327-.58-.406-.302-.08-.42-.548-.56-.796-.24-.421-.4-.76-.74-1.132-.403-.442-.88-1.01-.694-1.668.202-.721.835-1.356 1.116-2.068.745.416 1.155 1.408 1.665 2.05.636.804 1.606 1.026 2.589.702.377-.124.865-.461 1.187-.698.568-.42.729-.35 1.428-.235.723.12 1.048.27 1.723-.15.34-.213 1.123-1.006 1.562-.85.483.172.817.194 1.336.015.314-.108.612-.267.937-.34a.974.974 0 0 1 .3-.018l.024 7.306-1.284 1.555h-.001zM1.44 47.65c.158-.2.189-.448.202-.692-.181.17-.334.44-.202.692"/>
        <path fill="#24ABFF" d="M.126 44.525a1.9 1.9 0 0 1 .144-1.133c.046-.115.205-.392.506-.408l8.644-.01c.44-.231.139-2.141.11-2.877-.054-.74-.13-1.22.463-1.781.496-.47.48-.35 2.056-.995l.348-6.77 7.713-.09.104-3.432a209.17 209.17 0 0 1 8.65 6.134h-4.097l1.681 22.605c.14.37.52.529.553.615.226.576-.07.749-.091 1.193-.026.518-.076.986-.227 1.042l-4.927.006c-2.797.096-3.997.48-4.244-.347-.119.749-1.229.87-1.776.653-.864-.342-1.416-.198-1.77.775-.201-.332-.493-.616-.794-.905-.356-.342-.699-.526-.886-.421-.71.393.28 2.372-1.463 2.247.01.03-.47-.34-.597-.581-.158-.3-.338-.206-.639-.462-.325-.278-.303-.732-.57-.91-.715-.475-.432-.481-.498-.804-.082-.398-.486-.904-.689-.906-1.053-.015-1.128-.87-1.811-1.2a2.49 2.49 0 0 0-1.11-.267c-.723-.025-.971.682-2.631.558-.35-.026-.304-.26-.601-.175-.29.106-.63 1.038-.746 1.282 0-1.614 1.061-2.93 1.216-4.51.09-.951-.04-1.756-.16-2.688-.043-.336-.032-.705-.246-.99-.185-.25-.512-.425-.546-.764.25.078.523-.107.493-.38a.524.524 0 0 0-.359.336c.062-.324.322-.552.464-.836.092-.183-.041-.477.067-.6.484-.556-.259-1.541-.442-2.092a1.374 1.374 0 0 0-.154.425c-.493-.373-.375-1.144-.871-1.518-.08.329-.199.648-.268.98"/>
        <g transform="translate(127 -.284)">
            <mask id="b" fill="#fff">
                <use xlink:href="#a"/>
            </mask>
            <path fill="#24ABFF" d="M.744 10.99c1.353-.664 2.541-1.312 3.744-2.138.383-.263.795-.588 1.015-.924.423-.644.086-1.496.17-1.737.008-1.002.28-1.126.221-1.607-.064-.538-.83-1.483-.239-1.944.34-.263.76-.252 1.108-.543.293-.245 1.081-.885.847-1.144-.107-.118.108.012.268-.037.264-.08.351-.329.467-.54C8.457.17 9.637.36 9.895.46c.204.078.412.153.626.196.355.074.461-.155.77-.213.776-.144.246.875.686.835.322-.029.45-.516.802-.502.45.017.433.78.63 1.043.094.125.215.103.293.26.095.191-.03.464.13.622.341.332 1.088.66.782 1.233.505-.112.712.34.938.426.43.162.435-.179 1.363.067-.08.348-.485.267-.63.537-.247.455.448.793.488 1.207.053.546-.615-.055-.595.5.007.248-.262.206-.33.441-.079.265.052.463.098.708a.885.885 0 0 1-.469-.135c-.038.225-.193.396-.016.581.193.203.338.29.231.621-.1.317-.385.39-.112.635.233.211.438.463.7.64.263.176 1.628 1.346.85 1.564.303.074.226.427.476.37.36-.085.562.144.85.307.53.298.867.978 1.6 1.035.347.027.987 1.158 1.293 1.43.464.41.18.832.063 1.396-.056.27-.04 1.035.358 1.063.14.011.374-.019.484.121.142.18.141.541.11.761-.073.488.182.63.727 1.023.274.198.212.812.601.906-.2.015-1.4-.156-1.427-.376.165.391-.52.078-.79.066-.387-.017-.888.075-1.064.448-.38.81-.313 2.421-1.605 2.273l-3.26-.373c-1.092-.157-1.133-.73-2.13-1.358-2.763-2.03-5.407-4.464-8.499-5.818-1.11-.487-2.097-.446-3.1-.667.628-.682-.13-.38-.318-.672-.047-.07-.086-.215-.046-.288.158-.18 0-.365-.097-.629a34.372 34.372 0 0 1-.612-1.755" mask="url(#b)"/>
        </g>
        <path fill="#24ABFF" d="M.126 44.525c-.367-.647.176-1.744.288-2.415.078-.458.195-.888.44-1.288.297-.485.842-.486 1.025-1.092.093-.311.087-.79.397-.975.175-.105.07-.456.208-.657.219-.321 1.099-1.416.853-1.833a1.225 1.225 0 0 0-.4.425c.385-.847 1.36-1.47 2-2.123.851-.871.688-1.77 1.103-2.837.338-.873.601-1.836 1.45-2.32.935-.532 1.444-.967 1.83-1.997.246-.655.713-1.584.551-1.393l10.386-.084-.148 4.525-7.707.089-.353 6.769c-.46.33-1.11.367-1.59.665-.72.448-1.011.928-.955 1.779.034.495.414 3.073-.112 3.22H.82c-.658.002-.763 1.076-.695 1.542M120.623 10.973c.194-.247.568-.759.914-.825-.527-.492.227-.803.67-.67-.39-.473.19-.53.324-.983.075-.25-.236-.757-.523-.81-.328-.061.296-.532-.212-.388-.846.237-.908-.302-.947-.74-.036-.397.221-1.125-.135-1.417-.286-.234-.065-.858-.075-1.201-.008-.258.47.146.563.192.007.034.117-.229.32-.352.251-.151.081-.492.125-.73.22.052.452-.01.67-.022-.174-.36-.289-.452-.339-.884-.018-.156-.003-.6.216-.655.166-.042.332-.043.464.026.356.187.425.504.791.448.447-.07.743-.124 1.17-.307.437-.19.757-.452 1.248-.382.362.052.575.31.882.454.35.163 1.032.095 1.411.062.965-.082 1.654-.633 2.528-.983.884-.354 1.85.142 2.757-.22.463-.184 1.143-.892 1.21.215.016.257-.613.778-.794.959-.328.324-.694.302-1.064.519-.794.466.038 1.474.1 2.032.037.329-.162.732-.186 1.074-.035.506 0 1.325-.003 1.828-.006 1.174-4.95 3.42-7.46 5.138-.683.467-1.788 1.592-2.677.97-.323-.226-.556-.4-.889-.628-.58-.399-.839-.1-.935-.114-.02-.074.21-1.46-.125-1.606M176.207 46.132c.208-.185.279-.43.38-.679a.911.911 0 0 1 .2-.192c.084-.099-.132-.409-.155-.513-.115.484-.621.844-.425 1.384M168.974 30.305c.064-.18.146-.35.245-.513.21.236.413-.085.314-.291.18.098.544.714.089.603.292.203.079 1.448-.244 1.39-.438-.077.156-1.161-.404-1.189"/>
        <path fill="#24ABFF" d="M160.936 49c3.264-.75 5.308-1.537 6.785-2.339.606-1.153-.046.663.243-.62.238-1.05.401-2.097.64-3.097.163-.692.55-1.56.15-2.219-.288-.474-.873-.879-1.053-1.402-.23-.658 1.013-2.923.401-3.28.274-.328.814-.045 1.052-.358.262-.343-.16-.228-.244-.402-.23-.46-.411-1.472-.105-1.939.143-.219.435.117.39.29-.142.538.401-.046.488-.128.267-.253.263-.21.43.147a6.583 6.583 0 0 0 1.073 1.644c.694.771 1.665 1.048 2.651 1.246.463.093.857.275 1.328.328.627.07.972.837 1.333 1.265.29.345.488.761.778 1.092.301.343.46.358.858.517.936.373-.121 1.7-.306 2.247-.353 1.035-1.462 1.575-1.762 2.683-.07.262-.167 1.02-.583.894-.328-.098-.264-.724-.684-.464-.5.304-.472 1.394-.602 1.841-.168.586.022 1.04.178 1.607.125.464.204.815-.36.832-.904.027-1.9.294-2.123 1.27-.088.384-.157.805-.398 1.13-.3.403-.898.38-1.371.416-.575.043-.804.136-1.141.588-.327.44-.114.522-.143 1.022-.022.398-.428.686-.749.842-.154.075-.309.175-.466.051-.273-.215-.499-.156-.835-.156-.98 0-1.837.95-2.825.922-.64-.018-.352-1.584-1.04-1.658.291-.305-.42-1.374-.563-1.64-.505-.935-1.103-2.172-1.434-3.182M57.427 8.875c.053-.263.3-.363.49-.508.298-.226.322-.43.652-.68.262-.198.46-.571.562-.902.203-.663.147-1.18.18-1.816.02-.401-.233-.75-.179-1.152.061-.457.568-1.325-.164-1.483.263-.303.691-.46.895-.82.075-.132.026-.36.21-.412.2-.058.325-.001.485-.17.347-.367.707-.53 1.194-.668.226-.065.537-.235.777-.14.286.116 0 .254.032.469.238 0 .294-.118.155-.312.437.094.562.028.738.424.078.173-.164.19.071.356.18.127.21.347.041.492.014-.014.201.205.391.127.26-.107.478-.318.69-.496.082-.07.368-.378.502-.317.32.146.277.46.132.723-.278.503-1.228.986-1.259 1.558-.024.43.23.948.618 1.158.588.316.568.33.708 1.005.176.849-.417 1.73-1.069 2.246-.648.512-1.64.8-.998 1.795.142.218.33.424.571.534.27.122.378-.046.625-.012.081.01.133.409.182.493.122.205.461-.4.646-.332.253.092.082.298.16.469.104.238.468.453.088.49.2.214.636-.02.823.225.156.206-.102 1.005-.046 1.305.084.45.413.642-.08.936-.488.292-1.486.617-1.776 1.018-.166.132-.108.513-.339.607-.493.2-.96.362-.767 1.113.156.6.388 1.072.04 1.66-.405.688-.762.95-1.473 1.263-.17-1.121-.49-2.2-.712-3.31-.228-1.146-.343-1.808-1.312-2.346-.452-.252-.655-.556-.769-1.058-.1-.442-.3-.755-.7-.99-.202-.12-.395-.215-.529-.425-.136-.217-.089-.51-.226-.728-.283-.454-.44-.935-.26-1.39"/>
        <path fill="#24ABFF" d="M64.949 9.991c-.037-.297-.242-.056-.31-.201-.167-.355-.003-.468.296-.465.657.009.246.401.014.666M96.626 19.746c-.442-.708.468-1.448.355-2.173-.12-.779-.829-1.323.292-2.247.024.567.685.364 1.028.262.627-.186 1.14.022 1.763.084.681.07 1.334.22 1.994.396.279.074.323.377.606.465.251.077.442.046.691.02.168-.018.246.243.435.282.206.043.418.044.626.065.671.066 1.118.487 1.748.592.608.102 1.19-.308 1.626-.68a9.59 9.59 0 0 0 .645-.615c.177.138.311.281.536.245-.128-.064-.101-.1-.27-.089.22-.117.44-.328.493-.58.379.226.737-.18 1.116-.178a2.207 2.207 0 0 0-.694.468c.068-.04 1.606-.504.871-.558.543-.18.897.443 1.418.368.25-.035.485-.28.749-.189.246.085.362.442.58.58-.22-.154-.447-.494-.738-.513.086.231-.232.67.144.76.409.096.217.198.482.445 0-.09.731-.399.202-.648.563.131.749.65 1.409.593.214-.019.845-.414.734.055.408-.26.867-.108 1.306-.24.387-.117.775-.268 1.085-.538l1.885 4.976c-.476.606-.37 1.727-.674 2.446-.176.42-.17.681-.165 1.125.004.38-.478.746-.359 1.116-.231-.213-.539-.309-.793-.487-.323-.226-.549-.555-.77-.874-.28-.403-1.098-.667-.98-1.273.12-.61-.469-1.035-.771-1.465a5.88 5.88 0 0 1-.881-1.995c-.28.3-.578.956-.286 1.298.499.588.448 1.31.866 1.916.362.526.729 1.17 1.181 1.618.201.2.429.37.612.586.095.113.489.762.014.408.384.3.067.681.31.927.327.331.501.683.672 1.1.084.205.222.381.342.565.09.142-.09.321-.098.46-.012.184.29.457.372.617.189.363.395.72.586 1.082.626 1.194 1.258 2.366 1.85 3.578.232.474.573.814.864 1.24.27.396.746.52.997.922a1.4 1.4 0 0 1-.692-.133c-.156.647-.081 1.636.25 2.018.315.363-.412 1.093-.855 1.115-.219.011-.303-.15-.523.098-.175.194-.267.527-.346.776-.091.288-.227.543-.545.617-.257.06-.721.007-.858.302-.25.541-.096 1.171-.858 1.111-.888-.07-1.339-.79-1.807-.77-1.54.064-2.424.205-3.631.001.034-.122.174-.378.088-.503-.218-.315-.385.257-.458.36-.289.414-1.735.165-2.198.165l-12.428-.027-.444-16.8c-.047-.785-.027-1.609-.136-2.387-.092-.669-.264-1.658-.566-2.26M138.305 55.798c-.013-.252-.117-.486-.335-.626a4.093 4.093 0 0 1-.024.246c-.291.011-.396-.296-.646-.38.242.403.865.395 1.005.76"/>
        <path fill="#24ABFF" d="M139.802 56.211c.03-.28-.142-.949-.395-1.11-.128-.082-.753-1.395-.717-.762-.06-1.134-.845-1.426-1.471-2.193-.236-.29-.57-.71-.682-1.067-.143-.459-.402-.59-.637-.963-.138-.218-.021-.409-.18-.634-.112-.16-.302-.668-.376-.873-.07-.192-.113-.395-.203-.579-.082-.17-.255-.194-.338-.343-.08-.143-.003-.338-.111-.464-.112-.127-.293-.144-.414-.257-.303-.28-.654-.567-.921-.88-.325-.382-.705-.222-1.072-.492-.607-.448-1.01-1.28-1.392-1.918-.223-.37-.16-.584-.178-.975-.02-.425-.327-.775-.358-1.204-.042-.563.19-1.122.079-1.683-.051-.255-.191-.472-.328-.687-.072-.114-.508-.676-.016-.29-.108-.284-.353-.287-.418-.597-.058-.277-.193-.58-.301-.84-.3-.725-.884-1.218-1.431-1.739-.401-.38-.796-.44-1.284-.573-.208-.057-.307-.452-.368-.62-.131-.362-.384-.61-.61-.912.784-.285-.31-1.573-.565-1.885-.172-.209-.657-.59-.636-.866.036-.476-.576-.75-.782-1.179-.625-1.3-1.613-2.379-2.305-3.653-.211-.388-.446-.987-.912-1.118-.212-.06-1.043-.198-1.06.192-.278-.254.172-.922.25-1.189.163-.56.032-1.142.124-1.707.116-.716.005-.27.106-.697.534.16 2.004.554 2.536.438 1.059-.23 1.042-1.77 2.037-1.928.373-.059 1.289.036 1.249-.467-.092-1.147.407-.803 1.1-1.037a44.332 44.332 0 0 1-2.595-2.714c1.609-.336 2.679-.699 4.576-1.713.804.154 2.237.242 3.119.65 2.96 1.371 5.4 3.466 7.97 5.423.545.414 1.075.826 1.583 1.282.579.52.98.494 1.744.568.879.085 1.806.21 2.686.291.322.03.48-.135.832-.059.473.102.964.16 1.447.203.51.046.55.64.714 1.016.24.558 1.055.206 1.517.246.478.042.54.302.697.692.169.424 1.008.963.878 1.437a.85.85 0 0 0-.16-.2c-.141.34.2.301.16.601.006.005 1.436.137.89.557.209.067.654 1.14.868.535-.142.54 1.149 1.143 1.448 1.47a.58.58 0 0 1-.357-.289c.008.593.367.602.495 1.078.074.28.045.868-.361.504.037.316-.066.38.223.437.044.01.42.826.447.922a6.501 6.501 0 0 1-.245-.224c.247.363.688.567.883.968.198.405.258.778.497 1.172.182.303.447.822.826.915.173.043.802-.12.712.22.065-.173.215-.237.378-.133-.212.258-.404.963.312.78-.047.012.365.818.405.875.826.935 1.938 2.581 2.374 2.76 2.718.303 3.974.45 5.453.78.192-.047.36-.163.422-.287.33.762 1.08 1.161 1.206 1.656.114.448.082.745-.036 1.205-.392 1.541-.608 4.314-1.177 4.621-3.873 2.088-8.722 2.818-13.326 3.58a10.36 10.36 0 0 0-1.715.797c-.821.475-1.618 1.9-1.883 2.75-.123.393-.585.823-1.018.825-.452.001-.536-.733-.904-.857-.418-.14-.728.073-1.09.03-.56-.07-1.307.018-1.81-.24-.603-.312-1.048-.169-1.718-.168-.586.002-1.205.36-1.79.353-.724-.009-.83-.56-1.207-.46-.505.131-.64.795-.668 1.214-.028.414.49.655.05.954-.083.057-.17.644-.801.853-.004-.056.032-.07.029-.125M137.545 54.615c.164.04.2.093.11.156l-.11-.156"/>
        <path fill="#24ABFF" d="M137.656 54.77a.33.33 0 0 1 .044.313.636.636 0 0 1-.224-.111l.18-.201M153.55 26.979c.109-.167.28-.123.402 0a1.046 1.046 0 0 1-.402 0M137.945 70.643c0-.72-.279-1.436.157-2.086.328-.49.63-.933.913-1.446.333-.601.5-.28.976-.152.241.065.228-.313.323-.438.147-.193.4-.27.601-.387.208.455 1.077 1.303.658 1.835-.215.273-.886.584-1.207.71-.329.13-.37.52-.747.58.246.318.982-.205 1.34-.067.645.25.002.882-.17 1.237-.26.535-.674-.023-1.077.083-.413.109-1.493.648-1.767.13M9.923 26.019c.107-.118.455-.67.578-.715.439-.16.919-.181 1.372-.28.842-.186 1.696-.451 2.33-1.061.623-.596 1.272-1.066 1.924-1.62.625-.53 1.102-1.236 1.602-1.88.339-.436 1.118-1.693.46-2.17-.254-.183-.433-.19-.27-.53.162-.34.145-.678.163-1.048.05-1.03.423-1.488 1.052-2.255.36-.438.26-.884.413-1.388.109-.366.409-.648.682-.896.583-.532 1.045-1.185 1.776-1.516.796-.36 1.643-.641 2.404-1.074 1.505-.858 2.229-2.945 2.799-4.483.055-.148.256-.906.485-.882.28.028.565-.086.805-.214.303-.163.36.239.449.456.17.417.397.702.766.963.769.547 1.407.394 2.287.288.729-.087 1.656.357 2.1-.5-.007.279.07.348.109.56.04.227.453.342.092-.025.195.27.544.409.857.253.319-.16.51.169.706.35.21.195.587.306.713.58.144.315-.168.603.27.782-.237.186-.16.527-.115.777.07.395-.06.743-.016 1.125.037.306.235.502.159.83-.115.496-.058.672.178 1.108.12.22.01.419.13.622.179.302.459.422.722.63.485.384-.966 1.02-.19 1.315-.802.206-3.612-.758-4.024.33-.215.568-.775.785-1.382.734-.46-.04-1.024.617-.398.789-.53.484.442.842.21 1.072-.264.263-.73.168-1.015.377-.3.219-.628.547-.983.669-.268.093-.571.084-.823.225-.487.273-.684.844-1.042 1.244-.41.458-1.168.638-1.763.66-.448.019-.93-.17-1.111.364-.192.57-.752.143-1.2.177-.316.023-.5.18-.703.4-.207.224-.451.176-.708.279-.297.119-.48.413-.717.61-.252.21-.565.342-.822.55-.503.408-.943.467-.893 1.17.05.702-.024 1.478-.103 2.175-.033.296-9.362.073-10.315.073M119.485 11.465c.492-.575.477-1.612.895-2.258.208-.32-.036-.752.203-1.061.185-.24.693-.505.53-.878.19.04.48.122.663.013.422-.252.124.227.186.37-.008-.02.278.088.307.117.213.204.093.159.253.453.343.627-.75.727-.315 1.257-.444-.133-1.198.177-.67.67-.197.045-.864.692-.893.892a.253.253 0 0 1-.11-.111c-.074.144-.079.315-.157.462-.167.312-.65-.122-.893.074M149.866 19.813c.043.097-.528 1.041.18.971.612-.06-.012-.763-.18-.97"/>
        <path fill="#24ABFF" d="M146.362 22.157c.993-.362.532-2.375 1.567-2.566.402-.074.973-.112 1.498.323.137.112.487.84.348 1.015-.295-.414-.715.29-.87.492.452-.06.957.115 1.07.605.135.596.59 1.127.791 1.728-.383-.22-1.34.151-1.716-.114-.294-.206-.33-.652-.447-.96-.156-.413-1.64-.302-2.24-.523M156.898 32.403c-.014-.12-.189-.864.155-.513-.02-.12-.099-.788.114-.223.018-.563.218-2.05.994-1.23.194.206.567.35.57.672 0 .225-.11.368-.161.573-.046.18.064.41.08.587.018.178.207.181.256.335.082.251.022.48-.08.71-.175.401-.118.693-.558.825-.364.11-.694.401-.938-.135-.224-.49-.317-1.079-.433-1.6M117.855 16.197c.215-.212.414-.446.557-.714.267.168-.3.89-.425 1.02a1.877 1.877 0 0 1-.132-.306M119.373 13.875c.114-.266.152-1.012.607-.923.158.031.62.302.676.455.168.445.125 1.07.111 1.553-.01.333-.016.691-.19.773l-.65.304c-.309.145-.616.155-.484-.329.035-.128.491-.802.556-.78-.136-.046-.485.088-.567-.148-.144-.417 0-.73-.059-.905M164.11 35.483a.367.367 0 0 0 .357-.179c-.203-.167-.459-.128-.58.112l.223.067"/>
        <path fill="#24ABFF" d="M158.933 35.081c.152-.1.32.025.287.245.073-.069.037-.202.113-.267.145.211.017.517.18.714.158.191.524.146.738.134.279-.016.513-.06.728-.253.097-.087.209-.343.342-.372.143-.032.5.184.677.188.289.007.578.04.867.03.785-.028 1.327.333 2.096-.128a4.324 4.324 0 0 0-.223-.313c.242-.09.209.2.4.18.278-.033.515-.368.628-.59.309-.608.348-.954.889-1.405.525-.439.74-1.23 1.237-1.642.55-.453.882-.575 1.04-1.32.4.02.229.601.23.845.007.464.51.23.57.744.06.516.413 1.191.007 1.59-.867.853-.385.11-.61-.106-.284-.273-.46.114-.508.498-.021.168-.013.184.012.363.028.192.084.555.127.76.14.671.61.347.428.65-.198.333-.855.107-1.11.41.585.323-.371 2.13-.444 3.07.009.231-.242.453-.776.328-.657-.154-1.337-.216-2.004-.315-.7-.104-1.4-.206-2.101-.294-.515-.064-.882-.08-.955-.134-.558-.405-.912-.883-1.325-1.425-.248-.325-.77-.929-1.055-1.327a2.272 2.272 0 0 1-.385-.853"/>
    </g>
</svg>
