<svg xmlns="http://www.w3.org/2000/svg" width="90" height="97" viewBox="0 0 90 97">
    <path fill="#24ABFF" fill-rule="evenodd" d="M89.913 23.114l-1.565-1.211-.356-.133-.183-.157-.76-1.276.239-.173.042-.046.033-.056.023-.062.013-.07.017-.145.002-.156-.037-.139-.093-.092-.164-.119-.145-.135-.116-.165-.076-.21-.1-.191-.284-.278-.051-.22v-.661l.058-.17.078-.17.105-.374.083-.126.071-.183-.026-.222-.251-.608-.061-.08-.098-.072-.194-.07-.086-.06-.034-.106.026-.104.054-.068.065-.058.056-.072.044-.1.003-.073-.058-.197-.051-.332.019-.317.26-1.09.014-.135-.029-.181-.399-1.25-.142-.302-.214-.256.597-.73-.063-.036-.204-.061-.674-.698.045-.116.294-.458.137-.307.072-.057.02-.05-.101-.104-.59-.375-.189-.181-.297-.186-.077-.093-.028-.094-.007-.094-.022-.08-.072-.056-.25-.024-.19-.123-.175-.165-.208-.152-.17-.065-.101-.136-.054-.182-.004-.268-.147-.055-.148-.084-.133-.044-.125-.019-.534-.208-.114.028-.107.088-.118.135-.09.057-.135.034-.256.023-.58-.083-.29-.102-.24-.139-.266-.278-.043-.073-.272-.295-.076-.061-.026.054.084.145.427.497.244.199-.407-.04-.196-.065-.145-.105-.082-.104-.048-.081-.026-.09-.02-.221.005-.115.024-.104.051-.063-.08-.118-.17.062-.116-.126-.018-.19.11-.111-.01-.032-.075-.265.057-.21-.026-.081.03-.12-.025-.055-.066-.035-.053.02-.027.057.011.074-.143.212-.218.544-.178.183-.07.01-.06-.022-.053-.028-.047-.004-.059.039-.253.27-.119.076-.695.25-.24.05-.284-.024-.058-.019-.11-.054-.06-.02-.062-.001-.071.007-.067-.002-.15-.086-.42-.067-.118-.083-.235-.218-.108-.074-.145-.02-.15.058-.117.128-.046.187-.052.124-.127.063-.299.026-.155-.012-.068-.028-.064-.053-.044-.076-.053-.172-.057-.08-.234.112-.478.1-.469.214-.778.137-.323.207-.115.032-.16-.013-.662-.197-.75-.17-.797-.245-.224-.13-.305-.289-.248-.086-.096-.108-.159-.22-.189-.177-.11-.077-.102-.033-.136-.023-.087-.07-.474-.679-.197-.19-.238-.17-.117-.112-.058-.138-.094-.367-.004-.044.011-.105-.007-.04-.029-.01-.095.016-.032-.006-.045-.05-.034-.065-.021-.083-.027-.291-.085-.359-.018-.173.028-.1-.128-.117-.087-.124-.063-.14-.05-.154-.274.04-.117.058-.104.092-.2.234-.094.085-.33.198-.096-.064L64.2.61l-.133.003-.098.047-.071-.035-.102.025-.101.056-.07.053-.151.153-.07.013-.514-.077-.193.032-.108.115-.05.104-.038.161-.034.325-.017.068-.074.106-.017.063-.009.059-.116.372-.12.274-.025.098-.01.168-.03.132-1.016 2.588-.485 1.67L59.34 9.75l-.128.209-.094.267-.058.116-.615.931-.37.8-.494.834-.59.645-.584.473-.202.071-.177.159-.096.035-.202.034-.226.083-.204.113-.213.193-.477.322-.12.036-.112-.04.039-.049-.108.037-.157.194-.161.079-.19.247-.073.056-.106.06-.116.049-.164.031-.098.062-.054.021-.061-.007-.052-.026-.054-.009-.065.041-.11-.029-.095.086-.092.115-.104.059-.104.024-.222.117-.375.117-.14.063-.12.156-.14.059-.26.066-.805.363-.764.177-.234.098-.199.165-.327.407-.203.166-.205.106-.102.024-.137.008-.048-.015-.055-.06-.048-.013-.045.026-.463.554-.052.084.004.145-.006.085-.044.079-.702.783-.634.86-.19.18-.541.385-.637.762-.827.705-.107.204.004.111.034.111.049.097.049.068.044.106-.01.132-.042.132-.151.297-.035.102-.015.144.024.048.106.053.023.033-.03.685-.043.205-.079.182-.202.255-.027.082-.01.108-.066.266-.043.098-.067.135-.659.686-.028.048-.048.113-.043.064-.046.05-.082.064-.042.044-.226.32-.512.56-.045.104-.078.53-.028.06-.076.11-.032.075-.08.084-.03.118-.035.047-.104.094-.064.094-.131.396-.13.227-.176.227.072.089.075.061.058.083.025.154-.014.375-.146.929-.07.153.09.235.02.117.043 1.284-.01.078-.014.047.003.041.039.058.022.063-.004.081-.037.146-.105.212-.15.232-.117.245-.01.25.08.093.13.028.12.008.4.271.102.176.05.05.064.024.062.006.047.031.047.216.143.327.062.113.096.1.086.06.062.084.024.174-.015.128-.103.432-.094.828-.056.241-.351.844-.573 1.02-.726.795-.234.316-.034.103-.042.08-.267.248-.06.098-.05.129-.034.145-.013.135-.034.071-.23.348-.05.136-.026.042-.201.147-.03.054-.026.118-.065.115-.141.18-.136.218-.087.098-.212.079-.106.09-.151.183-.577.88-.688.654-.216.145-.459.237-.383.258-1.595.824-.086.058-.158.166-.114.195-.02.026-.191.156-.029.041-.046.088-.043.05-.233.145-.044.092-.262.324-.333.233-.05.1-.034.127-.084.101-.101.09-.086.094-.221.376-.135.175-.183.145-2.912 1.289-.098.022-.027.017-.126.134-.062.043-1.532.265-1 .33-.808-.017-1.014.177-.527.201-.109.064-.087.09-.064.13-.132.463-.236.388-.091.106-.204.069-.182.152-.169.084-.06.061-.035.115-.002.017h-.013l-.015.114-.11.244-.027.113-.012.133-.186.644-.3.716-.076.045.001.036.04.057-.001.037-.463.69-.105.239-.166.795-.162.366-.107.51-.116.334-.337.686-.33.378-.683.445-1.018.736-.582.302-.107.05-.616.065-.13.061-.07.093-.053.107-.077.105-.465.458-.303.164-.267.06-.053.04-.313.411-.031.071-.059.181-.043.07-.016.064.053.189.016.092-.055.35.02.1-.046.088-.09.278-.015.123-.032.083-.15.276-.418.596-.226.575-.03.196-.052.111-.013.039-.038.278-.167.406-.045.06-.074.063-.257.365-.168.627-.04.098-.17.72.04.154-.005.547.012.082.053.133.014.098-.003.097-.016.104-.026.1-.035.087.042.037-.04.1.006.094.023.092.01.101-.02.084-.077.177-.048.288-.133.366-.054.402-.07.123-.107.086-.14.077-.136.11-.132.164-.087.178.003.142-.187.15-.118.067-.243.043-.116.036-.113.056-.102.071-.18.164-.142.164-.386.589-.308.332-.511.426-.047.072-.038.111-.09.088-.216.156-.157.233-.229.272-.089.133-.117.136-.148.097-.185.017-.072.072-.242.151-.182.07-.408.35-.088.098-.08.108-.036.096-.347.482-.203.392-.03.09-.122.147-.037.103.083.062.261-.238.048-.074.012-.056.052-.121.012-.074.015-.04.072-.132.085-.203.04-.073.06-.078.087-.079.053-.013.05.015.073-.002.053-.024.144-.101.04-.046.012-.088-.01-.084.005-.07.066-.05-.02.05-.018.033.072.138.02.117-.011.27-.027.151-.07.115-.088.114-.087.14-.022.063-.028.128-.03.065-.039.04-.092.07-.018.038-.271.314-.2.36-.085.123-.06.112-.08.412-.247.431-.072.07-.06.035-.063.08-.42.975-.023.04-.265.248-.053.07-.095.195-.04.113.23-.064.11.022.046.144-.007.144-.022.133-.038.124-.054.119-.188.217-.18.16-.134.038-.124.012-.027.022-.012.04-.05.11-.009.043.001.07.012.04.02.05v.06l-.112.159-.048.1-.067.219-.025.132-.017.515-.073.39-.07.089-.278.28-.055.071-.012.104-.196.7-.087.154-.112.135-.11.09-.616.248-.06-.072-.043-.036-.05-.02-.063.004-.038.03-.03.034-.136.051-.062.088-.09.206-.033.035-.093.066-.031.031-.064.145-.009.037-.031.058-.202.21L1.027 90l-.05.14-.044.25-.107.247-.026.181-.03.087.021.034.073.062.018.034.002.07-.006.073-.02.07-.095.165-.012.137.02.229-.024.264-.234.887-.006.15H.51l-.009.243-.012.088-.052.219-.23 1.79-.104.308-.023.104v.288l-.01.084-.052.143-.018.082.025.15.178.269.065.153-.14-.647.02-.178.132-.545.037-.19.238-.688.107-.578.098-.52.053-.05h9.033l1.922-.003h11.126l-.062-.974-.19-3.016-.185-3.028-.074-.392-.272-.782-.058-.388.074-.408.18-.388.48-.678.107-.14.56-.389.701-.486.604-.42.351-.245.342-.12.943-.134.202-.062 1.228-.59.57-.158.075-.098.023-.209V65.071h18.524l.11-.032.038-.08v-1.482l-.001-.578v-.649l-.001-.693v-.718l-.001-.718v-.697l-.002-.652v-.583l-.001-.495v-3.091h.006v-6.398l.02-.172.063-.12.105-.092.717-.392.252-.203.254-.141.072-.073.191-.342.085-.068.196-.09.092-.055.371-.356.382-.26.63-.283.187-.132.512-.49.593-.403.341-.322.27-.141.086-.07.341-.348.191-.086.262.013.247.042.125.006.124-.015.117-.043.418-.382.406-.532.082-.073.9-.522.19-.036.675.146.703-.006.933.26.452.016.39-.28.08-.127.057-.137.028-.145-.01-.16.08-.236.005-.11-.045-.274.02-.11.06-.073.095-.03.095.028.201.116.108.024.328-.073.108-.002.333.103.116.008.126-.03.076-.057.066-.077.095-.088.227-.082.23.034.232.072.23.03 1.406-.33 1.088-.12.32-.16.167-.14.582-.285.352-.287.951-1.052.287-.396.393-.873.335-.57.11-.134.13-.08 1.954-.739.337-.027.397-.092.68-.413.572-.253.174-.133.794-.884.183-.087.89-.17.551.014.33-.047.299-.124.164-.227.034-.112.012-.125-.007-.128-.025-.116-.054-.121-.066-.06-.202-.1-.1-.096-.153-.247-.08-.086-.098-.025-.083.044-.164.156-.1.044-.093-.006-.066-.058-.02-.114.037-.129.12-.2.011-.15-.035-.496.023-.12.071-.088.308-.228.016-.042-.034-.088-.042-.05-.06-.036-.272-.094-.13-.086-.088-.132-.017-.192.03-.256.025-.796.097-.213.196-.11.237-.042.218-.003.235.04.463.172.239.055.208-.018.553-.288 2.22-.733.201-.199.081-.28.029-.624.123-.359.322-.183 1.039-.088 1.005-.282c.185.01.37.018.556.026 2.178.102 4.357.209 6.535.308l.22-.052.11-.235-.028-.138-.09-.08-.117-.037-.107.001-.208.084-.09-.001-.025-.109.021-.04.093-.075.034-.035.036-.07.007-.055-.001-.056.101-.686.075-.24.055-.116.091-.12.091-.048.232-.034.208-.086.186-.143.324-.366-.087-.15z"/>
</svg>
