<svg xmlns="http://www.w3.org/2000/svg" xmlns:xlink="http://www.w3.org/1999/xlink" width="1440" height="1125" viewBox="0 0 1440 1125">
    <defs>
        <path id="a" d="M.437 59.088c0 32.483 26.136 58.814 58.375 58.814 32.24 0 58.373-26.331 58.373-58.814 0-32.48-26.133-58.812-58.373-58.812C26.572.276.437 26.608.437 59.088"/>
        <path id="c" d="M.437 59.088c0 32.483 26.136 58.814 58.375 58.814 32.24 0 58.373-26.331 58.373-58.814 0-32.48-26.133-58.812-58.373-58.812C26.572.276.437 26.608.437 59.088"/>
        <path id="e" d="M5.644.313c4.734 0 12.037 1.389 19.875 8.038 13.455 11.419 6.334 40.296 6.334 40.296l12.668 7.325-31.68 18.32-6.332-40.299 12.668 7.331s4.461-18.315-3.163-29.31C10.36 3.866.182 1.026.182 1.026m5.462.069c-.963 0-1.818.059-2.542.143 3.489 1.432 9.562 4.585 13.551 10.33 7.738 11.154 3.465 29.179 3.283 29.943l-.247 1.012-.902-.521-11.255-6.516 5.903 37.562 29.527-17.076-11.501-6.649-.506-.293.141-.571c.069-.285 6.846-28.54-6.081-39.51"/>
        <linearGradient id="f" x1="57.956%" x2="32.036%" y1="15.069%" y2="90.102%">
            <stop offset="0%" stop-color="#FFF"/>
            <stop offset="100%" stop-color="#FFF"/>
        </linearGradient>
        <path id="h" d="M44.447.149v43.955L.107 69.747V25.789L44.448.149zm-.78 1.353L.887 26.239v42.154l42.778-24.738V1.502z"/>
        <linearGradient id="i" x1="68.842%" x2="31.156%" y1="67.105%" y2="32.895%">
            <stop offset="0%" stop-color="#FFF"/>
            <stop offset="100%" stop-color="#FFF"/>
        </linearGradient>
        <path id="k" d="M.333.813l76.061 44.078L92.277 66.87 16.226 22.794.333.814zm2.781 2.513L16.76 22.2l72.74 42.156-13.64-18.875L3.114 3.326z"/>
        <linearGradient id="l" x1="42.39%" x2="57.614%" y1="56.527%" y2="43.47%">
            <stop offset="0%" stop-color="#FFF"/>
            <stop offset="100%" stop-color="#FFF"/>
        </linearGradient>
        <path id="n" d="M.077 1.972L.08 164.09c0 1.723 1.215 3.817 2.712 4.682l70.921 40.795c1.497.864 2.713.165 2.713-1.56l-.008-162.112c0-1.723-1.213-3.821-2.712-4.681L2.79.413C2.356.16 1.944.042 1.58.042.69.043.077.75.077 1.973z"/>
        <path id="p" d="M.442 19.662l5.699 3.146 14.28-13.653v-8.6z"/>
        <linearGradient id="q" x1="293.182%" x2="-32.769%" y1="-87.116%" y2="105.791%">
            <stop offset="0%" stop-color="#FFF"/>
            <stop offset="100%" stop-color="#FFF"/>
        </linearGradient>
        <path id="s" d="M1.9 7.739V.816 7.74z"/>
        <linearGradient id="t" x1="56.83%" x2="46.137%" y1="37.164%" y2="57.269%">
            <stop offset="0%" stop-color="#FFF"/>
            <stop offset="100%" stop-color="#FFF"/>
        </linearGradient>
        <path id="v" d="M1.412 7.312V.232v7.08z"/>
        <linearGradient id="w" x1="56.529%" x2="46.305%" y1="37.168%" y2="57.273%">
            <stop offset="0%" stop-color="#FFF"/>
            <stop offset="100%" stop-color="#FFF"/>
        </linearGradient>
        <path id="y" d="M136.023.495c4.444 0 8.456 1.967 13.287 5.693 9.49 7.323 25.322 31.112 25.322 31.112l10.38 6.01A10.98 10.98 0 0 1 189 47.29a10.68 10.68 0 0 1 1.448 5.089c.016.125.016.233.016.36v37.634l-9.505 5.495c0-7.177-3.571-11.321-8.767-11.321-2.128 0-4.527.693-7.067 2.159-8.742 5.057-15.815 17.356-15.815 27.456v.016L79.7 154.436c-.284-6.612-3.76-10.4-8.732-10.4-2.129 0-4.53.694-7.071 2.159-8.46 4.9-15.38 16.592-15.8 26.504v.016L.552 200.202V96.914c0-13.098 6.981-25.21 18.31-31.765l101.96-58.974m15.203-4.119c-3.86 0-8.296 1.68-14.383 5.446L19.64 66.5C8.827 72.758 2.11 84.41 2.11 96.914v100.587l44.483-25.72c.819-10.315 7.93-21.962 16.523-26.939 2.728-1.57 5.37-2.367 7.85-2.367 5.23 0 8.984 3.618 10.02 9.413l66.783-38.62c.407-10.427 7.688-22.771 16.577-27.915 2.726-1.572 5.364-2.367 7.845-2.367 5.545 0 9.354 3.95 10.164 10.271l6.55-3.785V52.738c0-.059.003-.11-.004-.169l-.01-.074-.002-.077a9.137 9.137 0 0 0-1.239-4.344 9.416 9.416 0 0 0-3.418-3.41l-10.38-6.011-.316-.183-.2-.304c-.157-.236-15.802-23.66-24.978-30.74"/>
        <linearGradient id="z" x1="64.706%" x2="17.435%" y1="77.143%" y2="27.348%">
            <stop offset="0%" stop-color="#FFF"/>
            <stop offset="100%" stop-color="#FFF"/>
        </linearGradient>
        <path id="B" d="M.39.667L21.23 12.72A34.356 34.356 0 0 1 38.372 42.46l-.002 82.676-37.98-21.97V.667zm.78 1.351v100.697l36.422 21.068V42.46c0-11.953-6.418-23.09-16.752-29.066L1.17 2.018z"/>
        <linearGradient id="C" x1=".001%" x2="99.998%" y1="50%" y2="50%">
            <stop offset="0%" stop-color="#FFF"/>
            <stop offset="100%" stop-color="#FFF"/>
        </linearGradient>
        <path id="E" d="M1.619 1.836c-.235-.373-.482-.74-.737-1.102"/>
        <linearGradient id="F" x1="53.343%" x2="45.3%" y1="47.12%" y2="53.974%">
            <stop offset="0%" stop-color="#FFEF26"/>
            <stop offset="100%" stop-color="#FFF"/>
        </linearGradient>
        <path id="H" d="M.833.953l.372 1.466-.372-.214"/>
        <linearGradient id="I" x1="65.425%" x2="21.746%" y1="36.852%" y2="74.076%">
            <stop offset="0%" stop-color="#FFEF26"/>
            <stop offset="100%" stop-color="#FFF"/>
        </linearGradient>
        <path id="K" d="M.572 25.976l.016 60.108v7.295l38.154 21.885 38.168 21.887v-82.38a34.04 34.04 0 0 0-1.94-11.34 34.312 34.312 0 0 0-15.285-18.293l-20.927-12.01s-2.147-1.199-5.592-3.126c-3.461-1.944-8.238-4.605-13.5-7.56C17.681 1.331 15.77.803 13.97.805 6.21.806.572 10.634.572 25.976z"/>
        <path id="M" d="M.68.507l38.174 21.885v36.484L.68 36.984V.507zm.784 1.348v34.679L38.072 57.53V22.84L1.464 1.855z"/>
        <linearGradient id="N" x1="30.399%" x2="69.606%" y1="67.186%" y2="32.811%">
            <stop offset="0%" stop-color="#FFF"/>
            <stop offset="100%" stop-color="#FFF"/>
        </linearGradient>
        <path id="P" d="M.572 25.976l.016 60.108v7.295l38.154 21.885 38.168 21.887v-82.38a34.04 34.04 0 0 0-1.94-11.34 34.312 34.312 0 0 0-15.285-18.293l-20.927-12.01s-2.147-1.199-5.592-3.126c-3.461-1.944-8.238-4.605-13.5-7.56C17.681 1.331 15.77.803 13.97.805 6.21.806.572 10.634.572 25.976z"/>
        <path id="R" d="M.572 25.976l.016 60.108v7.295l38.154 21.885 38.168 21.887v-82.38a34.04 34.04 0 0 0-1.94-11.34 34.312 34.312 0 0 0-15.285-18.293l-20.927-12.01s-2.147-1.199-5.592-3.126c-3.461-1.944-8.238-4.605-13.5-7.56C17.681 1.331 15.77.803 13.97.805 6.21.806.572 10.634.572 25.976z"/>
        <path id="T" d="M17.817.746v.897l-16.5 9.459v34.69l16.5-9.463v.898L.533 47.139V10.654L17.817.746z"/>
        <linearGradient id="U" x1="100.002%" x2="0%" y1="50%" y2="50%">
            <stop offset="0%" stop-color="#FFF"/>
            <stop offset="100%" stop-color="#FFF"/>
        </linearGradient>
        <path id="W" d="M.572 25.976l.016 60.108v7.295l38.154 21.885 38.168 21.887v-82.38a34.04 34.04 0 0 0-1.94-11.34 34.312 34.312 0 0 0-15.285-18.293l-20.927-12.01s-2.147-1.199-5.592-3.126c-3.461-1.944-8.238-4.605-13.5-7.56C17.681 1.331 15.77.803 13.97.805 6.21.806.572 10.634.572 25.976z"/>
        <path id="Y" d="M.572 25.976l.016 60.108v7.295l38.154 21.885 38.168 21.887v-82.38a34.04 34.04 0 0 0-1.94-11.34 34.312 34.312 0 0 0-15.285-18.293l-20.927-12.01s-2.147-1.199-5.592-3.126c-3.461-1.944-8.238-4.605-13.5-7.56C17.681 1.331 15.77.803 13.97.805 6.21.806.572 10.634.572 25.976z"/>
        <path id="aa" d="M.572 25.976l.016 60.108v7.295l38.154 21.885 38.168 21.887v-82.38a34.04 34.04 0 0 0-1.94-11.34 34.312 34.312 0 0 0-15.285-18.293l-20.927-12.01s-2.147-1.199-5.592-3.126c-3.461-1.944-8.238-4.605-13.5-7.56C17.681 1.331 15.77.803 13.97.805 6.21.806.572 10.634.572 25.976z"/>
        <path id="ac" d="M.572 25.976l.016 60.108v7.295l38.154 21.885 38.168 21.887v-82.38a34.04 34.04 0 0 0-1.94-11.34 34.312 34.312 0 0 0-15.285-18.293l-20.927-12.01s-2.147-1.199-5.592-3.126c-3.461-1.944-8.238-4.605-13.5-7.56C17.681 1.331 15.77.803 13.97.805 6.21.806.572 10.634.572 25.976z"/>
        <path id="ae" d="M13.866.687c1.78 0 3.675.531 5.638 1.648C29.94 8.265 38.401 13.07 38.401 13.07v102.622L.615 93.7.61 25.98M13.866 1.467c-7.349 0-12.482 10.08-12.482 24.511l.005 67.271 36.236 21.09V13.526l-18.5-10.511"/>
        <linearGradient id="af" x1="0%" x2="99.999%" y1="50%" y2="50%">
            <stop offset="0%" stop-color="#FFF"/>
            <stop offset="100%" stop-color="#FFF"/>
        </linearGradient>
        <path id="ah" d="M.13 8.963c.166.232.342.455.536.66L8.584.55.13 8.963z"/>
        <linearGradient id="ai" x1="112.012%" x2="-15.341%" y1="16.358%" y2="88.648%">
            <stop offset="0%" stop-color="#FFF"/>
            <stop offset="100%" stop-color="#FFF"/>
        </linearGradient>
        <path id="ak" d="M.41.674l37.997 21.954V59.23L.41 37.267V.674zm.778 1.35v34.792l36.44 21.063V23.077L1.189 2.024z"/>
        <linearGradient id="al" x1="30.703%" x2="69.301%" y1="67.186%" y2="32.81%">
            <stop offset="0%" stop-color="#FFF"/>
            <stop offset="100%" stop-color="#FFF"/>
        </linearGradient>
        <path id="an" d="M44.423.044L44.41 36.64.088 62.26V25.656L44.423.044zm-.78 1.35L.868 26.106v34.802L43.63 36.192l.011-34.798z"/>
        <linearGradient id="ao" x1="99.999%" x2=".002%" y1="50%" y2="50%">
            <stop offset="0%" stop-color="#FFF"/>
            <stop offset="100%" stop-color="#FFF"/>
        </linearGradient>
    </defs>
    <g fill="none" fill-rule="evenodd">
        <path fill="#EBEBFF" d="M-187.633 561.708l-1.367.79 973.047 562.239.457.263 972.131-561.71 1.365-.789L784.951.261 784.496 0l-972.13 561.708zM740.049 27.786l44.447-25.682 44.449 25.684-44.447 25.68-44.449-25.682zm-46.27 26.736l44.447-25.68 44.446 25.68-44.446 25.682-44.447-25.682zm92.54 0l44.45-25.68 44.444 25.68-44.445 25.682-44.448-25.682zm46.273 26.738l44.446-25.682 44.447 25.682-44.447 25.682-44.446-25.682zm-92.54 0l44.446-25.682 44.447 25.682-44.447 25.68-44.447-25.68zm-92.541-.002l44.445-25.68 44.448 25.682-44.446 25.68-44.447-25.682zm-46.272 26.736l44.446-25.682 44.449 25.682-44.447 25.682-44.448-25.682zm277.621 0l44.449-25.68 44.446 25.68-44.446 25.682-44.449-25.682zm-92.54 0l44.448-25.68 44.445 25.68-44.445 25.682-44.448-25.682zm-92.539 0l44.445-25.68 44.446 25.68-44.444 25.682-44.447-25.682zm-46.27 26.734l44.445-25.682 44.448 25.682-44.446 25.682-44.447-25.682zm-92.54 0l44.444-25.682 44.449 25.682-44.447 25.682-44.446-25.682zm370.16 0l44.448-25.68 44.447 25.682-44.445 25.682-44.45-25.684zm-92.54.002l44.447-25.682 44.445 25.68-44.447 25.682-44.444-25.68zm-92.54-.002l44.447-25.68 44.447 25.682-44.447 25.68-44.447-25.682zm138.81 26.736l44.448-25.68 44.446 25.682-44.446 25.68-44.449-25.682zm-185.08 0l44.445-25.68 44.448 25.68-44.446 25.682-44.447-25.682zm-92.54 0l44.446-25.68 44.447 25.68-44.447 25.682-44.446-25.682zm-92.543 0l44.447-25.68 44.449 25.68-44.447 25.682-44.449-25.682zm462.706.002l44.445-25.682 44.447 25.682-44.447 25.68-44.445-25.68zm-185.082-.002l44.446-25.68 44.445 25.68-44.445 25.682-44.446-25.682zM554.97 188.2l44.446-25.682 44.447 25.682-44.447 25.682-44.446-25.682zm-92.543 0l44.447-25.682L551.32 188.2l-44.444 25.682-44.449-25.682zm555.247.002l44.446-25.682 44.445 25.682-44.445 25.682-44.446-25.682zm-92.543 0l44.449-25.682 44.445 25.682-44.445 25.682-44.449-25.682zm-92.54-.002l44.444-25.68 44.45 25.682-44.448 25.68-44.446-25.682zm-92.54.002l44.446-25.682 44.447 25.68-44.447 25.682-44.447-25.68zm-92.541-.002l44.445-25.68 44.448 25.682-44.446 25.68L647.51 188.2zm138.809 26.736l44.448-25.682 44.447 25.682-44.447 25.683-44.448-25.683zm-92.539 0l44.447-25.682 44.446 25.682-44.446 25.683-44.447-25.683zm-92.54 0l44.446-25.682 44.447 25.682-44.447 25.683-44.446-25.683zm-92.543 0l44.447-25.682 44.449 25.682-44.447 25.683-44.449-25.683zm-92.54 0l44.449-25.682 44.446 25.682-44.446 25.683-44.449-25.683zm647.787.002l44.445-25.682 44.448 25.68-44.448 25.683-44.445-25.68zm-92.54 0l44.444-25.682 44.449 25.682-44.449 25.682-44.445-25.682zm-92.541-.002l44.445-25.68 44.446 25.682-44.444 25.68-44.447-25.682zM740.051 241.67l44.447-25.682 44.447 25.684-44.447 25.68-44.447-25.682zm-185.078 0l44.444-25.682 44.447 25.684-44.445 25.68-44.446-25.682zm-92.545 0l44.449-25.682 44.446 25.682-44.446 25.683-44.449-25.683zm-92.54 0l44.448-25.682 44.447 25.682-44.447 25.683-44.448-25.683zm740.325.002l44.447-25.682 44.446 25.682-44.446 25.683-44.447-25.683zm-92.538 0l44.446-25.682 44.445 25.682-44.447 25.683-44.444-25.683zm-92.543 0l44.449-25.682 44.445 25.682-44.445 25.683-44.449-25.683zm-92.54 0l44.446-25.682 44.447 25.682-44.447 25.683-44.446-25.683zm-185.081-.002l44.447-25.68 44.446 25.68-44.446 25.683-44.447-25.683zm231.353 26.738l44.447-25.682 44.446 25.682-44.446 25.68-44.447-25.68zm-92.542 0l44.446-25.682 44.447 25.682-44.447 25.68-44.446-25.68zm-92.54 0l44.446-25.682 44.446 25.682-44.446 25.68-44.447-25.68zm-92.54 0l44.445-25.682 44.447 25.682-44.447 25.68-44.444-25.68zm-92.544 0l44.449-25.682 44.447 25.682-44.445 25.68-44.45-25.68zm-92.54 0l44.449-25.682 44.446 25.682-44.446 25.68-44.449-25.68zm-92.538 0l44.444-25.682 44.449 25.682-44.449 25.68-44.444-25.68zm832.865 0l44.445-25.68 44.449 25.68-44.449 25.683-44.445-25.683zm-92.54 0l44.445-25.68 44.448 25.68-44.448 25.68-44.445-25.68zm-92.54 0l44.444-25.68 44.447 25.68-44.447 25.68-44.445-25.68zm-601.517 26.734l44.448-25.682 44.447 25.684-44.447 25.683-44.448-25.685zm-92.539 0l44.445-25.682 44.449 25.684-44.447 25.68-44.447-25.682zm832.864.002l44.449-25.682 44.446 25.682-44.446 25.683-44.449-25.683zm-92.538 0l44.446-25.682 44.445 25.682-44.445 25.683-44.446-25.683zm-92.543 0l44.449-25.682 44.445 25.682-44.445 25.683-44.449-25.683zm-92.54 0l44.446-25.682 44.449 25.682-44.447 25.683-44.448-25.683zm-92.54 0l44.446-25.682 44.449 25.682-44.449 25.683-44.447-25.683zm-92.541 0l44.447-25.682 44.448 25.682-44.448 25.683-44.447-25.683zm-92.538 0l44.444-25.682 44.447 25.682-44.447 25.683-44.444-25.683zm-92.545-.002l44.449-25.68 44.446 25.682-44.444 25.683-44.45-25.685zm740.33.004l44.444-25.682 44.447 25.68-44.449 25.683-44.443-25.68zM971.403 321.88l44.445-25.683 44.449 25.683-44.449 25.682-44.445-25.682zm-92.54 0l44.447-25.683 44.446 25.683-44.446 25.682-44.447-25.682zm-92.542 0l44.446-25.683 44.447 25.683-44.447 25.682-44.446-25.682zm-92.539 0l44.445-25.683 44.446 25.683-44.446 25.682-44.445-25.682zm-92.542 0l44.446-25.683 44.447 25.683-44.447 25.682-44.446-25.682zm-92.54 0l44.446-25.683 44.447 25.683-44.445 25.682-44.449-25.682zm-92.543 0l44.449-25.683 44.446 25.683-44.446 25.682-44.449-25.682zm-92.538-.002l44.444-25.68 44.449 25.682-44.447 25.682-44.446-25.684zm-92.54 0l44.444-25.68 44.448 25.682-44.446 25.682-44.447-25.684zm1017.946.003l44.448-25.682 44.445 25.682-44.445 25.683-44.448-25.683zm-92.54 0l44.444-25.682 44.449 25.682-44.449 25.683-44.445-25.683zm-92.541-.001l44.445-25.68 44.448 25.681-44.447 25.683-44.446-25.684zm-786.596 26.734l44.447-25.683 44.447 25.685-44.447 25.68-44.447-25.682zm-92.54 0l44.445-25.683 44.448 25.685-44.447 25.68-44.446-25.682zm1017.945.004l44.448-25.685 44.449 25.683-44.45 25.682-44.447-25.68zm-185.08-.002l44.447-25.683 44.447 25.683-44.447 25.682-44.446-25.682zm-92.542 0l44.449-25.683 44.445 25.683-44.445 25.682-44.449-25.682zm-92.54 0l44.448-25.683 44.447 25.683-44.449 25.682-44.446-25.682zm-92.539 0l44.445-25.683 44.449 25.683-44.449 25.682-44.445-25.682zm-92.542 0l44.447-25.683 44.448 25.683-44.448 25.682-44.447-25.682zm-92.538 0l44.444-25.683 44.447 25.683-44.445 25.682-44.446-25.682zm-92.543 0l44.447-25.683 44.446 25.683-44.446 25.682-44.447-25.682zm-92.54-.002l44.446-25.68 44.447 25.682-44.445 25.68-44.448-25.682zm925.406.004l44.447-25.683 44.446 25.68-44.446 25.683-44.447-25.68zm-185.08-.002l44.446-25.68 44.446 25.68-44.446 25.682-44.447-25.682zm-971.68 26.734l44.447-25.683 44.449 25.683-44.449 25.682-44.446-25.682zm832.868 0l44.447-25.68 44.447 25.68-44.447 25.684-44.447-25.684zm-92.54 0l44.447-25.68 44.446 25.68-44.446 25.682-44.447-25.682zm-92.542 0l44.446-25.68 44.447 25.68-44.447 25.682-44.446-25.682zm-92.54 0l44.446-25.68 44.448 25.68-44.448 25.682-44.447-25.682zm-92.54 0l44.445-25.68 44.447 25.68-44.445 25.682-44.446-25.682zm-92.544 0l44.45-25.68 44.446 25.68-44.445 25.682-44.45-25.682zm-92.538 0l44.447-25.68 44.446 25.68-44.444 25.682-44.45-25.682zm-92.54 0l44.444-25.68 44.45 25.68-44.448 25.682-44.446-25.682zm-92.54 0l44.444-25.68 44.448 25.68-44.446 25.68-44.447-25.68zm1110.486.002l44.449-25.68 44.444 25.68-44.444 25.682-44.449-25.682zm-92.54 0l44.448-25.68 44.445 25.68-44.445 25.682-44.448-25.682zm-92.54-.002l44.444-25.679 44.449 25.68-44.449 25.68-44.445-25.681zm-92.54.002l44.445-25.68 44.447 25.678-44.448 25.682-44.443-25.68zM277.35 402.085l44.445-25.683 44.45 25.685-44.448 25.68-44.447-25.682zm-92.542 0l44.448-25.683 44.447 25.683-44.447 25.684-44.448-25.684zm1110.489.004l44.448-25.685 44.447 25.683-44.448 25.684-44.447-25.682zm-92.539-.002l44.445-25.683 44.449 25.683-44.449 25.682-44.445-25.682zm-92.542 0l44.447-25.683 44.446 25.683-44.446 25.682-44.447-25.682zm-92.54 0l44.446-25.683 44.445 25.683-44.445 25.682-44.446-25.682zm-92.543 0l44.449-25.683 44.446 25.683-44.446 25.682-44.449-25.682zm-92.538 0l44.444-25.683 44.449 25.683-44.447 25.682-44.446-25.682zm-92.54 0l44.444-25.683 44.449 25.683-44.449 25.682-44.445-25.682zm-92.541 0l44.445-25.683 44.448 25.683-44.446 25.682-44.447-25.682zm-92.54 0l44.444-25.683 44.447 25.683-44.447 25.682-44.444-25.682zm-92.543-.002l44.447-25.68 44.446 25.682-44.444 25.68-44.449-25.682zm-92.54.002l44.448-25.683 44.445 25.683-44.445 25.682-44.448-25.682zm-277.622-.002l44.445-25.68 44.447 25.682-44.445 25.68-44.447-25.682zm1295.568.004l44.447-25.683 44.447 25.683-44.447 25.682-44.447-25.682zm-231.35 26.734l44.448-25.684 44.446 25.682-44.45 25.684-44.445-25.682zm-92.541-.002l44.446-25.682 44.447 25.682-44.447 25.684-44.446-25.684zm-185.081 0l44.447-25.682 44.446 25.684-44.444 25.682-44.449-25.684zm-92.542 0l44.446-25.682 44.45 25.682-44.45 25.682-44.446-25.682zm-92.539 0l44.445-25.682 44.448 25.682-44.448 25.682-44.445-25.682zm-92.542 0l44.448-25.682 44.447 25.682-44.447 25.682-44.448-25.682zm-92.54 0l44.446-25.682 44.447 25.682-44.445 25.682-44.449-25.682zm-92.541 0l44.447-25.682 44.446 25.682-44.444 25.682-44.45-25.682zm-92.54 0l44.446-25.682 44.449 25.682-44.449 25.682-44.446-25.682zm-92.54 0l44.446-25.682 44.448 25.682-44.448 25.682-44.447-25.682zm-92.541-.002l44.444-25.68 44.449 25.682-44.447 25.682-44.446-25.684zm-92.543 0l44.447-25.68 44.447 25.682-44.445 25.682-44.449-25.684zm1388.113.006l44.446-25.685L1523 428.825l-44.445 25.68-44.446-25.68zm-92.543 0l44.449-25.685 44.444 25.683-44.444 25.682-44.449-25.68zm-92.54-.002l44.448-25.683 44.445 25.683-44.445 25.682-44.448-25.682zm-277.622 0l44.447-25.683 44.447 25.68-44.447 25.685-44.447-25.682zm-508.976 26.734l44.449-25.684 44.448 25.684-44.446 25.682-44.45-25.682zm-370.16-.002l44.445-25.682 44.447 25.684-44.445 25.682-44.447-25.684zm-92.542.002l44.449-25.684 44.446 25.682-44.446 25.684-44.449-25.682zm1203.031.002l44.445-25.684 44.449 25.682-44.449 25.684-44.445-25.682zm-92.542-.002l44.447-25.682 44.446 25.682-44.446 25.684-44.447-25.684zm-92.54 0l44.446-25.682 44.447 25.682-44.447 25.684-44.446-25.684zm-92.54 0l44.448-25.682 44.444 25.682-44.444 25.682-44.449-25.682zm-92.541 0l44.446-25.682 44.449 25.682-44.449 25.682-44.446-25.682zm-92.54 0l44.444-25.682 44.449 25.682-44.449 25.682-44.445-25.682zm-92.541 0l44.447-25.682 44.446 25.682-44.448 25.682-44.445-25.682zm-92.54 0l44.444-25.682 44.447 25.682-44.445 25.682-44.446-25.682zm-185.083 0l44.446-25.682 44.447 25.682-44.445 25.682-44.448-25.682zm-92.54 0l44.446-25.682 44.449 25.682-44.45 25.682-44.446-25.682zm-92.541-.002l44.445-25.68 44.448 25.682-44.445 25.682-44.448-25.684zm1295.57.004l44.444-25.682 44.449 25.682-44.449 25.682-44.444-25.682zm-92.543 0l44.449-25.682 44.447 25.682-44.449 25.682-44.447-25.682zm-92.538 0l44.447-25.682 44.446 25.682-44.447 25.682-44.446-25.682zM508.7 482.29l44.449-25.682 44.447 25.684-44.447 25.682-44.449-25.684zm-92.54 0l44.447-25.682 44.446 25.684-44.444 25.678-44.45-25.68zm-92.54.002l44.446-25.684 44.449 25.682-44.449 25.684-44.446-25.682zm-185.081-.002l44.444-25.682 44.449 25.684-44.445 25.682-44.448-25.684zm-92.543 0l44.449-25.682 44.446 25.682-44.446 25.68-44.449-25.68zm-92.54 0l44.448-25.682 44.447 25.682-44.447 25.68-44.448-25.68zm1480.65.004l44.45-25.684 44.448 25.684-44.449 25.682-44.448-25.682zm-185.08-.002l44.448-25.682 44.447 25.682-44.447 25.682-44.448-25.682zm-92.54 0l44.448-25.682 44.446 25.682-44.45 25.682-44.445-25.682zm-92.541 0l44.446-25.682 44.447 25.682-44.447 25.682-44.446-25.682zm-92.54 0l44.446-25.682 44.447 25.682-44.447 25.682-44.447-25.682zm-92.541 0l44.449-25.682 44.446 25.682-44.448 25.682-44.447-25.682zm-92.542 0l44.448-25.682 44.449 25.682-44.449 25.682-44.448-25.682zm-92.54 0l44.446-25.682 44.448 25.682-44.448 25.682-44.447-25.682zm-92.54 0l44.447-25.682 44.445 25.682-44.445 25.682-44.446-25.682zm-370.163-.002l44.447-25.68 44.448 25.682-44.448 25.682-44.447-25.684zm1295.568.004l44.449-25.682 44.448 25.682-44.448 25.682-44.449-25.682zm-185.08-.002l44.448-25.68 44.446 25.682-44.444 25.682-44.45-25.684zm-786.594 26.734l44.446-25.682 44.447 25.682-44.447 25.684-44.446-25.684zm-92.543 0l44.447-25.682 44.448 25.682-44.444 25.684-44.45-25.684zm-92.542 0l44.448-25.682 44.447 25.682-44.447 25.684-44.448-25.684zm-185.077 0l44.444-25.682 44.447 25.682-44.445 25.684-44.446-25.684zm-92.543 0l44.447-25.682 44.449 25.682-44.449 25.684-44.447-25.684zm-92.542 0l44.449-25.682 44.446 25.682-44.446 25.682-44.449-25.682zm-92.54 0l44.448-25.682 44.447 25.682-44.447 25.682-44.448-25.682zm1665.733.004l44.447-25.684 44.446 25.684-44.446 25.68-44.447-25.68zm-92.54 0l44.444-25.684 44.449 25.684-44.449 25.68-44.444-25.68zm-92.543-.002l44.447-25.682 44.449 25.684-44.447 25.68-44.449-25.682zm-92.538 0l44.447-25.682 44.448 25.682-44.448 25.682-44.447-25.682zm-92.54 0l44.444-25.682 44.449 25.682-44.449 25.682-44.445-25.682zm-92.543 0l44.447-25.682 44.448 25.682-44.448 25.682-44.447-25.682zm-92.54 0l44.446-25.682 44.447 25.682-44.445 25.682-44.448-25.682zm-92.54 0l44.448-25.682 44.444 25.682-44.444 25.682-44.449-25.682zm-92.541 0l44.446-25.682 44.447 25.682-44.447 25.682-44.446-25.682zm-92.543 0l44.447-25.682 44.45 25.682-44.45 25.682-44.447-25.682zm-92.538-.002l44.445-25.68 44.448 25.682-44.446 25.682-44.447-25.684zm-370.164 0l44.447-25.68 44.447 25.68-44.447 25.682-44.447-25.682zM45.996 535.763l44.449-25.684 44.448 25.684-44.448 25.682-44.449-25.682zm-92.54 0l44.448-25.684 44.447 25.684-44.447 25.682-44.448-25.682zm1017.948 0l44.447-25.682 44.449 25.682-44.449 25.684-44.447-25.684zm-92.54 0l44.447-25.682 44.448 25.682-44.448 25.682-44.447-25.682zm-92.542.002l44.448-25.684 44.449 25.682-44.45 25.684-44.447-25.682zm-92.539-.002l44.445-25.682 44.448 25.684-44.446 25.68-44.447-25.682zm-92.54 0l44.446-25.682 44.447 25.682-44.447 25.682-44.446-25.682zm-92.543 0l44.449-25.682 44.447 25.682-44.447 25.682-44.449-25.682zm-92.542 0l44.449-25.682 44.448 25.682-44.446 25.682-44.451-25.682zm-92.538 0l44.444-25.682 44.449 25.682-44.447 25.682-44.446-25.682zm-92.54 0l44.446-25.682 44.448 25.682-44.448 25.682-44.447-25.682zm-92.541 0l44.448-25.682 44.447 25.682-44.447 25.682-44.448-25.682zm-277.622-.002l44.445-25.68 44.449 25.682-44.447 25.682-44.447-25.684zm1758.272.004l44.445-25.682 44.45 25.682-44.45 25.684-44.445-25.684zm-92.542 0l44.449-25.682 44.448 25.682-44.448 25.684-44.449-25.684zm-92.538 0l44.446-25.682 44.449 25.682-44.447 25.682-44.448-25.682zm-92.543 0l44.45-25.682 44.445 25.682-44.444 25.682-44.45-25.682zm-92.54 0l44.448-25.682 44.447 25.682-44.447 25.682-44.448-25.682zm-92.54 0l44.448-25.682 44.446 25.682-44.45 25.682-44.445-25.682zm-92.54-.002l44.445-25.68 44.447 25.682-44.447 25.682-44.444-25.684zM184.81 562.499l44.448-25.684 44.445 25.682-44.447 25.684L184.81 562.5zm-92.54 0l44.446-25.684 44.449 25.684-44.449 25.682L92.268 562.5zm-92.543 0l44.449-25.684 44.448 25.684-44.448 25.682L-.274 562.5zm-92.54-.002l44.448-25.682 44.447 25.684-44.447 25.68-44.448-25.682zm-92.539 0l44.447-25.682 44.448 25.682-44.448 25.682-44.447-25.682zm1573.19.004l44.448-25.684 44.449 25.684-44.45 25.682-44.448-25.682zm-92.54 0l44.447-25.684 44.45 25.684-44.45 25.682-44.446-25.682zm-92.54 0l44.445-25.684 44.45 25.684-44.45 25.682-44.445-25.682zm-92.542-.002l44.449-25.682 44.446 25.684-44.446 25.68-44.449-25.682zm-92.54 0l44.448-25.682 44.445 25.682-44.445 25.682-44.448-25.682zm-92.54 0l44.448-25.682 44.444 25.682-44.444 25.682-44.449-25.682zm-92.543 0l44.448-25.682 44.449 25.682-44.449 25.682-44.448-25.682zm-92.539 0l44.445-25.682 44.449 25.682-44.449 25.682-44.445-25.682zm-92.54 0l44.447-25.682 44.448 25.682-44.448 25.682-44.447-25.682zm-92.54 0l44.446-25.682 44.447 25.682-44.447 25.682-44.446-25.682zm-92.543 0l44.449-25.682 44.446 25.682-44.446 25.682L462.43 562.5zm-92.54 0l44.446-25.682 44.447 25.682-44.445 25.682L369.89 562.5zm-92.54 0l44.446-25.682 44.449 25.682-44.45 25.682L277.35 562.5zm1388.108.002l44.448-25.682 44.447 25.682-44.447 25.682-44.448-25.682zm-92.54 0l44.448-25.682 44.448 25.682-44.448 25.682-44.449-25.682zm-92.54 0l44.445-25.682 44.449 25.682-44.445 25.682-44.448-25.682zm-1619.46 26.732l44.446-25.684 44.449 25.684-44.449 25.682-44.447-25.682zm462.702 0l44.446-25.68 44.449 25.682-44.449 25.682-44.446-25.684zm-92.54 0l44.446-25.68 44.448 25.68-44.448 25.682-44.447-25.682zm-92.541.002l44.448-25.682 44.445 25.68-44.447 25.682-44.446-25.68zm-92.543-.002l44.449-25.68 44.448 25.68-44.448 25.684-44.449-25.684zm-92.54 0l44.448-25.68 44.449 25.68-44.447 25.682-44.45-25.682zm1665.733.004l44.445-25.684 44.45 25.684-44.45 25.682-44.445-25.682zm-92.54-.002l44.447-25.682 44.448 25.684-44.448 25.682-44.447-25.684zm-92.54 0l44.446-25.682 44.449 25.682-44.449 25.684-44.446-25.684zm-92.543 0l44.45-25.682 44.445 25.682-44.444 25.684-44.45-25.684zm-92.54 0l44.448-25.682 44.449 25.684-44.449 25.682-44.448-25.684zm-92.539 0l44.447-25.682 44.448 25.684-44.446 25.68-44.449-25.682zm-92.54 0l44.446-25.682 44.447 25.682-44.449 25.682-44.444-25.682zm-92.543 0l44.447-25.682 44.449 25.682-44.449 25.682-44.447-25.682zm-92.54 0l44.449-25.682 44.446 25.682-44.448 25.682-44.447-25.682zm-92.542 0l44.446-25.682 44.45 25.682-44.448 25.682-44.448-25.682zm-92.539 0l44.447-25.682 44.446 25.682-44.446 25.682-44.447-25.682zm-92.54 0l44.446-25.682 44.447 25.682-44.447 25.682-44.446-25.682zm-92.543 0l44.449-25.682 44.447 25.682-44.447 25.682-44.449-25.682zm-92.54-.002l44.447-25.68 44.446 25.682-44.444 25.682-44.45-25.684zm-508.972 26.734l44.446-25.682 44.449 25.684-44.449 25.682-44.446-25.684zm832.865.002l44.445-25.682 44.45 25.682-44.45 25.684-44.445-25.684zm-185.08.002l44.446-25.684 44.447 25.684-44.447 25.682-44.446-25.682zm-92.543-.002l44.447-25.682 44.448 25.684-44.444 25.68-44.45-25.682zm-92.54 0l44.448-25.682 44.447 25.682-44.447 25.682-44.448-25.682zm-92.54 0l44.446-25.682 44.45 25.682-44.45 25.684-44.447-25.684zm-92.543 0l44.448-25.682 44.447 25.682-44.447 25.682-44.448-25.682zm-92.539 0l44.447-25.682 44.447 25.682-44.447 25.682-44.447-25.682zm-92.54 0l44.447-25.682 44.448 25.682-44.446 25.682L-.272 615.97zm1573.191.002l44.447-25.682 44.448 25.682-44.446 25.682-44.449-25.682zm-92.54 0l44.448-25.682 44.447 25.682-44.447 25.682-44.448-25.682zm-92.543 0l44.449-25.682 44.449 25.682-44.45 25.682-44.448-25.682zm-92.538 0l44.447-25.682 44.448 25.682-44.448 25.682-44.447-25.682zm-92.54 0l44.444-25.682 44.45 25.682-44.448 25.682-44.447-25.682zm-92.543 0l44.449-25.682 44.448 25.682-44.448 25.682-44.449-25.682zm-92.54 0l44.448-25.682 44.445 25.682-44.445 25.682-44.448-25.682zm-92.543 0l44.45-25.682 44.447 25.682-44.446 25.682-44.45-25.682zm-92.538-.002l44.446-25.68 44.447 25.682-44.447 25.682-44.446-25.684zm-185.081.002l44.447-25.682 44.448 25.68-44.448 25.684-44.447-25.682zm-508.976 26.734l44.448-25.684 44.447 25.684-44.447 25.682-44.448-25.682zm-185.08 0l44.45-25.684 44.446 25.684-44.447 25.682-44.448-25.682zm1203.03.002l44.447-25.684 44.448 25.684-44.446 25.682-44.449-25.682zm-92.54 0l44.446-25.684 44.447 25.684-44.447 25.682-44.446-25.682zm-92.543 0l44.449-25.684 44.447 25.682-44.449 25.684-44.447-25.682zm-185.082-.002l44.448-25.682 44.449 25.682-44.449 25.682-44.448-25.682zm-92.539 0l44.447-25.682 44.446 25.682-44.446 25.682-44.447-25.682zm-92.54 0l44.446-25.682 44.447 25.682-44.447 25.682-44.446-25.682zm-92.54 0l44.446-25.682 44.447 25.684-44.445 25.68-44.449-25.682zm-92.543 0l44.449-25.682 44.448 25.682-44.448 25.682-44.45-25.682zm-92.54 0l44.446-25.682 44.449 25.682-44.449 25.682-44.446-25.682zm-92.54 0l44.446-25.682 44.45 25.682-44.45 25.682-44.447-25.682zm-185.082 0l44.447-25.682 44.446 25.682-44.446 25.682-44.447-25.682zm1480.65.002l44.448-25.682 44.448 25.682-44.448 25.682-44.447-25.682zm-92.54 0l44.447-25.682 44.449 25.682-44.449 25.682-44.446-25.682zm-92.542 0l44.449-25.682 44.446 25.682-44.446 25.682-44.449-25.682zm-92.538 0l44.446-25.682 44.447 25.682-44.447 25.682-44.446-25.682zm-370.164-.002l44.447-25.68 44.448 25.682-44.446 25.682-44.449-25.684zM184.807 669.44l44.448-25.682 44.45 25.684-44.448 25.682-44.45-25.684zm-92.539 0l44.447-25.682 44.449 25.682-44.449 25.684-44.447-25.684zm-92.54 0l44.449-25.682 44.446 25.682-44.446 25.683-44.449-25.683zm1480.65.004l44.45-25.684 44.444 25.684-44.445 25.682-44.448-25.682zm-92.542 0l44.449-25.684 44.449 25.684-44.45 25.682-44.448-25.682zm-92.538-.002l44.447-25.682 44.448 25.684-44.448 25.68-44.447-25.682zm-92.54 0l44.446-25.682 44.45 25.682-44.45 25.684-44.447-25.684zm-92.543 0l44.449-25.682 44.448 25.684-44.448 25.682-44.449-25.684zm-92.54.002l44.448-25.684 44.447 25.684-44.447 25.682-44.448-25.682zm-92.54-.002l44.448-25.682 44.444 25.684-44.444 25.68-44.449-25.682zm-92.541 0l44.446-25.682 44.449 25.682-44.449 25.682-44.446-25.682zm-92.54 0l44.444-25.682 44.45 25.682-44.448 25.682-44.447-25.682zm-92.541 0l44.447-25.682 44.448 25.682-44.448 25.682-44.447-25.682zm-92.54 0l44.446-25.682 44.447 25.682-44.447 25.682-44.446-25.682zm-92.543 0l44.449-25.682 44.448 25.682-44.446 25.682-44.45-25.682zm-92.54 0l44.448-25.682 44.449 25.682-44.449 25.682-44.448-25.682zm-92.54 0l44.448-25.682 44.448 25.682-44.45 25.682-44.447-25.682zm138.81 26.736l44.449-25.682 44.448 25.682-44.448 25.683-44.45-25.683zm-92.54 0l44.446-25.682 44.45 25.682-44.45 25.683-44.446-25.683zm-92.54-.002l44.446-25.68 44.45 25.682-44.448 25.683-44.449-25.685zm-92.541 0l44.446-25.68 44.449 25.68-44.447 25.683-44.448-25.683zm-92.543 0l44.449-25.68 44.448 25.68-44.446 25.683-44.45-25.683zm1388.113.002l44.446-25.682 44.449 25.682-44.449 25.684-44.446-25.684zm-92.543 0l44.449-25.682 44.446 25.682-44.444 25.683-44.45-25.683zm-92.538 0l44.446-25.682 44.449 25.682-44.449 25.683-44.446-25.683zm-92.54 0l44.448-25.682 44.446 25.682-44.448 25.683-44.447-25.683zm-92.541 0l44.446-25.682 44.447 25.682-44.449 25.684-44.444-25.684zm-92.543 0l44.447-25.682 44.449 25.682-44.447 25.683-44.449-25.683zm-92.54 0l44.449-25.682 44.446 25.682-44.446 25.683-44.449-25.683zm-92.54 0l44.446-25.682 44.45 25.682-44.45 25.683-44.446-25.683zm-92.54 0l44.446-25.682 44.448 25.682-44.448 25.683-44.447-25.683zm-92.541-.002l44.446-25.68 44.447 25.682-44.447 25.683-44.446-25.685zm-92.54.002l44.448-25.682 44.445 25.682-44.447 25.683-44.447-25.683zM92.267 722.91l44.447-25.682 44.45 25.686-44.446 25.683-44.45-25.687zm1203.03.006l44.447-25.684 44.45 25.684-44.45 25.68-44.447-25.68zm-370.164 0l44.449-25.684 44.446 25.684-44.444 25.68-44.45-25.68zm-92.54 0l44.448-25.684 44.447 25.684-44.447 25.68-44.448-25.68zm-92.54 0l44.446-25.684 44.449 25.684-44.451 25.68-44.445-25.68zm-92.541-.002l44.447-25.682 44.448 25.684-44.448 25.68-44.447-25.682zm-92.54 0l44.446-25.682 44.447 25.682-44.447 25.683-44.446-25.683zm-92.543 0l44.45-25.682 44.447 25.682-44.448 25.683-44.449-25.683zm-92.54 0l44.448-25.682 44.449 25.682-44.449 25.683-44.448-25.683zm-92.54 0l44.446-25.682 44.45 25.682-44.448 25.683-44.449-25.683zm-92.54 0l44.447-25.682 44.447 25.682-44.447 25.683-44.446-25.683zm1203.028.002l44.447-25.682 44.449 25.682-44.45 25.68-44.446-25.68zm-185.08 0l44.446-25.682 44.449 25.682-44.449 25.68-44.447-25.68zm-92.543 0l44.449-25.682 44.448 25.682-44.448 25.68-44.449-25.68zm-92.54 0l44.448-25.682 44.447 25.682-44.445 25.68-44.45-25.68zm-879.136 26.732l44.448-25.684 44.449 25.684-44.447 25.683-44.45-25.683zm1203.03.002l44.448-25.684 44.446 25.682-44.446 25.685-44.449-25.683zm-92.543 0l44.448-25.684 44.449 25.684-44.449 25.683-44.448-25.683zm-92.54 0l44.448-25.684 44.448 25.684-44.448 25.683-44.449-25.683zm-185.082 0l44.449-25.684 44.449 25.684-44.449 25.683-44.449-25.683zm-92.54-.002l44.449-25.682 44.448 25.684-44.448 25.683-44.449-25.685zm-92.542.002l44.448-25.684 44.45 25.682-44.45 25.685-44.448-25.683zm-92.539-.002l44.447-25.682 44.446 25.684-44.446 25.68-44.447-25.682zm-92.54 0l44.446-25.682 44.447 25.682-44.447 25.683-44.446-25.683zm-92.543 0l44.45-25.682 44.448 25.682-44.45 25.683-44.448-25.683zm-92.54 0l44.449-25.682 44.448 25.682-44.448 25.683-44.45-25.683zm-92.54 0l44.446-25.682 44.45 25.682-44.448 25.683-44.448-25.683zm-92.539 0l44.447-25.682 44.448 25.682-44.448 25.683-44.447-25.683zm832.866.002l44.444-25.682 44.45 25.682-44.448 25.683-44.446-25.683zm-508.974 26.734L599.42 750.7l44.447 25.684-44.449 25.683-44.446-25.683zm-92.543 0l44.45-25.684 44.447 25.684-44.448 25.683-44.449-25.683zm-185.079-.001l44.447-25.683 44.448 25.684-44.448 25.683-44.447-25.684zm-92.54 0l44.446-25.683 44.449 25.683-44.449 25.684-44.446-25.684zm1110.487.001l44.447-25.682 44.448 25.682-44.448 25.685-44.447-25.685zm-92.544.002l44.45-25.684 44.45 25.682-44.452 25.685-44.448-25.683zm-92.539-.002l44.449-25.682 44.446 25.684-44.446 25.683-44.449-25.685zm-92.54 0l44.45-25.682 44.445 25.682-44.447 25.685-44.448-25.685zm-92.54 0l44.448-25.682 44.446 25.682-44.444 25.685-44.45-25.685zm-92.541 0l44.448-25.682 44.449 25.682-44.449 25.685-44.448-25.685zm-92.54 0l44.444-25.682 44.45 25.682-44.448 25.683-44.447-25.683zm-92.541 0l44.447-25.682 44.448 25.682-44.448 25.683-44.447-25.683zm-277.623 0l44.448-25.682 44.447 25.682-44.447 25.683-44.448-25.683zm323.893 26.737l44.447-25.683 44.448 25.683-44.448 25.682-44.447-25.682zm-92.54 0l44.448-25.683 44.447 25.683-44.449 25.682-44.446-25.682zm-92.543 0l44.45-25.683 44.448 25.683-44.45 25.682L508.7 803.12zm-92.54-.002l44.449-25.68 44.448 25.682-44.448 25.682-44.45-25.684zm-92.539 0l44.447-25.68 44.449 25.68-44.449 25.682-44.447-25.682zm-92.54 0l44.447-25.68 44.448 25.68-44.448 25.684-44.447-25.684zm1017.945.002l44.448-25.683 44.449 25.683-44.449 25.684-44.448-25.684zm-92.539 0l44.447-25.683 44.448 25.684-44.446 25.68-44.449-25.681zm-92.54 0l44.446-25.683 44.447 25.683-44.447 25.682-44.446-25.682zm-92.543 0l44.449-25.683 44.449 25.683-44.449 25.682-44.449-25.682zm-92.54 0l44.449-25.683 44.448 25.683-44.448 25.684-44.449-25.684zm-92.54 0l44.446-25.683 44.45 25.683-44.448 25.682-44.448-25.682zm323.891 26.738l44.449-25.685 44.448 25.685-44.448 25.68-44.449-25.68zm-92.54 0l44.448-25.685 44.447 25.685-44.447 25.68-44.448-25.68zm-277.622 0l44.447-25.685 44.45 25.685-44.446 25.68-44.45-25.68zm-92.54 0l44.449-25.685 44.446 25.683-44.448 25.682-44.447-25.68zm-92.54-.002l44.446-25.683 44.449 25.683-44.449 25.682-44.446-25.682zm-92.543 0l44.45-25.683 44.447 25.683-44.446 25.682-44.45-25.682zm-92.538 0l44.446-25.683 44.449 25.683-44.449 25.682-44.446-25.682zm-92.54 0l44.446-25.683 44.448 25.683-44.448 25.682-44.447-25.682zm925.405.002l44.445-25.683 44.45 25.683-44.448 25.68-44.447-25.68zm-277.623 0l44.45-25.683 44.445 25.683-44.446 25.68-44.449-25.68zm-92.538 0l44.446-25.683 44.449 25.683-44.447 25.68-44.448-25.68zM323.62 856.59l44.447-25.685 44.449 25.685-44.449 25.682-44.447-25.682zm832.866.004l44.449-25.687 44.446 25.683-44.448 25.686-44.447-25.682zm-92.54-.004l44.444-25.683 44.45 25.687-44.448 25.682-44.446-25.686zm-92.543 0l44.449-25.683 44.447 25.683-44.447 25.686-44.449-25.686zm-185.08 0l44.448-25.683 44.45 25.683-44.45 25.686-44.448-25.686zm-92.54 0l44.448-25.683 44.448 25.683-44.448 25.686-44.449-25.686zm-92.541 0l44.448-25.683 44.447 25.683-44.449 25.686-44.446-25.686zm-92.54 0l44.448-25.683 44.447 25.683-44.447 25.682-44.449-25.682zm-92.541 0l44.447-25.683 44.448 25.683-44.448 25.682-44.447-25.682zm462.704 0l44.447-25.679 44.446 25.683-44.446 25.678-44.447-25.682zm-416.434 26.736l44.449-25.685 44.446 25.685-44.446 25.682-44.449-25.682zm-92.54-.002l44.446-25.683 44.45 25.685-44.45 25.682-44.446-25.684zm740.323.004l44.449-25.685 44.448 25.683-44.448 25.684-44.449-25.682zm-92.54-.002l44.448-25.683 44.447 25.685-44.447 25.682-44.448-25.684zm-92.54 0l44.448-25.683 44.446 25.683-44.444 25.682-44.45-25.682zm-92.54 0l44.447-25.683 44.449 25.683-44.449 25.682-44.446-25.682zm-92.54 0l44.449-25.683 44.447 25.683-44.447 25.684-44.449-25.684zm-92.542 0l44.449-25.683 44.446 25.683-44.446 25.684-44.449-25.684zm-92.54 0l44.446-25.683 44.449 25.683-44.447 25.682-44.448-25.682zm323.893 26.736l44.447-25.682 44.448 25.682-44.448 25.682-44.447-25.682zm-370.164-.002l44.449-25.68 44.447 25.68-44.447 25.684-44.449-25.684zm-92.54 0l44.447-25.68 44.45 25.68-44.449 25.682-44.448-25.682zm647.785.002l44.446-25.682 44.447 25.682-44.447 25.684-44.446-25.684zm-92.543 0l44.447-25.682 44.45 25.682-44.446 25.682-44.45-25.682zm-185.08 0l44.448-25.682 44.449 25.682-44.45 25.682-44.447-25.682zm-92.54 0l44.448-25.682 44.448 25.682-44.448 25.682-44.449-25.682zm-92.541 0l44.448-25.682 44.447 25.682-44.447 25.682-44.448-25.682zm323.891 26.736l44.45-25.682 44.447 25.684-44.446 25.68-44.45-25.682zm-92.54 0l44.448-25.682 44.449 25.682-44.449 25.682-44.448-25.682zm-277.621 0l44.448-25.682 44.449 25.682-44.447 25.682-44.45-25.682zm-92.54 0l44.448-25.682 44.448 25.682-44.448 25.682-44.449-25.682zm555.242.002l44.448-25.682 44.447 25.682-44.445 25.68-44.45-25.68zm-277.62 0l44.449-25.682 44.447 25.68L784.5 962.48l-44.445-25.68zm-92.54-.002l44.447-25.68 44.446 25.682-44.446 25.68-44.447-25.682zm323.891 26.736l44.449-25.682 44.447 25.682-44.449 25.684-44.447-25.684zm-92.542 0l44.449-25.682 44.45 25.682-44.45 25.684-44.449-25.684zm-92.54 0l44.446-25.682 44.45 25.682-44.45 25.684-44.446-25.684zm-92.539 0l44.447-25.682 44.446 25.682-44.446 25.682-44.447-25.682zm-92.542 0l44.45-25.682 44.447 25.682-44.447 25.684-44.45-25.684zm-92.54 0l44.448-25.682 44.448 25.682-44.446 25.682-44.45-25.682zm416.431 26.734l44.45-25.682 44.447 25.682-44.446 25.682-44.45-25.682zm-92.54 0l44.448-25.682 44.449 25.682-44.449 25.684-44.448-25.684zm-92.539 0l44.445-25.682 44.45 25.682-44.446 25.682-44.449-25.682zm-92.54 0l44.447-25.682 44.446 25.682-44.446 25.682-44.447-25.682zm-92.54 0l44.448-25.682 44.447 25.682-44.447 25.682-44.449-25.682zm231.349 26.734l44.446-25.68 44.453 25.682-44.449 25.682-44.45-25.684zm-92.539 0l44.447-25.68 44.448 25.68-44.448 25.684-44.447-25.684zm-92.54.002l44.448-25.682 44.445 25.68-44.447 25.684-44.446-25.682zm277.621 0l44.447-25.682 44.448 25.682-44.448 25.682-44.447-25.682zm-46.27 26.736l44.446-25.682 44.449 25.684-44.447 25.682-44.448-25.684zm-92.54 0l44.448-25.682 44.447 25.682-44.447 25.684-44.449-25.684zm-92.541 0l44.447-25.682 44.446 25.682-44.446 25.682-44.447-25.682zm138.813 26.736l44.446-25.682 44.449 25.682-44.45 25.682-44.445-25.682zm-92.543 0l44.447-25.682 44.448 25.682-44.446 25.682-44.449-25.682zm46.27 26.736l44.449-25.684 44.447 25.684-44.447 25.682-44.449-25.682z" opacity=".64"/>
        <path fill="#F3F3FF" d="M359.404 729.385l10.682-6.16c.938-.54.938-1.418 0-1.959l-88.143-50.802c-.938-.54-2.46-.54-3.398 0l-10.685 6.162c-.938.542-.938 1.42 0 1.959l88.145 50.802c.94.539 2.46.539 3.399-.002"/>
        <path fill="#24ABFF" d="M611.205 801.679l3.641-2.1c.94-.54.94-1.418 0-1.957l-105.795-60.95c-.938-.54-2.46-.54-3.398.002l-3.645 2.101c-.938.541-.938 1.417 0 1.96l105.799 60.944c.94.54 2.46.54 3.398 0"/>
        <path fill="#62B3FB" d="M618.005 569.002l-44.36 25.569-76.09-43.957 44.36-25.567z"/>
        <path fill="#DAEDF6" d="M1032.655 559.427c22.516-12.974 59.016-12.973 81.53.004 22.513 12.976 22.511 34.014-.004 46.99-22.516 12.979-59.016 12.977-81.528-.001-22.511-12.979-22.511-34.017.002-46.993"/>
        <path fill="#F3F3FF" d="M974.787 369.709L795.512 473.33c-4.687 2.717-12.305 2.75-17.014.08l-87.42-49.564c-4.71-2.672-4.734-7.044-.052-9.766l180.17-104.516c4.684-2.722 12.275-2.724 16.958-.006l86.637 50.31c4.683 2.72 4.681 7.125-.004 9.84"/>
        <path fill="#24ABFF" d="M211.68 758.666l-1.825-3.155 896.826-516.914 1.823 3.156z"/>
        <path fill="#24ABFF" d="M499.828 806.183L312.672 698.307l1.824-3.158 185.332 106.827 193.436-111.494 1.823 3.155z"/>
        <path fill="#46D598" d="M699.953 688.714c4.093 2.358 4.093 6.183 0 8.544-4.092 2.358-10.732 2.358-14.828 0-4.097-2.36-4.097-6.186 0-8.544 4.096-2.36 10.736-2.36 14.828 0M695.82 478.191c4.092 2.358 4.092 6.184 0 8.542-4.093 2.36-10.733 2.36-14.83 0-4.096-2.358-4.096-6.184 0-8.542 4.097-2.36 10.737-2.36 14.83 0"/>
        <path fill="#24ABFF" d="M971.706 645.033l-.91-.519-281.427-160.109 1.807-3.163 280.518 159.59 45.392-26.162 1.825 3.155z"/>
        <path fill="#46D598" d="M218.19 752.815c4.092 2.36 4.092 6.185 0 8.544-4.093 2.36-10.732 2.36-14.829 0-4.096-2.359-4.096-6.184 0-8.544 4.097-2.358 10.736-2.358 14.829 0M549.633 774.173c4.095 2.358 4.095 6.183 0 8.542-4.093 2.36-10.732 2.36-14.829 0-4.096-2.359-4.096-6.184 0-8.542 4.097-2.36 10.736-2.36 14.829 0M527.454 574.61c4.093 2.36 4.093 6.186 0 8.544-4.092 2.36-10.732 2.36-14.828 0-4.097-2.358-4.097-6.183 0-8.543 4.096-2.359 10.736-2.359 14.828 0M1025.413 611.48c4.092 2.358 4.092 6.183 0 8.543-4.095 2.358-10.734 2.358-14.83 0-4.095-2.36-4.095-6.185 0-8.544 4.096-2.36 10.735-2.36 14.83 0M1115.002 235.898c4.093 2.36 4.093 6.186 0 8.544-4.094 2.36-10.734 2.36-14.83 0-4.095-2.358-4.095-6.183 0-8.544 4.096-2.36 10.736-2.36 14.83 0M1086.096 434.808c-9.89 1.107-14.346 8.27-14.346 8.27l21.568 6.97s6.194-5.311 9.464-2.943c0 0-.957-14.058-16.686-12.297"/>
        <path fill="#B2E1FF" d="M1014.66 500.553c0-32.396 26.308-58.66 58.761-58.66s58.76 26.264 58.76 58.66c0 32.4-26.307 58.663-58.76 58.663s-58.76-26.264-58.76-58.663"/>
        <g>
            <g transform="translate(1014 441)">
                <mask id="b" fill="#fff">
                    <use xlink:href="#a"/>
                </mask>
                <path fill="#20C697" d="M107.167 92.048s-4.91-7.134-4.288-9.153c.62-2.019 1.912-7.961 1.138-9.153-.776-1.196-3.633-3.191-5.94-5.495-2.31-2.305-3.36-5.492-3.36-5.492s-.849-7.704-2.49-8.456c-1.643-.748-4.307-2.207-6.549-2.531-2.243-.324-5.126-7.323-5.126-7.323s4.423-4.24 3.432-5.495c-.986-1.254-4.465-2.55-6.293-1.914-1.83.64-.659 4.132-1.908 4.858-1.248.725-4.649.151-5.606-2.944-.953-3.094-.347-10.547 2.388-10.987 2.736-.438 4.13-2.419 5.132-5.494 1.003-3.075 4.104-.646 4.623-1.828.516-1.185-.004-3.45.643-6.09.647-2.641 1.524-4.497 2.109-6.097.587-1.603-1.491-7.718-1.491-7.718L61.956-12.317l-12.591 5.49L35.51 1.597c-.045 3.578 1.75 3.013 2.38 6.858.631 3.847-3.784 8.907-1.117 8.522 2.668-.38 5.833-.269 6.293 1.83.462 2.1 1.64 8.201 3.148 9.157 1.507.959.03 6.469 1.164 8.482 1.134 2.01 1.656 5.977 1.988 8 .33 2.023 3.052-.041 3.15-3.664.097-3.627-.008-9.155-.008-9.155s3.196 3.64 3.151 5.494c-.042 1.856 3.136 8.623 3.144 10.184.008 1.561 5.963 5.328 8.533 4.46 2.571-.864 8.048-4.061 8.931-2.83.887 1.233 2.592 5.508 6.001 6.494 3.41.986 8.009 3.664 8.013 5.493.004 1.832.27 7.103-1.247 7.324-1.519.222-7.403 6.87-11.338 5.497-3.937-1.375-7.2 5.441-5.132 10.983 2.072 5.546 3.555 7.066 3.812 9.157.26 2.087 4.772 3.478 4.464 7.32-.308 3.844-3.144 13.547-3.144 13.547s11.844 9.822 22.032-.73c10.186-10.552 7.438-21.971 7.438-21.971M14.743 42.61c-.419-2.349 1.885-2.928 5.325-3.66 3.44-.733.969-1.833.97-3.663.003-1.832-.001-5.492-3.15-7.325-3.149-1.83-6.296-10.985-6.296-10.985L-6.02 53.598s7.747 7.759 8.172 5.49c.423-2.266 3.203-5.523 6.29-7.324 3.087-1.8 3.577-2.074 6.294-5.49 2.72-3.416.424-1.313.007-3.663M35.04 81.149c-4.003 3.663-8.229 1.121-8.229 1.121-2.004-3.41-7.118-3.183-9.533-1.777-2.413 1.404-3.356 6.675-1.123 7.977 2.234 1.304 4.94 6.563 6.294 7.325 1.355.762 1.924 1.575 5.23 1.44 3.305-.136 8.193-1.78 8.782-3.269.587-1.492 4.24-8.49 3.099-9.154-1.138-.662-3.38-4.706-4.52-3.663" mask="url(#b)"/>
            </g>
            <g transform="translate(1014 441)">
                <mask id="d" fill="#fff">
                    <use xlink:href="#c"/>
                </mask>
                <path fill="#5844E2" d="M107.167 92.048s-4.91-7.134-4.288-9.153c.62-2.019 1.912-7.961 1.138-9.153-.776-1.196-3.633-3.191-5.94-5.495-2.31-2.305-3.36-5.492-3.36-5.492s-.849-7.704-2.49-8.456c-1.643-.748-4.307-2.207-6.549-2.531-2.243-.324-5.126-7.323-5.126-7.323s4.423-4.24 3.432-5.495c-.986-1.254-4.465-2.55-6.293-1.914-1.83.64-.659 4.132-1.908 4.858-1.248.725-4.649.151-5.606-2.944-.953-3.094-.347-10.547 2.388-10.987 2.736-.438 4.13-2.419 5.132-5.494 1.003-3.075 4.104-.646 4.623-1.828.516-1.185-.004-3.45.643-6.09.647-2.641 1.524-4.497 2.109-6.097.587-1.603-1.491-7.718-1.491-7.718L61.956-12.317l-12.591 5.49L35.51 1.597c-.045 3.578 1.75 3.013 2.38 6.858.631 3.847-3.784 8.907-1.117 8.522 2.668-.38 5.833-.269 6.293 1.83.462 2.1 1.64 8.201 3.148 9.157 1.507.959.03 6.469 1.164 8.482 1.134 2.01 1.656 5.977 1.988 8 .33 2.023 3.052-.041 3.15-3.664.097-3.627-.008-9.155-.008-9.155s3.196 3.64 3.151 5.494c-.042 1.856 3.136 8.623 3.144 10.184.008 1.561 5.963 5.328 8.533 4.46 2.571-.864 8.048-4.061 8.931-2.83.887 1.233 2.592 5.508 6.001 6.494 3.41.986 8.009 3.664 8.013 5.493.004 1.832.27 7.103-1.247 7.324-1.519.222-7.403 6.87-11.338 5.497-3.937-1.375-7.2 5.441-5.132 10.983 2.072 5.546 3.555 7.066 3.812 9.157.26 2.087 4.772 3.478 4.464 7.32-.308 3.844-3.144 13.547-3.144 13.547s11.844 9.822 22.032-.73c10.186-10.552 7.438-21.971 7.438-21.971M14.743 42.61c-.419-2.349 1.885-2.928 5.325-3.66 3.44-.733.969-1.833.97-3.663.003-1.832-.001-5.492-3.15-7.325-3.149-1.83-6.296-10.985-6.296-10.985L-6.02 53.598s7.747 7.759 8.172 5.49c.423-2.266 3.203-5.523 6.29-7.324 3.087-1.8 3.577-2.074 6.294-5.49 2.72-3.416.424-1.313.007-3.663M35.04 81.149c-4.003 3.663-8.229 1.121-8.229 1.121-2.004-3.41-7.118-3.183-9.533-1.777-2.413 1.404-3.356 6.675-1.123 7.977 2.234 1.304 4.94 6.563 6.294 7.325 1.355.762 1.924 1.575 5.23 1.44 3.305-.136 8.193-1.78 8.782-3.269.587-1.492 4.24-8.49 3.099-9.154-1.138-.662-3.38-4.706-4.52-3.663" mask="url(#d)"/>
            </g>
        </g>
        <g>
            <path fill="#46D598" d="M1086.08 433.986s11.881-4.091 25.336 7.325c13.452 11.419 6.332 40.297 6.332 40.297l12.668 7.325-31.678 18.319-6.333-40.298 12.669 7.33s4.461-18.315-3.165-29.31c-5.654-8.147-15.83-10.988-15.83-10.988"/>
            <g transform="translate(1085.896 432.96)">
                <mask id="g" fill="#fff">
                    <use xlink:href="#e"/>
                </mask>
                <path fill="url(#f)" d="M5.644.313c-3.39 0-5.462.713-5.462.713s10.178 2.84 15.832 10.988c7.624 10.995 3.163 29.31 3.163 29.31l-12.668-7.33 6.332 40.298 31.68-18.32-12.668-7.325s7.12-28.877-6.334-40.296C17.681 1.701 10.378.313 5.644.313m0 .782c4.616 0 11.721 1.361 19.371 7.853 12.927 10.971 6.15 39.226 6.081 39.51l-.141.572.506.293 11.501 6.65-29.527 17.075-5.903-37.562 11.255 6.516.902.52.247-1.011c.182-.764 4.455-18.789-3.283-29.942C12.664 5.823 6.591 2.67 3.103 1.239a21.997 21.997 0 0 1 2.54-.144" mask="url(#g)"/>
            </g>
            <path fill="#CAC8FC" d="M618.511 562.429l-44.337 25.642-76.055-44.082 44.34-25.64z"/>
            <path fill="#CAC8FC" d="M542.46 474.394l-.001 43.954-44.34 25.643.003-43.954z"/>
            <path fill="#4C2FD1" d="M574.173 544.113v43.958l-76.053-44.08.002-43.954z"/>
            <path fill="#CAC8FC" d="M618.511 518.473v43.956l-76.053-44.08.002-43.954z"/>
            <path fill="#4C2FD1" d="M618.511 562.429v-43.956l-44.337 25.64v43.958z"/>
            <g transform="translate(574.065 518.324)">
                <mask id="j" fill="#fff">
                    <use xlink:href="#h"/>
                </mask>
                <path fill="url(#i)" d="M44.447.149L.107 25.789v43.958l44.34-25.643V.15zm-.78 1.353v42.153L.887 68.393V26.24L43.666 1.502z" mask="url(#j)"/>
            </g>
            <path fill="#2E1FA0" d="M542.46 474.394l.093-29.312 75.866 44.135.093 29.255z"/>
            <path fill="#2E1FA0" d="M574.173 544.113l6.332-25.64 43.728-25.29-5.723 25.29zM498.122 500.036l-6.334-25.642 44.337-25.64 6.336 25.64z"/>
            <path fill="#CAC8FC" d="M585.175 571.496l-2.512 1.45.002 5.807-2.51 1.453v-5.804l-2.51 1.45 3.765-7.986zM594.752 566.054l-2.512 1.45.002 5.806-2.51 1.454v-5.805l-2.509 1.45 3.764-7.985z"/>
            <path fill="#2E1FA0" d="M498.122 500.036l-15.893-21.979 76.061 44.076 15.883 21.979z"/>
            <g transform="translate(481.896 477.243)">
                <mask id="m" fill="#fff">
                    <use xlink:href="#k"/>
                </mask>
                <path fill="url(#l)" d="M.333.813l15.893 21.981 76.05 44.076-15.882-21.98L.334.814zm2.781 2.513L75.86 45.482l13.64 18.875-72.74-42.156L3.114 3.326z" mask="url(#m)"/>
            </g>
            <path fill="#4E7AEA" d="M617.163 689.226v71.209c0 1.407-.577 2.25-1.373 2.719-.81.483-3.773 2.202-3.773 2.202.016-.032 1.216-2.609 1.216-2.64l-.016-53.933V691.49c0-2.593-1.808-5.732-4.053-7.029l-93.232-53.917c-.031-.017-2.385-.453-2.418-.47 0 0 2.746-1.686 3.697-2.187.686-.374 1.653-.2 2.667.377l93.231 53.933c2.246 1.28 4.054 4.437 4.054 7.028"/>
            <path fill="#4C2FD1" d="M613.233 762.716c0 .031 0 .078-.016.11-.029 2.498-1.839 3.498-4.037 2.231l-93.248-53.932c-2.23-1.297-4.055-4.436-4.055-7.029v-71.209c0-2.56 1.779-3.608 3.961-2.39.032.015.063.03.094.049l93.232 53.917c2.245 1.296 4.053 4.435 4.053 7.028v17.292l.016 53.933z"/>
            <path fill="#CAC8FC" d="M518.217 662.729v11.53c0 .865.606 1.912 1.35 2.342l16.297 9.429c.745.43 1.35.08 1.35-.782v-11.53c0-.865-.605-1.912-1.35-2.344l-16.298-9.427c-.745-.43-1.35-.08-1.35.782M613.218 691.492v17.292l-101.34-58.604v-17.292c0-2.562 1.776-3.609 3.96-2.39.032.015.063.03.095.048l93.231 53.917c2.246 1.297 4.054 4.436 4.054 7.029"/>
            <path fill="#CAC8FC" d="M617.163 689.226v17.276l-3.946 2.28v-17.291c0-2.593-1.808-5.732-4.053-7.029l-93.232-53.917c-.031-.017-2.385-.453-2.418-.47 0 0 2.746-1.686 3.697-2.187.686-.374 1.653-.2 2.667.377l93.231 53.933c2.246 1.28 4.054 4.437 4.054 7.028"/>
            <path fill="#FFF" d="M515.838 630.497s10.23 5.713 25.578 14.281l26.111 14.825 29.847 17.14c2.532 1.474 5.064 2.95 7.586 4.417l3.773 2.198c.333.202.584.322.982.589.3.23.586.365.898.674a9.245 9.245 0 0 1 1.583 1.787c.867 1.281 1.49 2.729 1.674 4.304.12 1.585.026 2.898.05 4.347l-.026 8.376-.23 30.062-.301 21.264-.097 5.958-.025 1.57c.002.353-.024.536-.024.536s.02-.183.008-.536l-.027-1.57-.098-5.958-.314-21.264c-.073-8.8-.155-19.065-.243-30.062l-.028-8.376c-.027-1.379.045-2.92-.064-4.188-.153-1.267-.696-2.542-1.453-3.632a8.125 8.125 0 0 0-1.277-1.453c-.192-.216-.567-.413-.841-.621-.202-.142-.598-.352-.887-.523l-3.787-2.174a21354.3 21354.3 0 0 1-7.61-4.373c-10.125-5.897-20.252-11.792-29.743-17.321-9.466-5.575-18.3-10.777-25.872-15.238-15.087-9.022-25.143-15.039-25.143-15.039"/>
            <path fill="#4C2FD1" d="M360.138 672.05v6.918c0 2.063-.702 3.548-1.824 4.28l-.157.095c-1.216.719-2.9.61-4.771-.468l-75.175-43.469c-3.726-2.157-6.752-7.405-6.752-11.715v-196.85c0-2.062.687-3.532 1.81-4.28l.093-.063c1.231-.75 2.947-.656 4.85.436l5.91 3.422 69.248 40.063c3.728 2.156 6.752 7.403 6.752 11.715l.016 189.916z"/>
            <path fill="#CAC8FC" d="M280.549 450.155l70.6 40.836c1.492.863 2.702 2.96 2.702 4.685l.007 162.254c0 1.725-1.21 2.426-2.7 1.562l-70.607-40.833c-1.493-.862-2.7-2.96-2.7-4.687l-.002-162.256c0-1.726 1.208-2.424 2.7-1.561"/>
        </g>
        <g transform="translate(277 450)">
            <mask id="o" fill="#fff">
                <use xlink:href="#n"/>
            </mask>
            <path stroke="#FFF" stroke-width="1.59" d="M4.357-1.15l70.916 40.8c1.497.864 4.278 2.96 4.278 4.684l.008 162.112c0 1.723-2.78 2.424-4.278 1.56L4.359 167.21c-1.497-.861-2.712-2.96-2.712-4.683L1.645.41c0-1.723 1.215-2.421 2.712-1.56z" mask="url(#o)"/>
        </g>
        <g>
            <path fill="#2E1FA0" d="M302.882 642.993c.002 4.04 2.84 8.951 6.337 10.974 3.498 2.018 6.334.382 6.334-3.66 0-4.039-2.838-8.952-6.337-10.97-3.5-2.022-6.336-.385-6.334 3.656"/>
            <path fill="#FFF" d="M309.22 653.966l1.274.516c.43.045.931.245 1.518.176a3.077 3.077 0 0 0 1.786-.613c.264-.228.559-.444.717-.8l.298-.489.165-.579c.145-.378.188-.798.196-1.233l.047-.624-.064-.694c-.048-.961-.298-1.819-.59-2.729-.303-.912-.748-1.78-1.208-2.638-.514-.827-1.044-1.647-1.683-2.363-.635-.708-1.306-1.389-2.066-1.873l-.55-.392-.584-.283c-.404-.22-.8-.394-1.18-.451l-.57-.143-.571.014c-.39-.044-.724.107-1.053.22-.64.264-1.116.743-1.424 1.239-.35.472-.433 1.018-.605 1.41l-.19 1.355.06-1.38c.135-.412.169-.983.492-1.524.27-.563.757-1.162 1.487-1.499.37-.155.756-.34 1.194-.322.215-.015.435-.031.656-.045l.671.126c.478.06.896.225 1.298.418l.653.29.596.404c.827.512 1.545 1.218 2.231 1.953.687.744 1.26 1.591 1.812 2.456.47.91.92 1.83 1.222 2.797.296.955.55 1.993.576 2.907l.051.692c-.014.292-.047.492-.075.738-.035.47-.107.923-.29 1.347l-.221.63-.369.547c-.204.388-.557.631-.876.875-.657.46-1.418.582-2.04.537-.629.01-1.148-.25-1.57-.34l-1.222-.633"/>
            <path fill="#2E1FA0" d="M296.551 449.143c0 2.02 1.512 4.533 3.377 5.608l18.574 10.728c1.864 1.077 3.376.312 3.376-1.708s-1.512-4.53-3.376-5.606l-18.574-10.73c-1.865-1.079-3.377-.312-3.377 1.708"/>
            <path fill="#CAC8FC" d="M328.214 467.432c0 2.02 1.422 4.477 3.169 5.487 1.748 1.01 3.164.19 3.162-1.831 0-2.02-1.42-4.478-3.168-5.488-1.75-1.009-3.165-.19-3.163 1.832"/>
            <path fill="#46D598" d="M283.88 610.611v-23.02c0-1.722 1.21-2.423 2.7-1.56l57.937 33.46c1.492.862 2.7 2.955 2.7 4.68v23.016c0 1.724-1.208 2.422-2.7 1.56l-57.938-33.456c-1.49-.863-2.7-2.956-2.7-4.68"/>
            <path stroke="#000" stroke-width=".93" d="M273.03 427.062l.093-.063"/>
            <path fill="#CAC8FC" d="M372.53 475.158c0-4.303-3.024-9.544-6.751-11.695l-75.147-43.404c-1.965-1.14-3.743-1.186-4.975-.343L273.123 427c1.23-.75 2.946-.655 4.848.437l5.91 3.415 69.24 40.004c3.724 2.152 6.748 7.392 6.748 11.697l.016 189.627v6.912c0 2.056-.702 3.538-1.824 4.272l12.535-7.314c1.2-.734 1.949-2.232 1.949-4.352l-.016-196.539z"/>
            <path fill="#FFF" d="M283.88 430.851s9.576 5.396 23.94 13.493c7.17 4.07 15.532 8.818 24.494 13.908 4.476 2.55 9.102 5.183 13.804 7.863l7.095 4.044c2.547 1.418 4.426 3.754 5.73 6.272.639 1.28 1.131 2.638 1.402 4.064.143.706.2 1.45.21 2.168l.01 2.055.038 8.171.026 15.89c-.065 10.306-.037 19.927-.194 28.172-.092 8.246-.22 15.119-.363 19.928-.12 4.809-.186 7.557-.186 7.557l-.19-7.557c-.146-4.81-.275-11.682-.371-19.928-.159-8.245-.135-17.866-.204-28.173.006-5.152.012-10.477.02-15.889l.035-8.17.01-2.056a10.353 10.353 0 0 0-.179-1.92c-.237-1.277-.68-2.529-1.264-3.707-1.196-2.34-2.926-4.47-5.179-5.751-2.362-1.385-4.715-2.762-7.048-4.129l-13.708-8.03-24.281-14.274-23.647-14"/>
            <path stroke="#000" stroke-width=".93" d="M357.905 683.455l.157-.092"/>
            <text fill="#FFF" font-family="BebasNeueBold, Bebas Neue" font-size="4.033" font-weight="bold" transform="translate(272 419)">
                <tspan x="18.352" y="187.202">BUY NOW</tspan>
            </text>
        </g>
        <g transform="translate(333 630)">
            <mask id="r" fill="#fff">
                <use xlink:href="#p"/>
            </mask>
            <path fill="url(#q)" d="M.442 19.662l5.699 3.146 14.28-13.653v-8.6z" mask="url(#r)"/>
        </g>
        <g transform="translate(276 606)">
            <mask id="u" fill="#fff">
                <use xlink:href="#s"/>
            </mask>
            <path fill="url(#t)" d="M1.9 7.739V.816 7.74z" mask="url(#u)"/>
        </g>
        <g transform="translate(352 530)">
            <mask id="x" fill="#fff">
                <use xlink:href="#v"/>
            </mask>
            <path fill="url(#w)" d="M1.412 7.312V.232v7.08z" mask="url(#x)"/>
        </g>
        <g>
            <path fill="#F3F3FF" d="M660.617 646.538l45.236-26.168c1.49-.864 3.906-.864 5.397 0l108.549 62.773c1.489.861 1.489 2.26 0 3.121l-45.25 26.165c-1.49.861-3.906.861-5.397 0l-108.535-62.77c-1.49-.861-1.49-2.261 0-3.12"/>
            <path fill="#4C2FD1" d="M660.617 639.685l45.236-26.167c1.49-.864 3.906-.864 5.397-.002l108.549 62.773c1.489.864 1.489 2.261 0 3.123l-45.25 26.165c-1.49.862-3.906.862-5.397 0l-108.535-62.77c-1.49-.863-1.49-2.26 0-3.122"/>
            <path fill="#CAC8FC" d="M708.55 619.277l101.282 58.578-37.98 21.961-101.28-58.574z"/>
            <path fill="#07A389" d="M702.23 615.62c-3.497 2.023-3.5 5.301-.003 7.323 3.496 2.02 9.164 2.02 12.658 0 3.494-2.022 3.496-5.3.002-7.322-3.492-2.022-9.158-2.022-12.656 0M727.541 652.228c-6.992 4.044-6.992 10.599 0 14.643 6.991 4.046 18.328 4.044 25.32 0 6.991-4.046 6.991-10.6 0-14.643-6.99-4.044-18.327-4.044-25.32 0M765.135 683.617l-2.62 1.514-3.06-1.77 2.62-1.513c-1.757-1.419-2.602-3.333-.056-5.438l5.135 1.585c-.812.624-1.478 1.737.137 2.668 1.01.585 2.168.706 3.206.106 1.676-.968.022-2.036-1.315-3.54-1.409-1.616-2.24-3.412 1.202-5.402 3.092-1.789 6.5-1.861 9.565-.601l2.62-1.516 3.09 1.785-2.621 1.515c1.962 1.647 2.009 3.39.214 5.09l-4.912-1.487c.947-.77.906-1.632-.46-2.42-1.282-.745-2.413-.63-3.2-.174-1.296.748-.622 1.467.856 3.014 1.523 1.647 3.426 3.771-.488 6.036-3.16 1.824-6.789 1.808-9.913.548"/>
            <path fill="#4C2FD1" d="M769.152 698.24l-108.534-62.768c-1.492-.862-1.492-2.26 0-3.122l45.233-26.17c1.49-.862 3.908-.862 5.4 0l108.548 62.775c1.49.862 1.49 2.258 0 3.121l-45.25 26.165"/>
            <path fill="#CAC8FC" d="M708.55 611.942l101.282 58.578-37.98 21.96-101.28-58.575z"/>
            <path fill="#0AAB91" d="M702.23 608.286c-3.497 2.022-3.5 5.3-.003 7.32 3.496 2.022 9.164 2.022 12.658 0 3.494-2.02 3.496-5.298.002-7.32-3.492-2.022-9.158-2.022-12.656 0M727.541 644.893c-6.992 4.044-6.992 10.597 0 14.643 6.991 4.044 18.328 4.044 25.32-.002 6.991-4.044 6.991-10.599 0-14.643-6.99-4.044-18.327-4.044-25.32.002M765.135 676.282l-2.62 1.514-3.06-1.769 2.62-1.515c-1.757-1.418-2.602-3.332-.056-5.436l5.135 1.582c-.812.626-1.478 1.74.137 2.67 1.01.585 2.168.705 3.206.104 1.676-.966.014-2.028-1.315-3.538-1.417-1.61-2.24-3.412 1.202-5.402 3.092-1.79 6.5-1.863 9.565-.601l2.62-1.516 3.09 1.785-2.621 1.516c1.962 1.647 2.009 3.388.214 5.09l-4.912-1.488c.947-.77.906-1.632-.46-2.423-1.282-.742-2.413-.626-3.2-.172-1.296.75-.608 1.456.856 3.015 1.536 1.635 3.426 3.771-.488 6.035-3.16 1.825-6.789 1.808-9.913.55"/>
            <path fill="#17D5B9" d="M708.402 634.631l-.437.251-.51-.294.437-.251c-.293-.238-.433-.558-.01-.907l.857.263c-.135.104-.247.29.024.445.166.098.36.118.533.018.28-.161.002-.338-.22-.59-.235-.27-.372-.568.2-.9a1.78 1.78 0 0 1 1.595-.102l.437-.251.514.298-.437.251c.327.275.335.566.037.848l-.82-.247c.16-.128.152-.27-.076-.404-.213-.122-.401-.104-.533-.028-.215.124-.102.244.143.5.255.274.57.63-.082 1.008-.525.304-1.13.3-1.652.092"/>
            <path fill="#4C2FD1" d="M660.617 625.015l45.236-26.169c1.49-.864 3.906-.864 5.397 0l108.549 62.773c1.489.862 1.489 2.26 0 3.121l-45.25 26.165c-1.49.862-3.906.862-5.397 0l-108.535-62.769c-1.49-.862-1.49-2.261 0-3.121"/>
            <path fill="#CAC8FC" d="M708.55 604.607l101.282 58.576-37.98 21.961-101.28-58.574z"/>
            <path fill="#0CB499" d="M702.23 600.95c-3.497 2.021-3.5 5.3-.003 7.32 3.496 2.022 9.164 2.022 12.658 0 3.494-2.02 3.496-5.299.002-7.32-3.492-2.023-9.158-2.023-12.656 0M727.541 637.556c-6.992 4.045-6.992 10.6 0 14.643 6.991 4.046 18.328 4.046 25.32 0 6.991-4.046 6.991-10.598 0-14.643-6.99-4.044-18.327-4.044-25.32 0M765.135 668.945l-2.62 1.516-3.06-1.77 2.62-1.514c-1.757-1.418-2.602-3.332-.056-5.436l5.135 1.582c-.812.626-1.478 1.737.137 2.668 1.01.587 2.168.707 3.206.106 1.676-.968.014-2.028-1.315-3.538-1.417-1.61-2.24-3.413 1.202-5.404 3.092-1.788 6.5-1.861 9.565-.6l2.62-1.516 3.09 1.784-2.621 1.518c1.962 1.645 2.009 3.388.214 5.088l-4.912-1.488c.947-.768.906-1.63-.46-2.42-1.282-.743-2.413-.629-3.2-.173-1.296.748-.608 1.454.856 3.013 1.536 1.635 3.426 3.771-.488 6.037-3.16 1.825-6.789 1.808-9.913.547"/>
            <path fill="#17D5B9" d="M707.166 628.327l-.874.505-1.02-.589.873-.506c-.586-.472-.866-1.11-.018-1.812l1.711.528c-.27.208-.492.579.045.889.34.196.723.236 1.07.037.559-.324.004-.677-.439-1.182-.472-.535-.747-1.136.4-1.8 1.03-.597 2.167-.62 3.19-.2l.873-.505 1.028.593-.874.507c.655.55.673 1.129.075 1.696l-1.639-.495c.316-.257.302-.545-.154-.809-.428-.247-.804-.208-1.066-.056-.432.249-.202.484.286 1.005.511.543 1.142 1.256-.163 2.012-1.054.608-2.264.603-3.304.182"/>
            <path fill="#4C2FD1" d="M769.152 683.57L660.618 620.8c-1.492-.862-1.492-2.26 0-3.121l45.233-26.17c1.49-.86 3.908-.862 5.4 0l108.548 62.774c1.49.862 1.49 2.26 0 3.122l-45.25 26.164"/>
            <path fill="#CAC8FC" d="M708.55 597.27l101.282 58.578-37.98 21.961-101.28-58.575z"/>
            <path fill="#0FBCA1" d="M816.163 652.188c-3.493-2.022-9.16-2.022-12.659 0-3.496 2.022-3.498 5.3-.002 7.32M702.23 593.614c-3.497 2.022-3.5 5.3-.003 7.32 3.496 2.023 9.164 2.023 12.658 0 3.494-2.02 3.496-5.298.002-7.32-3.492-2.022-9.158-2.022-12.656 0M727.541 630.222c-6.992 4.044-6.992 10.599 0 14.643 6.991 4.044 18.328 4.044 25.32 0 6.991-4.046 6.991-10.601 0-14.645-6.99-4.044-18.327-4.042-25.32.002M765.135 661.61l-2.62 1.514-3.06-1.769 2.62-1.513c-1.757-1.42-2.602-3.334-.056-5.438l5.135 1.582c-.812.626-1.478 1.74.137 2.67 1.01.585 2.168.707 3.206.106 1.676-.968.014-2.028-1.315-3.54-1.417-1.61-2.24-3.411 1.202-5.402 3.092-1.788 6.5-1.863 9.565-.6l2.62-1.516 3.09 1.784-2.621 1.516c1.962 1.647 2.009 3.39.214 5.09l-4.912-1.488c.947-.77.906-1.631-.46-2.422-1.282-.743-2.413-.627-3.2-.171-1.296.748-.608 1.454.856 3.013 1.536 1.635 3.426 3.771-.488 6.037-3.16 1.824-6.789 1.808-9.913.547"/>
            <path fill="#17D5B9" d="M705.928 622.024l-1.309.758-1.53-.884 1.309-.757c-.878-.711-1.3-1.667-.028-2.72l2.568.79c-.406.316-.74.872.068 1.337.506.29 1.084.353 1.603.05.837-.482.008-1.012-.656-1.768-.71-.805-1.121-1.706.6-2.701 1.546-.893 3.25-.93 4.781-.3l1.312-.758 1.544.893-1.311.758c.982.822 1.005 1.694.11 2.546l-2.458-.746c.472-.383.453-.815-.231-1.21-.641-.372-1.204-.316-1.6-.086-.648.373-.303.727.43 1.506.766.818 1.71 1.886-.245 3.017-1.58.913-3.395.905-4.957.275"/>
            <path fill="#4C2FD1" d="M660.618 613.466c-1.491-.862-1.491-2.26 0-3.123l45.234-26.169c1.49-.862 3.908-.862 5.397 0l108.55 62.775c1.488.86 1.488 2.258 0 3.121l-45.249 26.165c-1.491.862-3.906.862-5.397 0"/>
            <path fill="#CAC8FC" d="M708.55 589.935l101.282 58.578-37.98 21.96-101.28-58.574z"/>
            <path fill="#12C4A9" d="M702.23 586.277c-3.497 2.022-3.5 5.3-.003 7.323 3.496 2.022 9.164 2.022 12.658 0 3.494-2.022 3.496-5.3.002-7.323-3.492-2.022-9.158-2.022-12.656 0M727.541 622.885c-6.992 4.046-6.992 10.599 0 14.645 6.991 4.044 18.328 4.044 25.32-.002 6.991-4.044 6.991-10.6 0-14.643-6.99-4.044-18.327-4.044-25.32 0M765.135 654.276l-2.62 1.513-3.06-1.769 2.62-1.515c-1.757-1.417-2.602-3.332-.056-5.436l5.135 1.582c-.812.627-1.478 1.74.137 2.668 1.01.587 2.168.707 3.206.106 1.676-.968.014-2.028-1.315-3.537-1.417-1.61-2.24-3.414 1.202-5.403 3.092-1.79 6.5-1.863 9.565-.6l2.62-1.518 3.09 1.784-2.621 1.518c1.962 1.647 2.009 3.388.214 5.09l-4.912-1.488c.947-.77.906-1.631-.46-2.422-1.282-.742-2.413-.628-3.2-.173-1.296.75-.608 1.457.856 3.015 1.536 1.636 3.426 3.77-.488 6.035-3.16 1.826-6.789 1.808-9.913.55"/>
            <path fill="#17D5B9" d="M704.692 615.72l-1.748 1.012-2.04-1.18 1.748-1.011c-1.172-.944-1.735-2.219-.037-3.622l3.423 1.054c-.54.418-.983 1.158.09 1.779.675.39 1.445.47 2.139.07 1.117-.646.01-1.352-.878-2.36-.943-1.073-1.492-2.275.801-3.6 2.062-1.193 4.335-1.242 6.377-.402l1.748-1.011 2.058 1.191-1.748 1.01c1.31 1.099 1.34 2.261.145 3.396l-3.275-.994c.63-.514.604-1.09-.307-1.613-.857-.495-1.607-.419-2.135-.116-.862.498-.403.97.573 2.01 1.023 1.088 2.283 2.513-.326 4.022-2.106 1.22-4.527 1.206-6.608.366"/>
            <path fill="#4C2FD1" d="M660.617 603.008l45.236-26.168c1.49-.864 3.906-.864 5.397-.002l108.549 62.775c1.489.861 1.489 2.26 0 3.121l-45.25 26.165c-1.49.863-3.906.861-5.397 0l-108.535-62.77c-1.49-.861-1.49-2.26 0-3.12"/>
            <path fill="#CAC8FC" d="M708.55 582.599l101.282 58.577-37.98 21.962-101.28-58.574z"/>
            <path fill="#14CDB1" d="M702.23 578.943c-3.497 2.022-3.5 5.3-.003 7.32 3.496 2.022 9.164 2.022 12.658 0 3.494-2.02 3.496-5.298.002-7.32-3.492-2.022-9.158-2.022-12.656 0M727.541 615.55c-6.992 4.044-6.992 10.599 0 14.643 6.991 4.046 18.328 4.044 25.32 0 6.991-4.046 6.991-10.601 0-14.643-6.99-4.044-18.327-4.044-25.32 0M765.135 646.939l-2.62 1.515-3.06-1.77 2.62-1.514c-1.757-1.42-2.602-3.331-.056-5.438l5.135 1.584c-.812.627-1.478 1.738.137 2.668 1.01.585 2.168.707 3.206.106 1.676-.967.014-2.028-1.315-3.54-1.417-1.609-2.24-3.411 1.202-5.402 3.092-1.788 6.5-1.86 9.565-.6l2.62-1.516 3.09 1.785-2.621 1.515c1.962 1.647 2.009 3.39.214 5.09l-4.912-1.488c.947-.767.906-1.629-.46-2.42-1.282-.742-2.413-.628-3.2-.173-1.296.748-.608 1.455.856 3.014 1.536 1.635 3.426 3.77-.488 6.036-3.16 1.824-6.789 1.808-9.913.548"/>
            <path fill="#17D5B9" d="M703.456 609.419l-2.183 1.262-2.552-1.474 2.183-1.264c-1.464-1.182-2.167-2.774-.045-4.53l4.278 1.318c-.676.524-1.23 1.45.114 2.226.843.487 1.805.59 2.673.087 1.395-.807.01-1.689-1.095-2.949-1.182-1.343-1.868-2.843.999-4.501 2.58-1.492 5.419-1.553 7.972-.503l2.184-1.26 2.573 1.486-2.183 1.262c1.634 1.372 1.673 2.827.18 4.242l-4.094-1.24c.788-.64.754-1.359-.386-2.016-1.068-.619-2.007-.525-2.665-.144-1.08.623-.508 1.211.713 2.511 1.28 1.362 2.855 3.143-.408 5.03-2.63 1.521-5.656 1.505-8.258.457"/>
            <path fill="#4C2FD1" d="M660.617 595.671l45.236-26.168c1.49-.862 3.906-.864 5.397 0l108.549 62.773c1.489.864 1.489 2.261 0 3.121l-45.25 26.165c-1.49.864-3.906.864-5.397 0l-108.535-62.767c-1.49-.864-1.49-2.262 0-3.124"/>
            <path fill="#CAC8FC" d="M708.55 575.264l101.282 58.577-37.98 21.96-101.28-58.574z"/>
            <path fill="#F3F3FF" d="M247.223 739.38c9.307 5.383 22.51 6.477 29.489 2.438 6.98-4.034 5.093-11.672-4.216-17.055-9.309-5.383-22.512-6.476-29.49-2.438-6.978 4.036-5.09 11.672 4.217 17.055"/>
            <path fill="#4C2FD1" d="M243.037 726.605c.014 2.68-.76 3.062 2.256 4.161.576.213 11.588-5.031 13.922-6.4 2.334-1.368-2.255-2.03-4.533-1.776-3.5.389-11.645 4.015-11.645 4.015M261.301 734.84c.012 2.68-.76 3.063 2.256 4.162.576.212 11.588-5.031 13.922-6.4 2.334-1.368-2.256-2.03-4.533-1.776-3.5.389-11.645 4.015-11.645 4.015"/>
            <path fill="#EBEBFF" d="M240.374 642.062s-.59 7.38-.9 11.301c-.311 3.92 4.626 18.9 5.923 18.305 1.3-.595.002-29.284.002-29.284l-5.025-.322z"/>
            <path fill="#1F1984" d="M244.064 666.177l-1.05 61.332s5.567 1.306 7.057-2.322c.862-2.097 1.734-15.69 2.665-27.31.682-8.494 1.101-17.057 2.156-16.397 1.38-.222 1.932 1.898 3.167 18.47 1.142 15.362 3.163 35.123 3.163 35.123s4.396 1.885 7.198-.52l-.008-66.676-24.348-1.7z"/>
            <path fill="#4C2FD1" d="M247.734 625.908s-6.028-.214-7.228 6.323c-1.191 6.49-1.444 12.68-1.444 12.68s6.336 2.715 7.373 0c1.04-2.717 1.299-19.003 1.299-19.003"/>
            <path fill="#4C2FD1" d="M255.82 626.079c3.781 1.038 10.893 3.331 11.77 12.126.97 9.7.822 29.673.822 29.673s-16.233 6.74-24.348-1.7c-2.814-33.53-1.6-38.892 3.67-40.27 4.389-1.147 8.087.17 8.087.17"/>
            <path fill="#E88867" d="M269.452 612.665s.878 3.643.814 4.684c-.067 1.04-1.494 1.562-1.494 1.562l.68-6.246z"/>
            <path fill="#EBEBFF" d="M269.259 609.87c.778 6.843-.835 11.022-2.354 13.268-.986 1.457-4.107 2.285-6.218 1.718-1.727-.463-1.691.189-1.7 4.117-.103 1.129-6.835 1.47-7.337-2.032-.149-1.029.177-2.458.073-4.694-.25-5.328.074-12.786 1.9-15.518 1.888-2.825 14.3-8.597 15.636 3.14M261.113 634.449l34.504-19.321s7.455-5.012 8.427-3.724c.784 1.038-.083 1.731-2.156 3.115-2.074 1.386-2.97 1.84-2.797 2.912.173 1.073 2.364 3.321-.466 6.003-1.305 1.238-3.393 2.236-4.774 2.289-1.384.05-2.076-.036-3.89.915-1.815.954-18.928 11.882-18.928 11.882l-9.92-4.071z"/>
            <path fill="#4C2FD1" d="M271.477 628.46s-7.06 3.323-9.562 4.833c-4.278 2.58-3.63 14.074 3.328 11.143 6.957-2.931 8.705-4.402 8.705-4.402s2.283-6.994-2.47-11.574"/>
            <path fill="#1F1984" d="M258.052 625.439c-1.681 1.625-5.857.916-7.25-.827-2.743-3.426-2.96-13.57-2.045-17.474 1.25-5.334 6.71-8.047 15.625-6.396 6.323 1.172 3.957 5.635 3.957 5.635s-2.326-1.524-3.659 2.126c-.435 1.193.292 2.69-2.044 4.71-2.338 2.023-1.029 4.01-1.954 4.04-1.38.044-.997-3.646-3.337-3.026-1.623.432-1.878 4.423.076 5.089 1.198.408 1.94-.063 1.94-.063s-.397 5.306-1.309 6.186"/>
            <path fill="#082A42" d="M849.65 404.938c0 10.108-7.085 22.4-15.826 27.456-8.739 5.055-15.823.958-15.823-9.152s7.084-22.401 15.823-27.456c8.74-5.055 15.825-.956 15.825 9.152"/>
            <path fill="#082A42" d="M854.884 400.404l-9.927-5.76s-4.976 2.662-2.065 5.76c2.91 3.097 11.992 0 11.992 0M822.513 433.427l9.505 5.497s.858-9.677-9.505-5.497M950.875 345.34c0 10.107-7.085 22.4-15.825 27.456-8.739 5.055-15.824.958-15.824-9.153 0-10.11 7.085-22.4 15.824-27.456 8.74-5.055 15.825-.956 15.825 9.152"/>
            <path fill="#082A42" d="M956.11 340.805l-9.927-5.76s-4.976 2.662-2.066 5.76 11.992 0 11.992 0M923.738 373.829l9.505 5.496s.859-9.676-9.505-5.496"/>
            <path fill="#5844E2" d="M778.385 454.246L689.773 403l-.01-103.3a36.71 36.71 0 0 1 18.295-31.767l90.568-52.46a51.824 51.824 0 0 1 51.932-.018l72.142 41.724-125.287 68.937-19.028 128.13z"/>
            <path fill="#4C2FD1" d="M968.3 306.786v37.635l-9.504 5.495c0-10.116-7.09-14.205-15.834-9.162-8.742 5.057-15.815 17.358-15.815 27.456v.016l-69.612 40.258c-.405-9.443-7.323-13.128-15.801-8.241-8.46 4.902-15.38 16.592-15.802 26.504v.016l-47.543 27.49v-103.29c0-13.097 6.981-25.211 18.309-31.766l101.962-58.974c12.67-7.837 18.996-7.305 28.487.015 9.49 7.32 25.322 31.11 25.322 31.11l10.38 6.01a10.98 10.98 0 0 1 3.988 3.98 10.68 10.68 0 0 1 1.448 5.089c.016.125.016.235.016.36"/>
            <g transform="translate(777.837 254.048)">
                <mask id="A" fill="#fff">
                    <use xlink:href="#y"/>
                </mask>
                <path fill="url(#z)" d="M136.023.495c-4.288 0-8.98 1.832-15.2 5.68L18.863 65.149A36.703 36.703 0 0 0 .553 96.914v103.288l47.544-27.487v-.016c.42-9.912 7.34-21.604 15.8-26.504 2.541-1.465 4.942-2.16 7.07-2.16 4.973 0 8.45 3.789 8.733 10.4l69.61-40.257v-.016c0-10.1 7.073-22.399 15.815-27.456 2.54-1.466 4.94-2.16 7.067-2.16 5.196 0 8.767 4.145 8.767 11.322l9.505-5.495V52.738c0-.126 0-.234-.016-.36A10.68 10.68 0 0 0 189 47.29a10.98 10.98 0 0 0-3.989-3.98l-10.379-6.01S158.8 13.51 149.31 6.188c-4.83-3.726-8.843-5.693-13.287-5.693m.002 1.561c3.815 0 7.39 1.557 12.334 5.37 9.176 7.08 24.821 30.504 24.978 30.74l.2.304.315.183 10.381 6.01a9.416 9.416 0 0 1 3.418 3.41 9.137 9.137 0 0 1 1.239 4.345l.002.077.01.074c.007.06.003.11.003.17v36.733l-6.55 3.785c-.809-6.321-4.618-10.271-10.163-10.271-2.48 0-5.119.795-7.845 2.367-8.89 5.144-16.17 17.488-16.577 27.914l-66.782 38.62c-1.037-5.794-4.792-9.412-10.02-9.412-2.482 0-5.123.797-7.851 2.367-8.592 4.977-15.704 16.624-16.523 26.938L2.11 197.5V96.915c0-12.503 6.717-24.156 17.53-30.414L121.643 7.502c6.087-3.766 10.524-5.446 14.383-5.446" mask="url(#A)"/>
            </g>
            <path fill="#0F3858" d="M957.296 309.548c-.569 0-1.158-.173-1.75-.515l-4.096-2.37c-1.823-1.051-3.248-3.525-3.248-5.628l.006-15.72c0-1.78 1.064-3.023 2.587-3.023.57 0 1.158.172 1.75.516l4.092 2.365c1.82 1.053 3.244 3.524 3.244 5.63v15.721c0 1.78-1.064 3.024-2.585 3.024"/>
            <path fill="#CAC8FC" d="M952 283.753l4.092 2.367c1.492.862 2.699 2.959 2.699 4.682v15.723c0 1.724-1.207 2.423-2.699 1.56l-4.1-2.369c-1.491-.86-2.698-2.956-2.698-4.682l.006-15.72c0-1.724 1.209-2.423 2.7-1.561"/>
            <path fill="#2E1FA0" d="M942.96 293.168l-31.636 18.31v-43.925l3.446-1.998c2.822-1.64 6.422-1.063 8.57 1.39l19.62 26.223z"/>
            <path fill="#CAC8FC" d="M898.661 274.87v102.499"/>
            <path fill="#0F3858" d="M911.321 318.8c0 1.628 1.758 2.645 3.165 1.83l5.272-3.049a2.111 2.111 0 0 0 1.054-1.83v-2.443l-9.49 5.493z"/>
            <path fill="#2E1FA0" d="M960.373 350.83c0 10.101-7.09 22.402-15.833 27.459-8.74 5.057-15.815.952-15.815-9.148v-.016c0-10.098 7.074-22.4 15.815-27.456 8.743-5.041 15.833-.952 15.833 9.162M859.15 410.43c0 10.1-7.089 22.4-15.831 27.456-8.743 5.06-15.818.954-15.818-9.146v-.016c0-.312 0-.624.014-.936v-.016c.421-9.911 7.341-21.604 15.804-26.506 8.476-4.886 15.394-1.201 15.8 8.243.03.297.03.609.03.921"/>
            <path fill="#CAC8FC" d="M773.522 444.113l-91.789-53.085c-2.056-1.188-2.056-4.158-.002-5.346l8.033-4.652v7.322l88.628 51.255 6.33-3.665 6.328 3.665-7.788 4.506a9.724 9.724 0 0 1-9.74 0"/>
            <path fill="#CAC8FC" d="M791.05 439.608l.005 14.639-7.745 4.695a9.691 9.691 0 0 1-9.903.089l-91.103-52.973a4.255 4.255 0 0 1-2.116-3.681v-14.025a3.096 3.096 0 0 0 1.544 2.676l91.804 53.095a9.698 9.698 0 0 0 9.711 0l7.804-4.515z"/>
            <path fill="#4C2FD1" d="M654.76 372.023V269.524l20.839 12.052a34.352 34.352 0 0 1 17.142 29.741v82.675l-37.98-21.97z"/>
            <g transform="translate(654.37 268.857)">
                <mask id="D" fill="#fff">
                    <use xlink:href="#B"/>
                </mask>
                <path fill="url(#C)" d="M.39.667v102.5l37.98 21.969.002-82.676A34.356 34.356 0 0 0 21.23 12.72L.39.666zm.78 1.351l19.67 11.376C31.174 19.37 37.592 30.507 37.592 42.46v81.323L1.17 102.715V2.018z" mask="url(#D)"/>
            </g>
            <path fill="#2E1FA0" d="M661.083 280.501v36.609l25.318 14.643.006-22.182a24.988 24.988 0 0 0-12.468-21.637l-12.856-7.433z"/>
            <g>
                <g transform="translate(680.912 294.378)">
                    <mask id="G" fill="#fff">
                        <use xlink:href="#E"/>
                    </mask>
                    <path fill="url(#F)" d="M1.619 1.836c-.235-.373-.482-.74-.737-1.102" mask="url(#G)"/>
                </g>
                <g transform="translate(660.25 314.905)">
                    <mask id="J" fill="#fff">
                        <use xlink:href="#H"/>
                    </mask>
                    <path fill="url(#I)" d="M.833.953v1.252l.372.214" mask="url(#J)"/>
                </g>
            </g>
            <path fill="#15496B" d="M772.043 353.266v82.669l-37.975-21.964-37.963-21.961v-7.323l-.014-60.315c0-18.965 8.507-29.533 18.996-23.618 5.235 2.966 9.99 5.636 13.433 7.587 3.427 1.936 5.561 3.138 5.561 3.138l20.821 12.051a34.366 34.366 0 0 1 15.21 18.357 34.475 34.475 0 0 1 1.93 11.379"/>
            <path fill="#CAC8FC" d="M692.741 393.992l3.361-1.979-.008-82.679c0-12.266-6.532-23.6-17.134-29.735l-20.839-12.056-3.36 1.98 20.816 12.019a34.352 34.352 0 0 1 17.164 29.753v82.697zM727.744 300.491l25.32 14.643a12.676 12.676 0 0 0-6.323-10.981l-12.667-7.323c-2.814-1.627-6.33.406-6.33 3.661"/>
            <path fill="#0F3858" d="M772.043 353.266v82.669l-37.975-21.964-37.963-21.961v-7.323l74.007-42.8a34.475 34.475 0 0 1 1.93 11.379"/>
            <path fill="#151072" d="M772.043 353.266v82.669l-37.975-21.964-37.963-21.961v-7.323l-.014-60.315c0-18.965 8.507-29.533 18.996-23.618 5.235 2.966 9.99 5.636 13.433 7.587 3.427 1.936 5.561 3.138 5.561 3.138l20.821 12.051a34.366 34.366 0 0 1 15.21 18.357 34.475 34.475 0 0 1 1.93 11.379"/>
        </g>
        <g>
            <g transform="translate(696 299)">
                <mask id="L" fill="#fff">
                    <use xlink:href="#K"/>
                </mask>
                <path fill="#2E1FA0" d="M21.452 83.934V47.457l38.174 21.885v36.485z" mask="url(#L)"/>
            </g>
            <g transform="translate(716.772 345.95)">
                <mask id="O" fill="#fff">
                    <use xlink:href="#M"/>
                </mask>
                <path fill="url(#N)" d="M.68.507v36.477l38.174 21.892V22.392L.68.507zm.784 1.348L38.072 22.84v34.69L1.464 36.534V1.854z" mask="url(#O)"/>
            </g>
            <g transform="translate(696 299)">
                <mask id="Q" fill="#fff">
                    <use xlink:href="#P"/>
                </mask>
                <path fill="#4C2FD1" d="M21.452 47.458L65.98 21.917l38.184 21.895-44.537 25.531z" mask="url(#Q)"/>
            </g>
            <g transform="translate(696 299)">
                <mask id="S" fill="#fff">
                    <use xlink:href="#R"/>
                </mask>
                <path fill="#4C2FD1" d="M59.626 69.342v36.485l44.527-25.536.01-36.478z" mask="url(#S)"/>
            </g>
            <g transform="translate(755.093 357.688)">
                <mask id="V" fill="#fff">
                    <use xlink:href="#T"/>
                </mask>
                <path fill="url(#U)" d="M45.07-14.876L.532 10.654v36.485L45.06 21.603l.008-36.479zm-.783 1.346l-.01 34.683-42.96 24.64V11.102l42.97-24.632z" mask="url(#V)"/>
            </g>
            <g transform="translate(696 299)">
                <mask id="X" fill="#fff">
                    <use xlink:href="#W"/>
                </mask>
                <path fill="#CAC8FC" d="M35.55 55.545v7.293l2.309-1.315v2.643l2.665-1.324v2.852l2.54-1.496v-4.341z" mask="url(#X)"/>
            </g>
            <g transform="translate(696 299)">
                <mask id="Z" fill="#fff">
                    <use xlink:href="#Y"/>
                </mask>
                <path fill="#CAC8FC" d="M35.55 55.543l44.533-25.541 7.518 4.311-44.536 25.542z" mask="url(#Z)"/>
            </g>
            <g transform="translate(696 299)">
                <mask id="ab" fill="#fff">
                    <use xlink:href="#aa"/>
                </mask>
                <path fill="#0F3142" d="M68.41 92.712l-1.87 1.07.002 4.283-1.868 1.072v-4.283l-1.867 1.07 2.801-5.888z" mask="url(#ab)"/>
            </g>
            <g transform="translate(696 299)">
                <mask id="ad" fill="#fff">
                    <use xlink:href="#ac"/>
                </mask>
                <path fill="#0F3142" d="M75.532 88.698l-1.867 1.07.002 4.283-1.87 1.072V90.84l-1.865 1.07 2.8-5.889z" mask="url(#ad)"/>
            </g>
        </g>
        <g>
            <path fill="#4C2FD1" d="M788.505 347.3c-10.439-5.93-18.895 4.657-18.895 23.646l.006 67.72L807.4 460.66V358.035l-18.895-10.736"/>
            <g transform="translate(769 344.965)">
                <mask id="ag" fill="#fff">
                    <use xlink:href="#ae"/>
                </mask>
                <path fill="url(#af)" d="M13.866.687C6.182.687.61 10.564.61 25.98L.615 93.7l37.786 21.992V13.07L19.504 2.335C17.541 1.218 15.646.687 13.866.687m0 .78c1.682 0 3.453.522 5.258 1.548l18.5 10.511V114.34L1.39 93.25l-.005-67.27c0-14.431 5.133-24.512 12.482-24.512" mask="url(#ag)"/>
            </g>
            <path fill="#2E1FA0" d="M801.136 361.72s-5.677-3.3-12.632-7.35c-6.955-4.048-12.593.876-12.595 10.996l-.004 18.326 25.231 14.68V361.72z"/>
            <path fill="#CAC8FC" d="M807.4 460.658l3.426-1.993V356.01l-3.426 2.026z"/>
            <path fill="#CAC8FC" d="M807.4 358.036l3.426-2.025s-18.448-10.686-21.36-12.382c-2.914-1.697-10.176 2.798-10.176 2.798 3.053-1.318 6.127-.888 9.214.873l18.896 10.736z"/>
        </g>
        <g transform="translate(951 296)">
            <mask id="aj" fill="#fff">
                <use xlink:href="#ah"/>
            </mask>
            <path fill="url(#ai)" d="M.13 8.963c.166.232.342.455.536.66L8.584.55.13 8.963z" mask="url(#aj)"/>
        </g>
        <g>
            <path fill="#CAC8FC" d="M845.215 343.528l25.325-14.635v-14.644l18.997 10.983-19.005 32.94v-14.644l-31.657 18.304zM843.202 344.687l-6.306 18.284-6.329 3.658 6.249-18.25zM834.662 349.629l-6.349 18.304-6.335 3.66 6.253-18.255z"/>
            <path fill="#F3F3FF" d="M708.35 475.905c9.311 5.382 22.52 6.475 29.503 2.438 6.984-4.036 5.096-11.67-4.218-17.052-9.313-5.381-22.523-6.475-29.505-2.438-6.98 4.034-5.092 11.67 4.22 17.052"/>
            <path fill="#4C2FD1" d="M704.163 463.132c.012 2.68-.76 3.062 2.257 4.161.576.212 11.594-5.03 13.929-6.398 2.335-1.368-2.257-2.03-4.537-1.776-3.5.388-11.649 4.013-11.649 4.013M722.435 471.366c.012 2.68-.76 3.062 2.257 4.161.576.21 11.594-5.03 13.929-6.4 2.335-1.366-2.257-2.027-4.535-1.774-3.502.388-11.651 4.013-11.651 4.013"/>
            <path fill="#1F1984" d="M705.19 402.718l-1.052 61.318s5.57 1.307 7.06-2.322c.864-2.094 1.736-15.684 2.668-27.303.682-8.492 1.102-17.053 2.156-16.394 1.38-.222 1.934 1.898 3.169 18.469 1.143 15.356 3.165 35.112 3.165 35.112s4.398 1.884 7.201-.518l-.007-66.662-24.36-1.7z"/>
            <path fill="#EBEBFF" d="M716.952 362.63c3.782 1.039 10.898 3.331 11.776 12.122.969 9.7.822 29.667.822 29.667s-16.241 6.738-24.36-1.701c-2.816-33.52-1.6-38.88 3.672-40.258 4.39-1.146 8.09.17 8.09.17"/>
            <path fill="#E88867" d="M730.59 349.219s.878 3.642.814 4.683c-.067 1.042-1.494 1.562-1.494 1.562l.68-6.245z"/>
            <path fill="#EBEBFF" d="M730.396 346.424c.779 6.842-.835 11.023-2.354 13.266-.987 1.456-4.108 2.284-6.222 1.72-1.727-.466-1.692.184-1.7 4.115-.104 1.126-6.839 1.468-7.34-2.032-.15-1.03.176-2.457.072-4.694-.25-5.327.074-12.783 1.902-15.515 1.888-2.824 14.305-8.594 15.642 3.14"/>
            <path fill="#4C2FD1" d="M719.184 361.99c-1.682 1.626-5.86.915-7.254-.826-2.743-3.425-2.961-13.566-2.045-17.47 1.25-5.332 6.713-8.044 15.633-6.394 2.749 2.051 3.958 5.633 3.958 5.633s-2.327-1.525-3.66 2.126c-.436 1.193.292 2.688-2.045 4.708-2.34 2.022-1.03 4.01-1.955 4.04-1.38.044-.998-3.647-3.34-3.025-1.623.43-1.878 4.422.077 5.087 1.198.408 1.941-.063 1.941-.063s-.398 5.303-1.31 6.184"/>
            <path fill="#EBEBFF" d="M724.87 371.593c-1.774-1.81-4.556 7.207 0 12.337 4.557 5.128 17.277 12.218 19 12.025 1.724-.192 16.002-8.445 19.006-10.335 3.006-1.888 4.692-11.745 1.186-9.148-2.469 1.827-5.198 3.656-5.198 3.656s1.822-3.758.841-4.323c-.978-.568-3.7 4.5-4.998 6.017-1.3 1.52-10.837 6.2-10.837 6.2s-12.42-9.723-19-16.43"/>
            <path fill="#CAC8FC" d="M724.174 369.555c-4.84-1.464-7.015 5.983-3.637 11.445 3.379 5.462 9.02 8.702 9.02 8.702s4.623-5.649 4.817-11.401c-2.837-3.666-6.264-6.856-10.2-8.746M726.996 348.417s6.21-.72 9.196-3.056c2.988-2.336-1.49-4.891-4.988-6.01-3.498-1.117-11.767.852-11.767.852l7.559 8.214z"/>
            <path fill="#CAC8FC" d="M709.398 347.188s1.135 2.08 8.28 2.99c7.147.91 12.922-4.032 12.922-4.032s-1.253-12.42-12.261-10.053c-10.368 2.23-8.941 11.095-8.941 11.095"/>
            <path fill="#DBDBDB" d="M472.67 405.118s1.33-.653 2.866 2.06c1.538 2.715.77 7.12.77 7.12l-3.04-1.047-.596-8.133z"/>
            <path fill="#F3F3FF" d="M483.283 514.639c-9.311 5.381-22.519 6.474-29.503 2.437-6.984-4.035-5.096-11.67 4.218-17.051 9.313-5.382 22.523-6.475 29.505-2.438 6.98 4.033 5.092 11.67-4.22 17.052"/>
            <path fill="#4C2FD1" d="M471.128 496.024s-.741 3.346-.396 4.392c.347 1.047 9.79 5.851 12.52 7.088 2.73 1.234 3.913.477 1.56-3.037-2.474-3.697-7.986-8.211-7.986-8.211l-5.698-.232zM455.311 504.036s-.741 3.348-.396 4.394c.347 1.044 9.79 5.85 12.52 7.085 2.73 1.235 3.913.477 1.562-3.036-2.476-3.697-7.988-8.212-7.988-8.212l-5.698-.231z"/>
            <path fill="#1F1984" d="M467.18 437.209c2.724-1.415 9.728 0 9.728 0 .65 9.36-.086 59.358-.086 59.358s-4.051 3.129-5.996 1.1c0 0-.19-5.52-.737-13.058-.741-10.222-1.308-20.961-2.157-30.347-.3-3.336-1.455-3.007-1.682-1.894-.451 2.21-4.343 49.663-4.365 51.799-.02 2.137-4.922 3.297-7.092 1.462-.202-.699 0-48.776 2.58-70.014l19.535 1.594"/>
            <path fill="#EAEAEA" d="M469.774 404.555s2.465-.7 4.022 1.766c1.557 2.467 5.437 6.848 4.812 10.01-.626 3.161-1.987 4.82-1.987 4.82l.287 16.058s-11.967 7-19.535-1.593c.213-2.356 2.962-6.96 2.884-8.683-.12-2.593-2.675-10.546-3.841-13.955-1.169-3.41-.03-4.67 3.502-5.986 3.531-1.313 9.856-2.437 9.856-2.437"/>
            <path fill="#EBEBFF" d="M476.463 385.976c1.772 6.26-.57 11.782-2.128 12.84-1.557 1.058-4.56.866-4.56.866v12.182s-6.355-.697-6.355-4.872c.13-4.565 0-9.742 0-9.742s-2.465-1.42-2.465-4.872c0-3.454-.52-8.647 6.355-9.165 6.874-.52 8.69-.232 8.69-.232l.463 2.995z"/>
            <path fill="#4C2FD1" d="M462.54 380.839s-2.155-1.596-4.971.369c-2.816 1.966-2.816 6.88-2.447 11.921.369 5.042.19 8.241-1.3 8.993 0 0 3.87 1.166 5.641-.993 1.773-2.16 1.77-4.756 1.882-8.752.11-3.996 1.194-11.538 1.194-11.538"/>
            <path fill="#F2F2F2" d="M469.774 411.864s-6.296-5.606-6.274-8.204l-.024-.713s-1.32 1.812-1.7 2.683c-.38.87-.43 2.9-.43 2.9.7 1.79 3.183 2.947 4.603 3.334l.512 2.433 3.313-2.433z"/>
            <path fill="#F2F2F2" d="M469.774 411.864l2.53.624-1-2.416s1-2.128.157-4.334c-.7-1.833-1.687-2.79-1.687-2.79v8.916z"/>
            <path fill="#4C2FD1" d="M468.275 385.42s-.25 1.947-.9 3.052c-.649 1.103-.972 2.14-.582 3.505.388 1.362-1.688-.846-1.688-2.534 0-1.686-2.357-2.1-3.077-.135-.813 2.225 1.202 4.632 2.583 3.642 0 0 .8 1.298.484 3.05-.314 1.753-1.641 3.052-1.641 3.052s-.573-.785-1.54-1.668c-.964-.885-2.035-4.565-1.529-7.94.504-3.375 7.89-4.024 7.89-4.024"/>
            <path fill="#CAC8FC" d="M460.385 389.444s4.851-6.146 15.918-4.933c0 0 .302-2.683-3.998-5.193-4.302-2.51-11.083 1.093-11.716 4.277-.631 3.183-.204 5.849-.204 5.849"/>
            <path fill="#CAC8FC" d="M464.61 386.31s7.13 3.483 10.826 3.025c3.697-.457 9.162.17 8.58-.455-.536-.575-7.714-4.369-7.714-4.369-.725-.23-5.743-2.141-11.692 1.8"/>
            <path fill="#4C2FD1" d="M465.955 438.3l16.32-5.21 5.48-18.792-15.45 5.672z"/>
            <path fill="#A4B2B2" d="M476.855 418.299l.3-1.072-1.866.687.404-1.927 8.87-3.254-.904 2.108-1.263.463-.17 1.024z"/>
            <path fill="#BECECD" d="M475.693 415.987l-.157.748 8.684-3.205.342-.799z"/>
            <path fill="#EBEBFF" d="M457.318 410.195c-2.769 2.334-2.079 5.718-.879 11.984 1.198 6.267 2.808 12.777 4.508 13.727 1.698.95 13.88-4.383 17.727-5.943 3.85-1.56 6.502-9.456 3.096-7.784-3.406 1.672-4.915 3.301-4.915 3.301s1.296-4.262-.22-3.662c-1.518.603-2.616 4.48-2.616 4.48l-9.41 2.84c-1.162.02-2.825-22.707-7.291-18.943"/>
            <path fill="#CAC8FC" d="M457.285 408.622c-2.51.553-3.153 4.088-2.55 8.553.601 4.465 1.238 7.487 1.238 7.487l7.451-2.465s-.739-14.763-6.139-13.575"/>
            <path fill="#2E1FA0" d="M1010.184 207.744v-36.593l38 21.954v36.604z"/>
            <g transform="translate(1009.775 170.478)">
                <mask id="am" fill="#fff">
                    <use xlink:href="#ak"/>
                </mask>
                <path fill="url(#al)" d="M.41.674v36.593l37.997 21.964V22.628L.41.674zm.778 1.35l36.44 21.053V57.88L1.189 36.816V2.024z" mask="url(#am)"/>
            </g>
            <path fill="#4C2FD1" d="M1010.184 171.15l44.323-25.624 38.009 21.966-44.333 25.613z"/>
            <path fill="#4C2FD1" d="M1048.183 193.105v36.604l44.32-25.619.013-36.598z"/>
            <g transform="translate(1048.094 167.449)">
                <mask id="ap" fill="#fff">
                    <use xlink:href="#an"/>
                </mask>
                <path fill="url(#ao)" d="M44.423.044L.088 25.656V62.26l44.323-25.619.012-36.597zm-.78 1.35l-.012 34.798L.869 60.908V26.106L43.642 1.394z" mask="url(#ap)"/>
            </g>
            <path fill="#CAC8FC" d="M1024.218 179.263v7.317l2.296-1.32v2.652l2.653-1.328v2.861l2.53-1.501v-4.355zM1024.218 179.261l44.326-25.624 7.486 4.325-44.332 25.625zM1057.36 216.35l-1.858 1.074.002 4.296-1.859 1.076v-4.297l-1.859 1.074 2.789-5.908zM1064.453 212.322l-1.86 1.074.001 4.296-1.858 1.076v-4.297l-1.86 1.076 2.789-5.91z"/>
            <path fill="#F3F3FF" d="M1001.129 300.326c9.312 5.381 22.52 6.473 29.505 2.437 6.983-4.035 5.094-11.67-4.22-17.051-9.313-5.384-22.522-6.475-29.503-2.438-6.982 4.035-5.094 11.67 4.218 17.052"/>
            <path fill="#4C2FD1" d="M996.941 287.554c.014 2.68-.76 3.06 2.257 4.161.576.21 11.594-5.032 13.931-6.4 2.333-1.366-2.259-2.03-4.537-1.774-3.502.388-11.65 4.013-11.65 4.013M1015.214 295.787c.014 2.68-.76 3.062 2.257 4.16.576.21 11.594-5.031 13.93-6.397 2.334-1.368-2.258-2.03-4.536-1.777-3.502.39-11.65 4.014-11.65 4.014"/>
            <path fill="#1F1984" d="M997.97 227.14l-1.052 61.317s5.57 1.307 7.061-2.322c.863-2.096 1.735-15.686 2.667-27.303.68-8.492 1.102-17.053 2.155-16.394 1.382-.222 1.935 1.898 3.17 18.467 1.143 15.358 3.165 35.114 3.165 35.114s4.396 1.884 7.202-.52l-.008-66.66-24.36-1.7z"/>
            <path fill="#EBEBFF" d="M1009.732 187.05c3.782 1.039 10.898 3.333 11.776 12.124.969 9.7.822 29.665.822 29.665s-16.24 6.74-24.36-1.7c-2.818-33.522-1.6-38.88 3.67-40.257 4.39-1.149 8.092.168 8.092.168"/>
            <path fill="#E88867" d="M1023.37 173.64s.878 3.642.813 4.682c-.065 1.043-1.494 1.563-1.494 1.563l.68-6.245z"/>
            <path fill="#EBEBFF" d="M1023.176 170.845c.778 6.842-.835 11.022-2.355 13.266-.986 1.456-4.108 2.284-6.22 1.719-1.729-.465-1.694.184-1.7 4.116-.105 1.126-6.84 1.468-7.343-2.032-.149-1.03.177-2.457.073-4.695-.247-5.326.076-12.782 1.902-15.514 1.888-2.825 14.306-8.595 15.643 3.14"/>
            <path fill="#4C2FD1" d="M1011.965 186.411c-1.683 1.625-5.861.915-7.255-.826-2.745-3.425-2.963-13.566-2.045-17.47 1.25-5.332 6.711-8.045 15.63-6.394 2.752 2.05 3.962 5.633 3.962 5.633s-2.328-1.525-3.661 2.125c-.435 1.194.292 2.69-2.047 4.709-2.337 2.021-1.03 4.01-1.953 4.039-1.38.045-1-3.647-3.34-3.025-1.623.43-1.878 4.422.077 5.088 1.196.408 1.941-.063 1.941-.063s-.398 5.303-1.31 6.184"/>
            <path fill="#EBEBFF" d="M1017.65 196.014c-1.775-1.81-4.557 7.207 0 12.335 4.556 5.13 17.278 12.22 19 12.027 1.723-.192 16.003-8.447 19.007-10.335 3.004-1.888 4.69-11.745 1.184-9.148-2.468 1.827-5.196 3.656-5.196 3.656s1.82-3.758.841-4.323c-.978-.568-3.7 4.498-5 6.017-1.298 1.52-10.837 6.2-10.837 6.2s-12.42-9.723-19-16.43"/>
            <path fill="#CAC8FC" d="M1016.955 193.976c-4.843-1.464-7.016 5.982-3.637 11.444 3.376 5.463 9.019 8.703 9.019 8.703s4.623-5.649 4.816-11.401c-2.836-3.666-6.263-6.856-10.198-8.746M1019.775 172.837s6.21-.72 9.196-3.055c2.99-2.336-1.488-4.891-4.988-6.01-3.498-1.117-11.765.852-11.765.852l7.557 8.213z"/>
            <path fill="#CAC8FC" d="M1002.176 171.609s1.137 2.08 8.282 2.989c7.145.91 12.92-4.031 12.92-4.031s-1.251-12.42-12.259-10.053c-10.368 2.23-8.943 11.095-8.943 11.095"/>
            <path fill="#EBEBFF" d="M1132.503 119.799c-1.965-.565-3.455 3.542-3.182 9.733.274 6.19.02 13.151-2.104 17.224-2.122 4.072-4.106 5.181-4.48 6.347-.377 1.164 3.186-.493 3.186-.493s-2.808 3.651-1.675 5.455c1.134 1.803 3.99-.526 5.743-4.332 1.753-3.807 3.96-10.424 4.314-14.928.357-4.504 2.098-17.888-1.802-19.006"/>
            <path fill="#F3F3FF" d="M1122.881 228.074c9.31 5.382 22.52 6.473 29.504 2.438 6.982-4.035 5.096-11.67-4.218-17.053-9.313-5.382-22.525-6.473-29.505-2.438-6.982 4.037-5.092 11.67 4.22 17.053"/>
            <path fill="#1F1984" d="M1135.036 209.46s.742 3.348.396 4.394c-.347 1.044-9.79 5.849-12.52 7.083-2.728 1.235-3.913.477-1.56-3.034 2.473-3.697 7.986-8.212 7.986-8.212l5.698-.231zM1150.374 217.09s1.222 3.728.874 4.776c-.345 1.046-9.788 5.85-12.517 7.084-2.731 1.234-3.916.477-1.563-3.035 2.475-3.697 7.986-8.211 7.986-8.211l5.22-.615z"/>
            <path fill="#EBEBFF" d="M1138.983 150.644c-2.724-1.415-9.728 0-9.728 0-.649 9.36.087 59.357.087 59.357s2.131 3.136 5.815.589c0 0 .37-5.007.918-12.547.741-10.222 1.31-20.96 2.157-30.347.302-3.335 1.455-3.007 1.684-1.892.45 2.21 4.341 49.661 4.363 51.798.021 2.136 3.843 3.001 6.015 1.166.2-.698 1.077-48.48-1.502-69.717l-19.537 1.593"/>
            <path fill="#1F1984" d="M1136.39 117.99s-2.465-.698-4.021 1.767c-1.557 2.467-5.438 6.847-4.812 10.01.625 3.161 1.986 4.82 1.986 4.82l-.288 16.058s11.968 6.997 19.537-1.596c-.214-2.353-2.963-6.957-2.884-8.68.12-2.595 2.594-10.573 3.84-13.955.852-2.306-.005-3.554-3.501-5.986-4.832-3.364-9.857-2.438-9.857-2.438"/>
            <path fill="#4C2FD1" d="M1129.085 105.72s1.575 8.527.455 9.394c-1.117.868-2.417.65-2.417.65s.37 4.902 6.568 3.829c5.767-1 5.151-7.274 5.151-7.274l-9.757-6.598z"/>
            <path fill="#EBEBFF" d="M1129.721 101.776c-1.773 6.26.57 11.782 2.127 12.84 1.557 1.056 4.56.866 4.56.866l-.013 4.184c-1.845 3.393-1.7 6.208-.006 5.633 0 0 6.357-.695 6.357-4.872-.131-4.565.018-7.377.018-7.377s2.465-1.42 2.465-4.872c0-3.454.52-8.647-6.357-9.165-6.875-.52-7.93.312-7.93.312l-1.221 2.451z"/>
            <path fill="#1F1984" d="M1129.355 145.049s-1.388 26.129-.867 28.466c.518 2.338 5.245 5.034 11.722 4.6 6.474-.433 10.915-4.062 11.221-5.571.306-1.508-.872-22.616-3.747-27.018-2.876-4.403-18.329-.477-18.329-.477"/>
            <path fill="#4C2FD1" d="M1129.17 104.717s5.56.239 7.991-4.067c0 0 .714 3.607 1.898 4.58 1.183.976.8 3.204.883 3.553.084.35.623-.514 1.057-2.033.435-1.52 1.949-2.271 2.382-.703.435 1.568.345 3.195-.802 3.845-1.145.65-1.36 1.517-1.36 1.517s.52 3.73-.454 4.862c-.974 1.13-1.923 1.627-1.923 1.627s.515 1.839 4.088.973c3.574-.867 4.063-1.59 4.023-5.617-.045-5.1.26-14.231-5.16-16.427-5.63-2.279-10.184-.102-11.98 2.588-1.798 2.691-2.55 5.457-.644 5.302"/>
            <path fill="#EBEBFF" d="M1147.695 122.685c-2.037-.174-2.71 4.141-1.25 10.165 1.458 6.021 2.548 12.9 1.25 17.307-1.3 4.406-3.033 5.878-3.176 7.093-.145 1.213 3.031-1.098 3.031-1.098s-2.053 4.122-.594 5.673c1.46 1.552 3.816-1.284 4.804-5.359.986-4.072 1.878-10.99 1.36-15.479-.517-4.487-1.382-17.954-5.425-18.302"/>
        </g>
    </g>
</svg>
