<svg xmlns="http://www.w3.org/2000/svg" xmlns:xlink="http://www.w3.org/1999/xlink" width="507" height="511" viewBox="0 0 507 511">
    <defs>
        <path id="a" d="M.725.368h122.817v71.337H.725z"/>
        <path id="c" d="M.462 18.658c3.71 2.173 8.657 5.074 12.368 7.249 5.875-3.421 10.66-11.784 10.64-18.594L11.102.063c.02 6.81-4.767 15.172-10.64 18.595"/>
        <path id="e" d="M.462 18.658c3.71 2.173 8.657 5.074 12.368 7.249 5.875-3.421 10.66-11.784 10.64-18.594L11.102.063c.02 6.81-4.767 15.172-10.64 18.595"/>
        <path id="g" d="M.462 18.658c3.71 2.173 8.657 5.074 12.368 7.249 5.875-3.421 10.66-11.784 10.64-18.594L11.102.063c.02 6.81-4.767 15.172-10.64 18.595"/>
        <path id="i" d="M.462 18.658c3.71 2.173 8.657 5.074 12.368 7.249 5.875-3.421 10.66-11.784 10.64-18.594L11.102.063c.02 6.81-4.767 15.172-10.64 18.595"/>
        <path id="k" d="M.462 18.658c3.71 2.173 8.657 5.074 12.368 7.249 5.875-3.421 10.66-11.784 10.64-18.594L11.102.063c.02 6.81-4.767 15.172-10.64 18.595"/>
        <path id="m" d="M.462 18.658c3.71 2.173 8.657 5.074 12.368 7.249 5.875-3.421 10.66-11.784 10.64-18.594L11.102.063c.02 6.81-4.767 15.172-10.64 18.595"/>
        <path id="o" d="M.462 18.658c3.71 2.173 8.657 5.074 12.368 7.249 5.875-3.421 10.66-11.784 10.64-18.594L11.102.063c.02 6.81-4.767 15.172-10.64 18.595"/>
        <path id="q" d="M.462 18.658c3.71 2.173 8.657 5.074 12.368 7.249 5.875-3.421 10.66-11.784 10.64-18.594L11.102.063c.02 6.81-4.767 15.172-10.64 18.595"/>
        <path id="s" d="M.462 18.658c3.71 2.173 8.657 5.074 12.368 7.249 5.875-3.421 10.66-11.784 10.64-18.594L11.102.063c.02 6.81-4.767 15.172-10.64 18.595"/>
        <path id="u" d="M.462 18.658c3.71 2.173 8.657 5.074 12.368 7.249 5.875-3.421 10.66-11.784 10.64-18.594L11.102.063c.02 6.81-4.767 15.172-10.64 18.595"/>
        <path id="w" d="M.462 18.658c3.71 2.173 8.657 5.074 12.368 7.249 5.875-3.421 10.66-11.784 10.64-18.594L11.102.063c.02 6.81-4.767 15.172-10.64 18.595"/>
        <path id="y" d="M.462 18.658c3.71 2.173 8.657 5.074 12.368 7.249 5.875-3.421 10.66-11.784 10.64-18.594L11.102.063c.02 6.81-4.767 15.172-10.64 18.595"/>
        <path id="A" d="M.462 18.658c3.71 2.173 8.657 5.074 12.368 7.249 5.875-3.421 10.66-11.784 10.64-18.594L11.102.063c.02 6.81-4.767 15.172-10.64 18.595"/>
        <path id="C" d="M.462 18.658c3.71 2.173 8.657 5.074 12.368 7.249 5.875-3.421 10.66-11.784 10.64-18.594L11.102.063c.02 6.81-4.767 15.172-10.64 18.595"/>
        <path id="E" d="M.462 18.658c3.71 2.173 8.657 5.074 12.368 7.249 5.875-3.421 10.66-11.784 10.64-18.594L11.102.063c.02 6.81-4.767 15.172-10.64 18.595"/>
        <path id="G" d="M3.49 7.677l12.384 7.596c-.01-3.545-1.206-6.044-3.127-7.22L.363.453c1.923 1.18 3.116 3.678 3.127 7.223"/>
        <path id="I" d="M.82 1.887L13.55 8.51c3.044-1.573 5.813-1.714 7.812-.673L8.631 1.214C7.79.774 6.81.547 5.73.547c-1.48 0-3.15.43-4.91 1.34"/>
        <path id="K" d="M.82 1.887L13.55 8.51c3.044-1.573 5.813-1.714 7.812-.673L8.631 1.214C7.79.774 6.81.547 5.73.547c-1.48 0-3.15.43-4.91 1.34"/>
        <path id="M" d="M.82 1.887L13.55 8.51c3.044-1.573 5.813-1.714 7.812-.673L8.631 1.214C7.79.774 6.81.547 5.73.547c-1.48 0-3.15.43-4.91 1.34"/>
        <path id="O" d="M.82 1.887L13.55 8.51c3.044-1.573 5.813-1.714 7.812-.673L8.631 1.214C7.79.774 6.81.547 5.73.547c-1.48 0-3.15.43-4.91 1.34"/>
        <path id="Q" d="M.82 1.887L13.55 8.51c3.044-1.573 5.813-1.714 7.812-.673L8.631 1.214C7.79.774 6.81.547 5.73.547c-1.48 0-3.15.43-4.91 1.34"/>
        <path id="S" d="M.82 1.887L13.55 8.51c3.044-1.573 5.813-1.714 7.812-.673L8.631 1.214C7.79.774 6.81.547 5.73.547c-1.48 0-3.15.43-4.91 1.34"/>
        <path id="U" d="M.82 1.887L13.55 8.51c3.044-1.573 5.813-1.714 7.812-.673L8.631 1.214C7.79.774 6.81.547 5.73.547c-1.48 0-3.15.43-4.91 1.34"/>
        <path id="W" d="M.82 1.887L13.55 8.51c3.044-1.573 5.813-1.714 7.812-.673L8.631 1.214C7.79.774 6.81.547 5.73.547c-1.48 0-3.15.43-4.91 1.34"/>
        <path id="Y" d="M.82 1.887L13.55 8.51c3.044-1.573 5.813-1.714 7.812-.673L8.631 1.214C7.79.774 6.81.547 5.73.547c-1.48 0-3.15.43-4.91 1.34"/>
        <path id="aa" d="M.82 1.887L13.55 8.51c3.044-1.573 5.813-1.714 7.812-.673L8.631 1.214C7.79.774 6.81.547 5.73.547c-1.48 0-3.15.43-4.91 1.34"/>
        <path id="ac" d="M5.368.283C3.905.298 2.262.728.533 1.618l12.772 6.624c3.047-1.569 5.817-1.706 7.822-.666L8.357.952C7.525.52 6.562.292 5.503.283"/>
        <path id="ae" d="M5.368.283C3.905.298 2.262.728.533 1.618l12.772 6.624c3.047-1.569 5.817-1.706 7.822-.666L8.357.952C7.525.52 6.562.292 5.503.283"/>
        <path id="ag" d="M5.368.283C3.905.298 2.262.728.533 1.618l12.772 6.624c3.047-1.569 5.817-1.706 7.822-.666L8.357.952C7.525.52 6.562.292 5.503.283"/>
        <path id="ai" d="M5.368.283C3.905.298 2.262.728.533 1.618l12.772 6.624c3.047-1.569 5.817-1.706 7.822-.666L8.357.952C7.525.52 6.562.292 5.503.283"/>
        <path id="ak" d="M5.368.283C3.905.298 2.262.728.533 1.618l12.772 6.624c3.047-1.569 5.817-1.706 7.822-.666L8.357.952C7.525.52 6.562.292 5.503.283h-.136z"/>
        <path id="am" d="M3.854 7.178l12.436 7.539c-1.93-1.17-3.13-3.651-3.14-7.168L.716.009c.01 3.516 1.21 5.998 3.138 7.17"/>
        <path id="ao" d="M.812.833l12.773 7.289c2.006 1.144 4.783.99 7.836-.74A11074.06 11074.06 0 0 1 8.65.095C5.595 1.825 2.82 1.982.812.833"/>
        <path id="aq" d="M.812.833l12.773 7.289c2.006 1.144 4.783.99 7.836-.74A11074.06 11074.06 0 0 1 8.65.095C5.595 1.825 2.82 1.982.812.833"/>
        <path id="as" d="M.812.833l12.773 7.289c2.006 1.144 4.783.99 7.836-.74A11074.06 11074.06 0 0 1 8.65.095C5.595 1.825 2.82 1.982.812.833"/>
        <path id="au" d="M.812.833l12.773 7.289c2.006 1.144 4.783.99 7.836-.74A11074.06 11074.06 0 0 1 8.65.095C5.595 1.825 2.82 1.982.812.833"/>
        <path id="aw" d="M.812.833l12.773 7.289c2.006 1.144 4.783.99 7.836-.74A11074.06 11074.06 0 0 1 8.65.095C5.595 1.825 2.82 1.982.812.833"/>
        <path id="ay" d="M.812.833l12.773 7.289c2.006 1.144 4.783.99 7.836-.74A11074.06 11074.06 0 0 1 8.65.095C5.595 1.825 2.82 1.982.812.833"/>
        <path id="aA" d="M.812.833l12.773 7.289c2.006 1.144 4.783.99 7.836-.74A11074.06 11074.06 0 0 1 8.65.095C5.595 1.825 2.82 1.982.812.833"/>
        <path id="aC" d="M.812.833l12.773 7.289c2.006 1.144 4.783.99 7.836-.74A11074.06 11074.06 0 0 1 8.65.095C5.595 1.825 2.82 1.982.812.833"/>
        <path id="aE" d="M.812.833l12.773 7.289c2.006 1.144 4.783.99 7.836-.74A11074.06 11074.06 0 0 1 8.65.095C5.595 1.825 2.82 1.982.812.833"/>
        <path id="aG" d="M.812.833l12.773 7.289c2.006 1.144 4.783.99 7.836-.74A11074.06 11074.06 0 0 1 8.65.095C5.595 1.825 2.82 1.982.812.833"/>
        <path id="aI" d="M3.48 7.431l12.319 7.542c-1.914-1.171-3.1-3.653-3.11-7.17L.37.264c.01 3.519 1.2 6 3.11 7.168"/>
        <path id="aK" d="M.701 19.225l12.369 7.272c-.02-6.828 4.767-15.217 10.64-18.647L11.342.577C5.467 4.008.682 12.395.702 19.225"/>
        <path id="aM" d="M.701 19.225l12.369 7.272c-.02-6.828 4.767-15.217 10.64-18.647L11.342.577C5.467 4.008.682 12.395.702 19.225"/>
        <path id="aO" d="M.701 19.225l12.369 7.272c-.02-6.828 4.767-15.217 10.64-18.647L11.342.577C5.467 4.008.682 12.395.702 19.225"/>
        <path id="aQ" d="M.701 19.225l12.369 7.272c-.02-6.828 4.767-15.217 10.64-18.647L11.342.577C5.467 4.008.682 12.395.702 19.225"/>
        <path id="aS" d="M.701 19.225l12.369 7.272c-.02-6.828 4.767-15.217 10.64-18.647L11.342.577C5.467 4.008.682 12.395.702 19.225"/>
        <path id="aU" d="M.701 19.225l12.369 7.272c-.02-6.828 4.767-15.217 10.64-18.647L11.342.577C5.467 4.008.682 12.395.702 19.225"/>
        <path id="aW" d="M.701 19.225l12.369 7.272c-.02-6.828 4.767-15.217 10.64-18.647L11.342.577C5.467 4.008.682 12.395.702 19.225"/>
        <path id="aY" d="M.701 19.225l12.369 7.272c-.02-6.828 4.767-15.217 10.64-18.647L11.342.577C5.467 4.008.682 12.395.702 19.225"/>
        <path id="ba" d="M.701 19.225l12.369 7.272c-.02-6.828 4.767-15.217 10.64-18.647L11.342.577C5.467 4.008.682 12.395.702 19.225"/>
        <path id="bc" d="M.701 19.225l12.369 7.272c-.02-6.828 4.767-15.217 10.64-18.647L11.342.577C5.467 4.008.682 12.395.702 19.225"/>
        <path id="be" d="M.701 19.225l12.369 7.272c-.02-6.828 4.767-15.217 10.64-18.647L11.342.577C5.467 4.008.682 12.395.702 19.225"/>
        <path id="bg" d="M.701 19.225l12.369 7.272c-.02-6.828 4.767-15.217 10.64-18.647L11.342.577C5.467 4.008.682 12.395.702 19.225"/>
        <path id="bi" d="M.701 19.225l12.369 7.272c-.02-6.828 4.767-15.217 10.64-18.647L11.342.577C5.467 4.008.682 12.395.702 19.225"/>
        <path id="bk" d="M.701 19.225l12.369 7.272c-.02-6.828 4.767-15.217 10.64-18.647L11.342.577C5.467 4.008.682 12.395.702 19.225"/>
        <path id="bm" d="M.701 19.225l12.369 7.272c-.02-6.828 4.767-15.217 10.64-18.647L11.342.577C5.467 4.008.682 12.395.702 19.225"/>
        <path id="bo" d="M.768 34.782c-.01-3.497-.021-6.993-.03-10.49L.67.634c1.8 1.043 3.6 2.087 5.399 3.132l1.51.875.068 23.657c.007 3.497.018 6.993.028 10.49-.503-.29-1.007-.585-1.51-.877"/>
    </defs>
    <g fill="none" fill-rule="evenodd">
        <path fill="#EBEBFC" d="M396 393.5L335.2 429 274 393.5l60.8-35.5z"/>
        <g transform="translate(383.06 341)">
            <mask id="b" fill="#fff">
                <use xlink:href="#a"/>
            </mask>
            <path fill="#EBEBFC" d="M123.542 36.037L62.334 71.705.724 36.038 61.934.368z" mask="url(#b)"/>
        </g>
        <path fill="#EBEBFC" d="M456.691 433.209l-61.207 35.669-20.482-11.897 61.208-35.667zM2 475.328L70.04 511l82.586-48.264 35.705 18.72 103.68-60.541-35.754-18.745L394 321.674 325.964 286z"/>
        <path fill="#A49FA5" d="M168.114 357.931L211 333l-.112 40.07L168 398z"/>
        <path fill="#DCDADC" d="M158 352.135L200.918 327 211 332.867 168.084 358z"/>
        <path fill="#DBDADB" d="M1 425.788L13.437 433 355 236.214 342.565 229z"/>
        <g transform="translate(319 210)">
            <mask id="d" fill="#fff">
                <use xlink:href="#c"/>
            </mask>
            <path fill="#1F222B" d="M12.83 25.907L.46 18.657c1.242-.724 2.435-1.668 3.544-2.771l12.369 7.25c-1.11 1.104-2.303 2.05-3.544 2.771" mask="url(#d)"/>
        </g>
        <g transform="translate(319 210)">
            <mask id="f" fill="#fff">
                <use xlink:href="#e"/>
            </mask>
            <path fill="#1E222A" d="M16.374 23.136l-12.368-7.25c.4-.4.79-.817 1.164-1.254l12.368 7.252c-.376.436-.763.853-1.164 1.252" mask="url(#f)"/>
        </g>
        <g transform="translate(319 210)">
            <mask id="h" fill="#fff">
                <use xlink:href="#g"/>
            </mask>
            <path fill="#1E2129" d="M17.539 21.884L5.17 14.632c.298-.346.587-.7.868-1.068l12.37 7.25c-.282.366-.572.724-.87 1.07" mask="url(#h)"/>
        </g>
        <g transform="translate(319 210)">
            <mask id="j" fill="#fff">
                <use xlink:href="#i"/>
            </mask>
            <path fill="#1D2028" d="M18.41 20.815l-12.37-7.25c.246-.319.484-.645.717-.978l12.366 7.25c-.23.333-.469.66-.714.978" mask="url(#j)"/>
        </g>
        <g transform="translate(319 210)">
            <mask id="l" fill="#fff">
                <use xlink:href="#k"/>
            </mask>
            <path fill="#1C1F27" d="M19.124 19.838l-12.369-7.25c.214-.307.421-.62.622-.938l12.368 7.253c-.2.315-.408.628-.621.935" mask="url(#l)"/>
        </g>
        <g transform="translate(319 210)">
            <mask id="n" fill="#fff">
                <use xlink:href="#m"/>
            </mask>
            <path fill="#1B1E26" d="M19.744 18.902l-12.368-7.25c.192-.303.377-.608.556-.918l12.368 7.25c-.18.31-.364.617-.556.918" mask="url(#n)"/>
        </g>
        <g transform="translate(319 210)">
            <mask id="p" fill="#fff">
                <use xlink:href="#o"/>
            </mask>
            <path fill="#1B1D25" d="M20.301 17.985l-12.37-7.25c.176-.303.344-.607.504-.914l12.368 7.25c-.161.309-.328.613-.502.914" mask="url(#p)"/>
        </g>
        <g transform="translate(319 210)">
            <mask id="r" fill="#fff">
                <use xlink:href="#q"/>
            </mask>
            <path fill="#1A1C24" d="M20.804 17.071L8.436 9.821c.161-.305.316-.613.463-.92l12.368 7.25c-.147.31-.302.616-.463.92" mask="url(#r)"/>
        </g>
        <g transform="translate(319 210)">
            <mask id="t" fill="#fff">
                <use xlink:href="#s"/>
            </mask>
            <path fill="#191C23" d="M21.267 16.15L8.899 8.9c.149-.312.29-.625.426-.94l12.368 7.25c-.135.315-.277.629-.426.94" mask="url(#t)"/>
        </g>
        <g transform="translate(319 210)">
            <mask id="v" fill="#fff">
                <use xlink:href="#u"/>
            </mask>
            <path fill="#181B21" d="M21.693 15.21L9.325 7.96c.139-.323.272-.647.394-.971l12.369 7.25c-.125.326-.256.649-.395.971" mask="url(#v)"/>
        </g>
        <g transform="translate(319 210)">
            <mask id="x" fill="#fff">
                <use xlink:href="#w"/>
            </mask>
            <path fill="#171A20" d="M22.087 14.24L9.719 6.99c.127-.339.25-.679.362-1.021l12.368 7.252c-.112.34-.233.68-.362 1.02" mask="url(#x)"/>
        </g>
        <g transform="translate(319 210)">
            <mask id="z" fill="#fff">
                <use xlink:href="#y"/>
            </mask>
            <path fill="#17191F" d="M22.45 13.22L10.08 5.97c.123-.365.233-.732.334-1.1l12.366 7.253c-.1.365-.211.732-.332 1.098" mask="url(#z)"/>
        </g>
        <g transform="translate(319 210)">
            <mask id="B" fill="#fff">
                <use xlink:href="#A"/>
            </mask>
            <path fill="#16181E" d="M22.782 12.122l-12.368-7.25c.114-.412.213-.824.3-1.234l12.368 7.252c-.087.408-.188.82-.3 1.232" mask="url(#B)"/>
        </g>
        <g transform="translate(319 210)">
            <mask id="D" fill="#fff">
                <use xlink:href="#C"/>
            </mask>
            <path fill="#15171D" d="M23.082 10.889l-12.368-7.25c.105-.5.19-.996.254-1.485l12.368 7.248c-.066.493-.147.989-.254 1.487" mask="url(#D)"/>
        </g>
        <g transform="translate(319 210)">
            <mask id="F" fill="#fff">
                <use xlink:href="#E"/>
            </mask>
            <path fill="#14161C" d="M23.335 9.403l-12.368-7.25c.09-.708.137-1.406.135-2.09l12.368 7.25a16.15 16.15 0 0 1-.135 2.09" mask="url(#F)"/>
        </g>
        <path fill="#15171D" d="M342 217l-12.479-7.223L329 27l12.48 7.225z"/>
        <g transform="translate(326 20)">
            <mask id="H" fill="#fff">
                <use xlink:href="#G"/>
            </mask>
            <path fill="#14161C" d="M15.874 15.273L3.488 7.677C3.479 4.132 2.284 1.633.363.454L12.747 8.05c1.921 1.179 3.116 3.678 3.127 7.223" mask="url(#H)"/>
        </g>
        <g transform="translate(318 20)">
            <mask id="J" fill="#fff">
                <use xlink:href="#I"/>
            </mask>
            <path fill="#6EA1CA" d="M13.551 8.51L.82 1.888a14.111 14.111 0 0 1 1.525-.68l12.731 6.625c-.497.186-1.007.412-1.524.679" mask="url(#J)"/>
        </g>
        <g transform="translate(318 20)">
            <mask id="L" fill="#fff">
                <use xlink:href="#K"/>
            </mask>
            <path fill="#6B9DC5" d="M15.075 7.832L2.344 1.208c.437-.163.868-.296 1.286-.397l12.734 6.624c-.42.101-.852.234-1.289.397" mask="url(#L)"/>
        </g>
        <g transform="translate(318 20)">
            <mask id="N" fill="#fff">
                <use xlink:href="#M"/>
            </mask>
            <path fill="#6899C0" d="M16.364 7.434L3.631.81c.329-.08.65-.14.966-.184l12.73 6.624c-.316.044-.636.106-.963.184" mask="url(#N)"/>
        </g>
        <g transform="translate(318 20)">
            <mask id="P" fill="#fff">
                <use xlink:href="#O"/>
            </mask>
            <path fill="#6595BA" d="M17.328 7.25L4.596.626a9.04 9.04 0 0 1 .819-.074l12.732 6.624a8.981 8.981 0 0 0-.82.074" mask="url(#P)"/>
        </g>
        <g transform="translate(318 20)">
            <mask id="R" fill="#fff">
                <use xlink:href="#Q"/>
            </mask>
            <path fill="#6391B5" d="M18.147 7.176L5.415.552a7.76 7.76 0 0 1 .731.005l12.73 6.624a7.712 7.712 0 0 0-.729-.005" mask="url(#R)"/>
        </g>
        <g transform="translate(318 20)">
            <mask id="T" fill="#fff">
                <use xlink:href="#S"/>
            </mask>
            <path fill="#608DB0" d="M18.877 7.182L6.145.558c.227.011.448.036.666.07l12.731 6.623a7.22 7.22 0 0 0-.665-.069" mask="url(#T)"/>
        </g>
        <g transform="translate(318 20)">
            <mask id="V" fill="#fff">
                <use xlink:href="#U"/>
            </mask>
            <path fill="#5D89AB" d="M19.543 7.252L6.81.628c.212.032.42.075.62.127l12.733 6.626a6.372 6.372 0 0 0-.621-.13" mask="url(#V)"/>
        </g>
        <g transform="translate(318 20)">
            <mask id="X" fill="#fff">
                <use xlink:href="#W"/>
            </mask>
            <path fill="#5A85A6" d="M20.164 7.38L7.431.756c.202.05.396.113.586.183l12.73 6.624a6.089 6.089 0 0 0-.583-.183" mask="url(#X)"/>
        </g>
        <g transform="translate(318 20)">
            <mask id="Z" fill="#fff">
                <use xlink:href="#Y"/>
            </mask>
            <path fill="#5881A1" d="M20.748 7.564L8.016.94c.192.072.375.152.556.244l12.731 6.624a5.879 5.879 0 0 0-.555-.244" mask="url(#Z)"/>
        </g>
        <g transform="translate(318 20)">
            <mask id="ab" fill="#fff">
                <use xlink:href="#aa"/>
            </mask>
            <path fill="#557D9C" d="M21.303 7.808L8.57 1.184l.06.03L21.363 7.84a1.055 1.055 0 0 0-.06-.031" mask="url(#ab)"/>
        </g>
        <g transform="translate(329)">
            <mask id="ad" fill="#fff">
                <use xlink:href="#ac"/>
            </mask>
            <path fill="#3B4245" d="M19.3 6.989L6.529.365c.212.032.421.075.623.127l12.771 6.624a6.37 6.37 0 0 0-.621-.127" mask="url(#ad)"/>
        </g>
        <g transform="translate(329)">
            <mask id="af" fill="#fff">
                <use xlink:href="#ae"/>
            </mask>
            <path fill="#191C23" d="M20.51 7.301L7.735.677c.193.072.378.152.56.244l12.77 6.624a5.698 5.698 0 0 0-.557-.244" mask="url(#af)"/>
        </g>
        <g transform="translate(329)">
            <mask id="ah" fill="#fff">
                <use xlink:href="#ag"/>
            </mask>
            <path fill="#3B4245" d="M5.86.295a8.033 8.033 0 0 0-1.553.069 9.293 9.293 0 0 0-.964.183c-.421.101-.85.234-1.289.396-.498.184-1.004.409-1.52.675l12.772 6.624c.515-.265 1.023-.489 1.521-.675.437-.162.866-.293 1.287-.396.327-.079.65-.141.965-.184a7.998 7.998 0 0 1 1.552-.068c.228.013.451.036.67.07L6.528.363A7.264 7.264 0 0 0 5.86.295" mask="url(#ah)"/>
        </g>
        <g transform="translate(329)">
            <mask id="aj" fill="#fff">
                <use xlink:href="#ai"/>
            </mask>
            <path fill="#3B4245" d="M7.151.493l12.771 6.624c.2.052.396.113.587.185L7.736.676a6.121 6.121 0 0 0-.585-.183" mask="url(#aj)"/>
        </g>
        <g transform="translate(329)">
            <mask id="al" fill="#fff">
                <use xlink:href="#ak"/>
            </mask>
            <path fill="#3B4245" d="M8.356.951l-.06-.03 12.77 6.623c.019.012.041.022.061.031L8.357.951z" mask="url(#al)"/>
        </g>
        <g transform="translate(0 457)">
            <mask id="an" fill="#fff">
                <use xlink:href="#am"/>
            </mask>
            <path fill="#4C2FD1" d="M16.29 14.718L3.854 7.178C1.927 6.005.725 3.524.716.01l12.435 7.538c.009 3.519 1.21 6 3.14 7.17" mask="url(#an)"/>
        </g>
        <path fill="#22252E" d="M34.446 407L22 399.807 319.554 229 332 236.191z"/>
        <path fill="#FFFDFF" d="M353.347 236.492l.09 30.753c.017 6.769-4.779 15.084-10.65 18.478L23.838 470.078c-5.886 3.402-10.712.648-10.732-6.12l-.085-30.755 340.327-196.711z"/>
        <path fill="#4C2FD1" d="M13.106 463.956L.714 456.747l-.087-30.753 12.392 7.208z"/>
        <g transform="translate(14 400)">
            <mask id="ap" fill="#fff">
                <use xlink:href="#ao"/>
            </mask>
            <path fill="#181B21" d="M13.584 8.123L.814.834l.06.036 12.77 7.287c-.02-.011-.038-.024-.06-.034" mask="url(#ap)"/>
        </g>
        <g transform="translate(14 400)">
            <mask id="ar" fill="#fff">
                <use xlink:href="#aq"/>
            </mask>
            <path fill="#191C23" d="M13.645 8.156L.874.87c.18.099.365.189.557.268l12.771 7.284a5.254 5.254 0 0 1-.557-.266" mask="url(#ar)"/>
        </g>
        <g transform="translate(14 400)">
            <mask id="at" fill="#fff">
                <use xlink:href="#as"/>
            </mask>
            <path fill="#1A1C24" d="M14.202 8.423L1.43 1.137c.19.077.385.145.586.201l12.771 7.288a5.357 5.357 0 0 1-.586-.203" mask="url(#at)"/>
        </g>
        <g transform="translate(14 400)">
            <mask id="av" fill="#fff">
                <use xlink:href="#au"/>
            </mask>
            <path fill="#1B1D25" d="M14.789 8.627L2.016 1.339c.204.057.41.106.623.14L15.41 8.767a6.115 6.115 0 0 1-.621-.14" mask="url(#av)"/>
        </g>
        <g transform="translate(14 400)">
            <mask id="ax" fill="#fff">
                <use xlink:href="#aw"/>
            </mask>
            <path fill="#1B1E26" d="M15.41 8.768L2.64 1.479c.216.038.44.063.667.078l12.77 7.286a6.196 6.196 0 0 1-.667-.075" mask="url(#ax)"/>
        </g>
        <g transform="translate(14 400)">
            <mask id="az" fill="#fff">
                <use xlink:href="#ay"/>
            </mask>
            <path fill="#1C1F27" d="M16.078 8.843L3.307 1.557c.238.014.484.016.733.005L16.81 8.85c-.248.011-.492.01-.732-.007" mask="url(#az)"/>
        </g>
        <g transform="translate(14 400)">
            <mask id="aB" fill="#fff">
                <use xlink:href="#aA"/>
            </mask>
            <path fill="#1D2028" d="M16.81 8.85L4.04 1.562c.269-.01.542-.038.82-.081l12.772 7.288a7.734 7.734 0 0 1-.822.081" mask="url(#aB)"/>
        </g>
        <g transform="translate(14 400)">
            <mask id="aD" fill="#fff">
                <use xlink:href="#aC"/>
            </mask>
            <path fill="#1E2129" d="M17.632 8.77L4.862 1.48c.316-.047.639-.113.967-.201L18.6 8.566c-.328.088-.65.155-.968.203" mask="url(#aD)"/>
        </g>
        <g transform="translate(14 400)">
            <mask id="aF" fill="#fff">
                <use xlink:href="#aE"/>
            </mask>
            <path fill="#1E222A" d="M18.6 8.565L5.829 1.28c.423-.112.854-.257 1.292-.437l12.771 7.286c-.438.18-.87.326-1.29.437" mask="url(#aF)"/>
        </g>
        <g transform="translate(14 400)">
            <mask id="aH" fill="#fff">
                <use xlink:href="#aG"/>
            </mask>
            <path fill="#1F222B" d="M19.891 8.128L7.121.84C7.62.638 8.13.39 8.648.095L21.42 7.383c-.517.293-1.028.542-1.529.745" mask="url(#aH)"/>
        </g>
        <g transform="translate(11 394)">
            <mask id="aJ" fill="#fff">
                <use xlink:href="#aI"/>
            </mask>
            <path fill="#476983" d="M15.798 14.973L3.479 7.433C1.567 6.262.379 3.78.369.263l12.32 7.539c.009 3.519 1.197 6 3.109 7.17" mask="url(#aJ)"/>
        </g>
        <path fill="#496B87" d="M23.646 401.398l-12.425-7.223-.517-182.772 12.423 7.223z"/>
        <path fill="#76ADD9" d="M33.814 200.103l-12.422-7.224 297-171.577 12.422 7.225z"/>
        <g transform="translate(10 192)">
            <mask id="aL" fill="#fff">
                <use xlink:href="#aK"/>
            </mask>
            <path fill="#476983" d="M13.069 26.497L.7 19.225c-.002-.686.046-1.386.135-2.096l12.368 7.272c-.09.711-.137 1.412-.135 2.096" mask="url(#aL)"/>
        </g>
        <g transform="translate(10 192)">
            <mask id="aN" fill="#fff">
                <use xlink:href="#aM"/>
            </mask>
            <path fill="#4A6D88" d="M13.204 24.4L.836 17.13c.064-.492.147-.99.254-1.49l12.368 7.273c-.105.499-.19.997-.254 1.489" mask="url(#aN)"/>
        </g>
        <g transform="translate(10 192)">
            <mask id="aP" fill="#fff">
                <use xlink:href="#aO"/>
            </mask>
            <path fill="#4D718D" d="M13.457 22.911L1.09 15.64c.087-.412.188-.825.3-1.238l12.368 7.273c-.113.412-.213.825-.3 1.236" mask="url(#aP)"/>
        </g>
        <g transform="translate(10 192)">
            <mask id="aR" fill="#fff">
                <use xlink:href="#aQ"/>
            </mask>
            <path fill="#4F7592" d="M13.757 21.675L1.39 14.403c.101-.368.211-.737.334-1.103l12.366 7.273c-.12.367-.23.733-.332 1.102" mask="url(#aR)"/>
        </g>
        <g transform="translate(10 192)">
            <mask id="aT" fill="#fff">
                <use xlink:href="#aS"/>
            </mask>
            <path fill="#527997" d="M14.09 20.573L1.722 13.3c.114-.343.232-.682.362-1.024l12.368 7.274c-.128.34-.25.68-.362 1.022" mask="url(#aT)"/>
        </g>
        <g transform="translate(10 192)">
            <mask id="aV" fill="#fff">
                <use xlink:href="#aU"/>
            </mask>
            <path fill="#557D9C" d="M14.452 19.55L2.084 12.278c.125-.325.256-.65.394-.973l12.369 7.272c-.139.323-.272.648-.395.973" mask="url(#aV)"/>
        </g>
        <g transform="translate(10 192)">
            <mask id="aX" fill="#fff">
                <use xlink:href="#aW"/>
            </mask>
            <path fill="#5881A1" d="M14.846 18.577L2.478 11.305c.135-.316.277-.63.426-.943l12.368 7.273c-.149.311-.291.625-.426.942" mask="url(#aX)"/>
        </g>
        <g transform="translate(10 192)">
            <mask id="aZ" fill="#fff">
                <use xlink:href="#aY"/>
            </mask>
            <path fill="#5A85A6" d="M15.273 17.635L2.905 10.363c.147-.311.301-.62.463-.925l12.368 7.271c-.161.306-.316.615-.463.926" mask="url(#aZ)"/>
        </g>
        <g transform="translate(10 192)">
            <mask id="bb" fill="#fff">
                <use xlink:href="#ba"/>
            </mask>
            <path fill="#5D89AB" d="M15.736 16.71L3.367 9.438c.162-.309.33-.614.503-.916l12.37 7.272c-.174.303-.343.609-.504.916" mask="url(#bb)"/>
        </g>
        <g transform="translate(10 192)">
            <mask id="bd" fill="#fff">
                <use xlink:href="#bc"/>
            </mask>
            <path fill="#608DB0" d="M16.24 15.794L3.87 8.523c.181-.311.364-.618.558-.92l12.366 7.272c-.19.303-.374.609-.554.92" mask="url(#bd)"/>
        </g>
        <g transform="translate(10 192)">
            <mask id="bf" fill="#fff">
                <use xlink:href="#be"/>
            </mask>
            <path fill="#6391B5" d="M16.795 14.875L4.427 7.603c.2-.32.408-.63.621-.94l12.369 7.273c-.215.307-.421.621-.622.94" mask="url(#bf)"/>
        </g>
        <g transform="translate(10 192)">
            <mask id="bh" fill="#fff">
                <use xlink:href="#bg"/>
            </mask>
            <path fill="#6595BA" d="M17.416 13.936L5.048 6.664c.23-.334.47-.661.715-.98l12.368 7.273c-.245.318-.483.644-.715.979" mask="url(#bh)"/>
        </g>
        <g transform="translate(10 192)">
            <mask id="bj" fill="#fff">
                <use xlink:href="#bi"/>
            </mask>
            <path fill="#6899C0" d="M18.132 12.956L5.762 5.684c.282-.368.572-.726.868-1.072L19 11.885c-.298.347-.588.703-.868 1.07" mask="url(#bj)"/>
        </g>
        <g transform="translate(10 192)">
            <mask id="bl" fill="#fff">
                <use xlink:href="#bk"/>
            </mask>
            <path fill="#6B9DC5" d="M19 11.885L6.63 4.613c.379-.438.768-.858 1.167-1.257l12.368 7.271c-.4.4-.788.82-1.164 1.258" mask="url(#bl)"/>
        </g>
        <g transform="translate(10 192)">
            <mask id="bn" fill="#fff">
                <use xlink:href="#bm"/>
            </mask>
            <path fill="#6EA1CA" d="M20.166 10.628L7.798 3.356C8.908 2.25 10.1 1.303 11.34.577L23.71 7.85c-1.241.726-2.435 1.672-3.544 2.779" mask="url(#bn)"/>
        </g>
        <path fill="#F6F2FF" d="M330.689 29.17c5.886-3.41 10.713-.65 10.732 6.139l.516 182.88c.02 6.788-4.775 15.124-10.661 18.534L35.016 408.399c-5.887 3.412-10.711.65-10.73-6.139l-.519-182.879c-.02-6.788 4.777-15.124 10.661-18.535L330.69 29.171z"/>
        <path fill="#4C2FD1" d="M13.019 434.52L.627 427.293.001 205.352l12.39 7.227zM23.053 194.063l-12.392-7.227L329.614 2.011l12.391 7.227zM341.937 218.189l-.516-182.88c-.02-6.788-4.847-9.548-10.732-6.138L34.43 200.847c-5.887 3.41-10.68 11.746-10.661 18.534l.516 182.88c.02 6.786 4.845 9.548 10.732 6.138l296.26-171.676c5.885-3.41 10.68-11.746 10.661-18.534zm.068-208.95c5.87-3.402 10.696-.642 10.716 6.127l.626 221.943L13.02 434.52l-.628-221.941c-.02-6.769 4.776-15.105 10.66-18.515L342.006 9.238z"/>
        <path fill="#4C2FD1" d="M10.662 186.835c-1.245.722-2.44 1.663-3.553 2.764-.402.397-.791.814-1.168 1.25-.3.345-.59.7-.874 1.064a26.425 26.425 0 0 0-2.4 3.735 24.434 24.434 0 0 0-1.98 4.928 19.515 19.515 0 0 0-.55 2.702A15.6 15.6 0 0 0 0 205.352l12.392 7.228c-.002-.679.044-1.371.135-2.075a19.066 19.066 0 0 1 .551-2.7 23.3 23.3 0 0 1 1.089-3.076c.137-.312.278-.625.427-.935.15-.31.304-.615.464-.918a25.185 25.185 0 0 1 1.062-1.825 25.756 25.756 0 0 1 1.34-1.909 23.125 23.125 0 0 1 2.04-2.315c1.112-1.102 2.31-2.043 3.553-2.764l-12.392-7.228z"/>
        <path fill="#C2C29C" d="M232 127l-.025 5.924L213 144l.025-5.925z"/>
        <path fill="#87866E" d="M213 137.97l-.025 6.03L170 119.03l.023-6.03z"/>
        <path fill="#FFFFD1" d="M232 126.804L212.722 138 170 113.198 189.277 102z"/>
        <path fill="#AD604C" d="M150.927 124.09l-.028 5.91.174-.09.028-5.91z"/>
        <path fill="#794537" d="M194 148.97l-.025 6.03L151 130.03l.025-6.03z"/>
        <path fill="#4C2FD1" d="M213 138l-.025 5.955L194 155l.025-5.955zM213 137.865L193.878 149l-42.721-24.865-.157.09L170.278 113z"/>
        <path fill="#F2F2F2" d="M194 149l-.025 5.924L175 166l.025-5.925z"/>
        <path fill="#87866E" d="M175 159.97l-.025 6.03L132 141.03l.023-6.03z"/>
        <path fill="#F2F2F2" d="M194 148.804L174.723 160 132 135.198l19.122-11.107.156-.091z"/>
        <path fill="#794537" d="M155 171.97l-.027 6.03L112 153.03l.023-6.03z"/>
        <path fill="#4C2FD1" d="M174 159.865L154.878 171l-42.723-24.865-.155.09L131.277 135z"/>
        <path fill="#AD604C" d="M111.927 147.088l-.028 5.912.176-.09.026-5.91z"/>
        <path fill="#4C2FD1" d="M174 160l-.025 5.955L155 177l.026-5.955z"/>
        <path fill="#F2F2F2" d="M155 172l-.026 5.924L136 189l.025-5.925z"/>
        <path fill="#87866E" d="M136 182.97l-.025 6.03L93 164.03l.023-6.03z"/>
        <path fill="#F2F2F2" d="M155 171.803L135.722 183 93 158.197l19.123-11.108.155-.089z"/>
        <path fill="#AD604C" d="M73.927 169.088L73.901 175l.172-.09.026-5.91z"/>
        <path fill="#794537" d="M117 193.97l-.025 6.03L74 175.03l.023-6.03z"/>
        <path fill="#4C2FD1" d="M136 183l-.025 5.955L117 200l.025-5.955zM136 182.865L116.878 194l-42.723-24.865-.155.09L93.277 158z"/>
        <path fill="#F2F2F2" d="M117 193.804L97.723 205 55 180.196l19.122-11.105.155-.091z"/>
        <path fill="#F2F2F2" d="M116 194l-.025 5.924L97 211l.026-5.925z"/>
        <path fill="#87866E" d="M97 204.97l-.027 6.03L54 186.03l.023-6.03z"/>
        <path fill="#4C2FD1" d="M97 205l-.026 5.924L78 222l.025-5.924z"/>
        <path fill="#794537" d="M78 215.97l-.025 6.03L35 197.03l.023-6.03z"/>
        <path fill="#4C2FD1" d="M97 204.804L77.722 216 35 191.196 54.278 180z"/>
        <path fill="#F2F2F2" d="M78 216l-.025 5.924L59 233l.025-5.925z"/>
        <path fill="#DDD" d="M59 227.97l-.025 6.03L16 209.03l.025-6.03z"/>
        <path fill="#F2F2F2" d="M78 215.804L58.722 227 16 202.198 35.277 191zM386 37l-.025 5.924L367 54l.025-5.925z"/>
        <path fill="#87866E" d="M367 48.97l-.025 6.03L324 30.03l.023-6.03z"/>
        <path fill="#F2F2F2" d="M386 37.804L366.723 49 324 24.198 343.278 13z"/>
        <path fill="#AD604C" d="M304.927 35.088L304.899 41l.174-.09.028-5.91z"/>
        <path fill="#794537" d="M348 58.97l-.025 6.03L305 40.03l.023-6.03z"/>
        <path fill="#4C2FD1" d="M367 48l-.025 5.955L348 65l.025-5.955z"/>
        <path fill="#4C2FD1" d="M367 48.865L347.878 60l-42.723-24.865-.155.09L324.277 24z"/>
        <path fill="#F2F2F2" d="M348 60l-.025 5.924L329 77l.025-5.924z"/>
        <path fill="#87866E" d="M329 70.97l-.025 6.03L286 52.03l.025-6.03z"/>
        <path fill="#F2F2F2" d="M348 59.804L328.722 71 286 46.196l19.122-11.105.155-.091z"/>
        <path fill="#794537" d="M310 81.97l-.025 6.03L267 63.03l.025-6.03z"/>
        <path fill="#4C2FD1" d="M329 70.865L309.878 82l-42.721-24.865-.157.09L286.278 46z"/>
        <path fill="#AD604C" d="M266.927 58.088L266.899 64l.174-.09.028-5.91z"/>
        <path fill="#4C2FD1" d="M329 71l-.025 5.955L310 88l.025-5.955z"/>
        <path fill="#F2F2F2" d="M309 82l-.025 5.924L290 99l.026-5.925z"/>
        <path fill="#87866E" d="M290 92.97l-.027 6.03L247 74.03l.023-6.03z"/>
        <path fill="#F2F2F2" d="M310 81.804L290.723 93 248 68.198l19.122-11.107.156-.091z"/>
        <path fill="#AD604C" d="M227.927 79.088L227.899 85l.176-.09.026-5.91z"/>
        <path fill="#794537" d="M271 103.97l-.027 6.03L228 85.03l.023-6.03z"/>
        <path fill="#4C2FD1" d="M290 93l-.026 5.955L271 110l.026-5.955zM290 92.865L270.878 104l-42.723-24.865-.155.09L247.277 68z"/>
        <path fill="#F2F2F2" d="M271 103.804L251.722 115 209 90.198l19.123-11.107.155-.091zM271 104l-.026 5.924L252 121l.025-5.925z"/>
        <path fill="#87866E" d="M252 114.97l-.025 6.03L209 96.03l.023-6.03z"/>
        <path fill="#4C2FD1" d="M251 116l-.025 5.924L232 133l.026-5.925z"/>
        <path fill="#794537" d="M232 126.97l-.027 6.03L189 108.03l.023-6.03z"/>
        <path fill="#4C2FD1" d="M252 115.804L232.723 127 190 102.198 209.277 91z"/>
        <path fill="#F2F2F2" d="M232 127l-.026 5.924L213 144l.025-5.924zM232 126.804L212.722 138 170 113.198 189.277 102z"/>
        <g>
            <path fill="#EDE8FF" d="M219.84 163.643c2.673-1.54 4.846-.305 4.855 2.76l.084 29.626c.009 3.067-2.15 6.796-4.824 8.337l-25.825 14.886c-2.672 1.54-4.845.305-4.854-2.762l-.084-29.626c-.008-3.065 2.15-6.795 4.822-8.335l25.827-14.886zM219.84 218.152c2.673-1.542 4.846-.305 4.855 2.76l.084 29.626c.009 3.065-2.15 6.795-4.824 8.337L194.13 273.76c-2.672 1.54-4.845.305-4.854-2.762l-.084-29.625c-.008-3.067 2.15-6.798 4.822-8.338l25.827-14.884zM265.723 139.038c2.672-1.54 4.845-.305 4.854 2.76l.083 29.626c.01 3.067-2.149 6.797-4.823 8.337l-25.825 14.886c-2.672 1.54-4.845.305-4.854-2.76l-.084-29.626c-.009-3.066 2.148-6.797 4.822-8.337l25.827-14.886zM265.723 193.547c2.672-1.54 4.845-.305 4.854 2.76l.083 29.626c.01 3.065-2.149 6.797-4.823 8.337l-25.825 14.886c-2.672 1.54-4.845.305-4.854-2.76l-.084-29.627c-.009-3.067 2.148-6.797 4.822-8.336l25.827-14.886zM312.363 112.352c2.672-1.542 4.843-.305 4.852 2.76l.086 29.626c.009 3.066-2.15 6.796-4.824 8.337l-25.825 14.886c-2.672 1.54-4.845.305-4.854-2.762l-.084-29.626c-.009-3.065 2.148-6.795 4.82-8.335l25.829-14.886zM312.363 166.86c2.672-1.54 4.843-.305 4.852 2.76l.086 29.626c.009 3.068-2.15 6.797-4.824 8.337l-25.825 14.886c-2.672 1.54-4.845.305-4.854-2.76l-.084-29.626c-.009-3.067 2.148-6.797 4.82-8.337l25.829-14.886z"/>
            <path fill="#8076BF" d="M128.133 293.045l.038 13.897-86.356 49.773-.037-13.897z"/>
            <path fill="#56671A" d="M253.683 374.753l-.016 5.808c0 .027 0 .055-.002.084l.018-5.808v-.084"/>
            <path fill="#8076BF" d="M253.52 375.731c-.012.034-.019.068-.031.104-.104.3-.26.595-.454.885-.034.05-.067.102-.105.155a5.31 5.31 0 0 1-.755.83c-.195.177-.445.338-.678.502-.195.139-.361.285-.584.413v.002l-70.401 40.84-.015 5.807 70.398-40.84h.002a9.39 9.39 0 0 1 .116-.069c.178-.108.307-.233.467-.347.234-.164.482-.324.677-.5.02-.017.048-.03.064-.047.223-.205.422-.42.591-.635.04-.048.066-.1.102-.15.04-.051.07-.103.105-.154.06-.088.127-.175.177-.264.102-.178.186-.358.254-.54.01-.027.014-.055.025-.082.01-.034.017-.07.028-.104.038-.117.077-.231.1-.347.036-.182.057-.365.063-.545v-.079l.001-.005.016-5.808c0 .328-.06.654-.164.978"/>
            <path fill="#8076BF" d="M178.635 420.288c-.234.08-.477.15-.718.219a14.371 14.371 0 0 1-2.112.435c-.094.012-.185.028-.28.04-.528.056-1.064.085-1.601.088h-.254a16.666 16.666 0 0 1-1.582-.085c-.078-.01-.158-.018-.237-.027-.52-.062-1.03-.152-1.53-.262-.09-.021-.182-.046-.271-.068a12.987 12.987 0 0 1-1.325-.403c-.077-.028-.157-.048-.232-.078-.51-.196-1-.422-1.451-.684L47.249 350.42c-1.88-1.085-2.818-2.503-2.815-3.922l-.016 5.806c-.005 1.417.935 2.837 2.815 3.923l119.79 69.043c.431.247.893.467 1.379.657.023.01.052.018.077.027.075.028.152.05.228.078.28.1.56.204.852.287.155.043.316.077.475.114.089.024.178.048.271.068.084.018.164.043.248.06.309.065.625.12.945.163.11.018.224.025.337.04.079.01.157.019.236.024.117.012.233.03.351.041.31.027.623.041.938.048.098.004.192-.002.29 0l.26-.002c.14-.001.281.004.422-.001.354-.013.706-.034 1.056-.07.04-.005.08-.014.12-.018.096-.009.188-.026.283-.039.273-.034.544-.064.81-.11.12-.024.227-.065.345-.088.325-.066.64-.148.955-.237.166-.048.343-.073.503-.125.077-.025.138-.07.213-.094.666-.23 1.307-.494 1.88-.823l.016-5.808c-.573.333-1.214.595-1.878.825"/>
            <path fill="#9D94D3" d="M250.87 370.83c3.736 2.155 3.755 5.637.042 7.792l-70.4 40.84c-3.71 2.154-9.736 2.154-13.47 0L47.249 350.42c-3.734-2.153-3.756-5.635-.044-7.79l70.4-40.84c3.712-2.154 9.737-2.154 13.472 0l119.792 69.04z"/>
            <path fill="#EFECFC" d="M83.81 321.394l133.308 76.833 23.015-13.352-133.306-76.833z"/>
            <path fill="#FFFDFF" d="M113.268 360.37l-11.053 6.415-17.296-9.97 11.053-6.412zM91.034 347.558l-11.052 6.413L62.685 344l11.054-6.412z"/>
            <path fill="#C1B5F1" d="M182.535 397.804c2.035 1.173 2.046 3.094.009 4.277l-7.043 4.085c-2.039 1.183-5.363 1.183-7.398.01l-13.442-7.746c-2.053-1.184-2.048-3.098-.01-4.28l7.043-4.086c2.039-1.181 5.347-1.192 7.398-.008l13.443 7.748z"/>
            <path fill="#2E4752" d="M100.15 299.288l-6.907-4.006-11.677-7.127 6.907 4.006z"/>
            <path fill="#EDD46C" d="M120.24 223.69l-6.906-4.009c.328-.189.653-.349.971-.48l6.907 4.005c-.318.134-.64.294-.971.483"/>
            <path fill="#EDD46C" d="M121.212 223.207l-6.907-4.006c.277-.116.55-.21.816-.281l6.907 4.006c-.266.073-.54.167-.816.281M122.028 222.926l-6.907-4.008c.207-.055.41-.098.612-.128l6.907 4.006c-.202.03-.405.075-.612.13"/>
            <path fill="#EDD46C" d="M122.64 222.797l-6.907-4.008c.175-.027.348-.043.518-.052l6.907 4.008c-.17.007-.341.025-.518.052M123.158 222.744l-6.907-4.007c.155-.006.308-.004.46.003l6.905 4.008a4.366 4.366 0 0 0-.458-.004"/>
            <path fill="#EDD46C" d="M123.616 222.748l-6.905-4.008c.143.01.282.027.418.05l6.907 4.008a3.969 3.969 0 0 0-.42-.05"/>
            <path fill="#EDD46C" d="M124.036 222.798l-6.907-4.008c.134.025.264.053.391.09l6.907 4.007a4.016 4.016 0 0 0-.39-.09M124.427 222.887l-6.907-4.008c.127.037.25.08.368.13l6.907 4.008a3.209 3.209 0 0 0-.368-.13"/>
            <path fill="#EDD46C" d="M124.795 223.017l-6.907-4.008c.12.05.237.109.348.17l6.907 4.007a3.306 3.306 0 0 0-.348-.17"/>
            <path fill="#EDD46C" d="M125.143 223.186l-6.907-4.008.038.024 6.907 4.008a.191.191 0 0 0-.038-.024"/>
            <path fill="#38BF85" d="M118.274 219.202l6.907 4.008c-1.262-.734-3.011-.63-4.94.48l-6.908-4.007c1.93-1.112 3.68-1.215 4.941-.481M40.704 317.327l-6.907-4.007c-1.248-.723-2.023-2.261-2.028-4.444l6.907 4.006c.005 2.183.78 3.723 2.028 4.445"/>
            <g transform="translate(31 274.095)">
                <mask id="bp" fill="#fff">
                    <use xlink:href="#bo"/>
                </mask>
                <path fill="#38BF85" d="M.768 34.782l5.397 3.13 1.51.876c-.01-3.497-.021-6.993-.028-10.49L7.579 4.641l-1.51-.875L.67.634l.068 23.658c.009 3.497.02 6.993.03 10.49" mask="url(#bp)"/>
            </g>
            <path fill="#38BF85" d="M45.323 266.851l-6.814-4.05 74.825-43.12 6.907 4.009z"/>
            <g fill="#38BF85">
                <path d="M38.578 278.736l-6.906-4.006c0-.444.028-.897.089-1.355l6.907 4.007a10.33 10.33 0 0 0-.09 1.354"/>
                <path d="M31.76 273.376c.041-.32.097-.638.166-.96l6.907 4.005c-.07.323-.123.642-.166.96M38.833 276.421l-6.907-4.006c.055-.264.121-.53.195-.795l6.907 4.007c-.075.265-.14.53-.195.794"/>
                <path d="M39.028 275.626l-6.907-4.006c.065-.237.138-.472.216-.708l6.907 4.008c-.078.234-.151.47-.216.706"/>
                <path d="M39.245 274.92l-6.907-4.007c.073-.219.151-.436.235-.654l6.907 4.006c-.084.218-.162.437-.235.654"/>
                <path d="M32.827 269.636c.088-.202.18-.405.277-.603.096-.197.196-.397.298-.591.107-.196.214-.392.328-.585.115-.198.236-.394.36-.586.13-.203.263-.405.403-.6.15-.213.303-.423.46-.628.184-.233.372-.462.566-.684.245-.282.498-.551.759-.81.725-.71 1.503-1.322 2.315-1.789l6.909 4.007a11.462 11.462 0 0 0-2.317 1.792c-.263.255-.514.524-.759.806-.193.223-.382.45-.564.684-.159.207-.312.415-.462.628a15.208 15.208 0 0 0-.762 1.189c-.113.192-.222.386-.33.584-.1.194-.203.392-.299.59-.095.2-.187.4-.275.602-.091.207-.175.413-.253.624l-6.91-4.006c.081-.21.167-.418.256-.624"/>
            </g>
            <path fill="#46D598" d="M120.24 223.69c3.834-2.209 6.956-.432 6.969 3.963l.098 34.147c.012 4.397-3.09 9.76-6.923 11.969l-20.273 11.685.04 13.833-11.678-7.127-42.829 24.686c-3.834 2.208-6.956.432-6.967-3.965l-.098-34.145c-.013-4.397 3.09-9.76 6.923-11.97l74.739-43.077z"/>
            <path fill="#FFFDFF" d="M67.229 274.303l.01 3.848 2.078-1.196c.829-.477 1.409-.98 1.786-1.547.362-.558.55-1.185.548-1.851-.002-.6-.222-.94-.645-1.048-.421-.105-1.074.105-1.919.588-.289.17-.625.378-.987.604a8.303 8.303 0 0 0-.871.602m4.158 9.135c.492-.632.739-1.341.735-2.11-.002-.716-.205-1.115-.627-1.172-.408-.064-1.047.153-1.906.647l-2.337 1.347.01 3.985c.261-.068.61-.203 1.033-.414.405-.2.814-.417 1.19-.634a6.44 6.44 0 0 0 1.902-1.649m4.882-7.287c.643.45.964 1.282.968 2.497.005 2.151-.702 4.16-2.093 5.997-1.392 1.837-3.395 3.507-6.01 5.015-.332.194-.71.412-1.146.629a17.14 17.14 0 0 1-1.352.645c-.466.218-.932.403-1.38.561-.45.16-.873.271-1.251.303-1.048.154-1.573-.344-1.575-1.477l-.044-15.262c-.002-.45.1-.86.317-1.235.216-.374.522-.768.898-1.135a20.093 20.093 0 0 1 2.425-1.966 41.581 41.581 0 0 1 2.992-1.907c2.424-1.397 4.3-2.012 5.61-1.832 1.31.196 1.968 1.269 1.973 3.219.004.983-.24 1.976-.732 2.958a9.498 9.498 0 0 1-1.985 2.698c.944-.228 1.744-.139 2.385.292M92.623 255.478c.435-.251.828-.444 1.162-.554.335-.125.61-.152.844-.084.218.075.393.239.51.524.119.281.177.714.18 1.281l.026 10.066a11.799 11.799 0 0 1-.528 3.523 13.924 13.924 0 0 1-1.502 3.354 15.617 15.617 0 0 1-2.422 2.981 16.49 16.49 0 0 1-3.223 2.41c-1.19.684-2.267 1.12-3.211 1.299-.96.187-1.762.112-2.432-.184-.67-.297-1.181-.839-1.531-1.604-.352-.766-.529-1.748-.532-2.915l-.036-12.496c.204-.15.536-.41.987-.736.464-.351.9-.637 1.323-.879.436-.251.812-.437 1.146-.544.336-.128.61-.153.845-.087.233.066.394.243.51.524.116.283.177.716.179 1.283l.026 9.962c.004 1.034.254 1.725.764 2.016.51.289 1.15.22 1.95-.239.812-.469 1.48-1.153 1.97-2.02.495-.87.738-1.844.735-2.879l-.034-12.396c.203-.152.537-.41.987-.736.464-.352.9-.635 1.307-.87M110.548 245.347c.668-.385 1.235-.511 1.701-.38.466.13.702.598.704 1.414 0 .251-.058.6-.143 1.034-.102.426-.318 1.101-.65 2.06-.346.951-.837 2.252-1.487 3.912a372.42 372.42 0 0 1-2.658 6.572l.02 6.631c-.204.184-.524.435-.96.754-.435.317-.872.602-1.277.836-.886.511-1.54.722-1.978.622-.438-.082-.657-.674-.661-1.755l-.012-4.417c-.48-.524-.991-1.131-1.546-1.796a63.393 63.393 0 0 1-1.636-2.06 48.77 48.77 0 0 1-1.49-2.178 17.55 17.55 0 0 1-1.113-2.08 8.92 8.92 0 0 1 1.016-1.67c.42-.575.941-1.028 1.568-1.386.74-.43 1.35-.613 1.815-.531.466.082.903.48 1.327 1.205l2.385 4.084.173-.101c.259-.818.49-1.569.692-2.253.188-.657.39-1.326.577-2.001.186-.658.39-1.358.591-2.076.2-.717.446-1.542.705-2.474.348-.403.727-.77 1.146-1.13a8.943 8.943 0 0 1 1.19-.836"/>
            <path fill="#4C2FD1" d="M398.371 310.099l-.05 73.635-61.22 35.516.05-73.635z"/>
            <path fill="#C1B5F1" d="M373.638 370.559l-.025 17.338-28.577 16.581.021-17.338z"/>
            <path fill="#3A29B7" d="M337.152 345.614l-.05 73.636-61.62-35.514.05-73.637z"/>
            <path fill="#5542E2" d="M398.371 310.099l-61.22 35.516-61.62-35.516 61.219-35.516z"/>
            <path fill="#FFFDFF" d="M375.342 296.891l-61.22 35.516-13.607-8.001 61.22-35.515z"/>
            <path fill="#4C2FD1" d="M401.785 223.793l-.05 73.636-61.22 35.515.05-73.635z"/>
            <path fill="#C1B5F1" d="M377.05 284.255l-.023 17.338-28.58 16.58.024-17.34z"/>
            <path fill="#3A29B7" d="M340.565 259.309l-.05 73.635-61.622-35.514.05-73.636z"/>
            <path fill="#5542E2" d="M401.785 223.793l-61.22 35.516-61.622-35.516 61.22-35.516z"/>
            <path fill="#FFFDFF" d="M378.755 210.586l-61.22 35.516-13.608-8.001 61.22-35.515zM431.164 205.993c6.694-3.859 12.316-4.493 16.711-1.904 10.674 6.286 10.519 29.2 10.506 30.179l-1.751.973c.012-.242.168-23.066-9.987-29.04-4.063-2.384-9.265-1.777-15.474 1.802l-1.158.666c-6.21 3.58-11.395 8.96-15.417 16.004-10.105 17.65-9.82 40.222-9.805 40.447l-1.735 1.035c-.02-.958-.32-23.61 10.283-42.16 4.365-7.637 9.974-13.476 16.67-17.334l1.157-.668z"/>
            <g>
                <path fill="#C1B5F1" d="M412.175 289.42l91.819-53.266-.384 135.085-91.819 53.266z"/>
                <path fill="#EBEBFC" d="M383.316 272.787l91.818-53.265 10.03 10.781 18.83 5.851-91.819 53.266-8.68-10.812z"/>
                <path fill="#9D94D3" d="M412.175 289.42l-.384 135.085-13.194-13.213-15.665-3.42.384-135.085 19.77 5.21z"/>
            </g>
            <path fill="#DCDCF3" d="M503.993 236.155l-18.83-5.85-10.03-10.783v33.374z"/>
            <path fill="#FFFDFF" d="M465.463 221.075c6.696-3.86 12.318-4.492 16.713-1.903 10.672 6.286 10.518 29.2 10.506 30.179l-1.752.973c.013-.243.168-23.066-9.986-29.04-4.063-2.385-9.265-1.779-15.474 1.8l-1.159.668c-6.209 3.579-11.395 8.959-15.418 16.004-10.103 17.648-9.819 40.22-9.803 40.445l-1.737 1.037c-.018-.96-.318-23.613 10.285-42.16 4.364-7.638 9.973-13.476 16.668-17.336l1.157-.667zM408.267 321.72c4.297-2.478 7.906-2.886 10.727-1.225 6.852 4.036 6.752 18.744 6.743 19.373l-1.125.624c.01-.155.109-14.804-6.409-18.64-2.61-1.53-5.948-1.14-9.933 1.157l-.742.428c-3.987 2.297-7.316 5.75-9.897 10.274-6.486 11.327-6.304 25.818-6.293 25.96l-1.114.667c-.013-.617-.206-15.159 6.6-27.063 2.802-4.905 6.403-8.65 10.7-11.128l.743-.428z"/>
            <g>
                <path fill="#4C2FD1" d="M396.077 375.27l58.938-34.192-.246 86.711-58.938 34.19z"/>
                <path fill="#EBEBFC" d="M377.554 364.593l58.937-34.192 6.437 6.922 12.088 3.757-58.939 34.19-5.57-6.94z"/>
                <path fill="#3A29B7" d="M396.077 375.27l-.246 86.71-8.47-8.482-10.054-2.194.247-86.71 12.69 3.343z"/>
            </g>
            <path fill="#DCDCF3" d="M455.015 341.079l-12.088-3.755-6.437-6.922v21.423z"/>
            <path fill="#FFFDFF" d="M430.284 331.401c4.297-2.479 7.906-2.885 10.727-1.224 6.852 4.036 6.752 18.744 6.743 19.373l-1.125.624c.01-.155.109-14.804-6.409-18.641-2.61-1.53-5.948-1.139-9.933 1.158l-.742.428c-3.987 2.297-7.316 5.75-9.898 10.274-6.485 11.327-6.303 25.816-6.292 25.96l-1.114.665c-.013-.617-.206-15.157 6.6-27.064 2.802-4.902 6.403-8.648 10.7-11.125l.743-.428z"/>
        </g>
    </g>
</svg>
